<?xml version="1.0" encoding="UTF-8"?>
<svg id="Calque_2" data-name="Calque 2" xmlns="http://www.w3.org/2000/svg" viewBox="0 0 383.35 367.54">
  <defs>
    <style>
      .cls-1 {
        fill: #35759a;
      }

      .cls-1, .cls-2, .cls-3, .cls-4, .cls-5, .cls-6, .cls-7, .cls-8, .cls-9, .cls-10 {
        stroke-width: 0px;
      }

      .cls-2 {
        fill: #0b1e37;
      }

      .cls-3 {
        fill: #4ed0e4;
      }

      .cls-4 {
        fill: #0d1319;
      }

      .cls-5 {
        fill: #d8d6d6;
      }

      .cls-6 {
        fill: #edeff1;
      }

      .cls-7 {
        fill: #0b3354;
      }

      .cls-8 {
        fill: #259abe;
      }

      .cls-9 {
        fill: #60c5e8;
      }

      .cls-10 {
        fill: #082230;
      }
    </style>
  </defs>
  <g id="Calque_1-2" data-name="Calque 1">
    <g>
      <path class="cls-5" d="M.25,357.04c21.39-17.03,30.85-6.88,45.5-11.5-.34,2.6-5.75.75-6.75,3.5-6.78,1.24-19.09-.21-23,.5-4.21.76-13.45,9.73-15.75,7.5Z"/>
      <g>
        <path class="cls-2" d="M293.73,157.05c-3.07,34.98-39.35,49.38-41.5,33.75-.24-1.73,2.13-30.09,2.5-34.75,12.56-3.61,25.23-12.34,38.5-9.75l.5,10.75Z"/>
        <path class="cls-2" d="M286.73,125.05c6.35,9.51,7.98,20.89,7,32l-.5-10.75c-13.27-2.59-25.94,6.14-38.5,9.75.31-3.86.8-7.69,1.5-11.5,9.31-6.25,27.42-17.28,30.5-19.5Z"/>
      </g>
      <g>
        <path class="cls-6" d="M354.23,48.05c-2.31-.79-2.77-1.74-3.5-2C341.43,7.71,291.56.12,258.24,2.55c-1.95.14-4.08.25-6,.5,38.13-9.46,90.07,2.36,102,45Z"/>
        <g>
          <path class="cls-7" d="M230.24,109.55c7.49,17.05-9.63,44.87-20.5,58.75-7.25,9.25-19.78,20.85-25,27-.95,1.12-1.78,2.77-2,4.25-12.71,6.72-12.82,2.04-14.5,1.5,7.77-21.42,9.23-52.95,20.5-72.5,6.51-11.3,29.15-28.32,41.5-19Z"/>
          <path class="cls-2" d="M235.74,118.55c3.01,17.95-16.11,44.57-27.5,57.5-5.17,5.87-19.22,20.18-25.5,23.5.22-1.48,1.05-3.13,2-4.25,5.21-6.15,17.75-17.75,25-27,10.87-13.88,27.99-41.7,20.5-58.75,3.1,2.34,4.86,5.18,5.5,9Z"/>
        </g>
        <g>
          <path class="cls-7" d="M240.24,11.05c7.28,1.11,10.74,4.84,5.25,11-13.88,15.58-58.1,32.51-81,52.5-39.83,34.78-87.19,114.86-96.25,166.74-2.18,12.5-3.11,27.82-4.5,40.75-.74,6.85-4.18,22.29-3,28,.03.16,1.2-.59,1.5.75.21.96-2.92,15.77-3,19.5-.31,13.81,9.45,14.28,19.75,18.75.11.05,2.4-.08,2.5,0,2.02,1.71-1.2,1.21.5,2.5.37.28,5.43.69,5.25,2.5-10.23-4.27-23.72-2.29-30.75-16-1.14.16-1.59,2.12-4.25,4-.43-2.33,4.38-4,1-5,3.65-4.32,2.64-24.23,3.5-31.25l-1.25-.75q-6.87,18.25-13.75,36.5c-6.81.9-15.35.52-21.25,1.5-6.31,1.05-12.86,4.91-18.75,5.5,3.52-14.78,11.42-25.9,24.75-33.5,18.72-10.67,17.29,1.54,24.75-28.25,3.51-14.04,5-28.62,8-42.75,7.97-37.6,14.18-64.37,29.5-100.25,4.73-11.08,21.35-41.85,23-49.25,1.54-6.91.86-11.07-5.25-15.5-13.11-9.51-23.19,2.22-24.5,2.5-10.43,2.26-2.71-14.87,16-25.5,26.33-14.96,53.97-10.4,63.5-13.5,1.97-.64,20.17-13.77,35.75-21-.1,1.19.67,1.64,1.75,1.5,2.66-.34,30.4-13.65,41.25-12Z"/>
          <path class="cls-2" d="M75.74,310.54c20.54,8.74,35.97,36.25,24.25,57-3.42-6.25-6.02-10.69-12.75-13.5.18-1.81-4.88-2.22-5.25-2.5-1.7-1.29,1.52-.79-.5-2.5-.1-.08-2.39.05-2.5,0-10.3-4.47-20.06-4.94-19.75-18.75.08-3.73,3.21-18.54,3-19.5-.3-1.34-1.47-.59-1.5-.75,5.5-3.64,9.6-1.8,15,.5Z"/>
          <path class="cls-10" d="M52.24,342.04c-2.09,1.48-4.02,2.72-6.5,3.5-14.65,4.62-24.11-5.53-45.5,11.5-.95-.93,1.16-7.08,1.5-8.5,5.89-.59,12.44-4.45,18.75-5.5,5.9-.98,14.44-.6,21.25-1.5,4.24-.56,8.12-.5,11.5-4.5,3.38,1-1.43,2.67-1,5Z"/>
          <path class="cls-2" d="M53.24,337.04c-3.38,4-7.26,3.94-11.5,4.5q6.87-18.25,13.75-36.5l1.25.75c-.86,7.02.15,26.93-3.5,31.25Z"/>
        </g>
        <g>
          <path class="cls-8" d="M188.74,128.55c-11.27,19.54-12.73,51.07-20.5,72.5-2.43-.78-21.82,15.04-25.25,18-29.4,25.41-45.46,51.23-63.75,85-1.38,2.08-2.97,3.96-3.5,6.5-5.4-2.3-9.5-4.14-15-.5-1.18-5.7,2.26-21.15,3-28,21.19-36.92,34.33-83.22,68.25-111,5.93-4.86,14.07-9.2,20-14,11.38-9.21,26.58-26.16,36.75-28.5Z"/>
          <path class="cls-8" d="M382.23,65.55c.31-.06.68.03,1,0-.2,3.78-7.48,9.2-10.75,10.5-6.32,2.51-15,2.27-18.75,3-2.99.58-6.39.98-9.25,2-12.11,4.3-42.86,31.86-56,41.5-2.01,1.47-1.63,2.41-1.75,2.5-3.08,2.22-21.18,13.25-30.5,19.5-15.89,10.67-33.78,19-47.25,33l-.75-1.5c11.39-12.92,30.51-39.55,27.5-57.5,30.88-18.2,56.9-39.91,93.75-45,11.03-1.52,22.52-.68,33.5-2.5,6.31-1.04,13.19-4.31,19.25-5.5Z"/>
          <path class="cls-9" d="M381.73,61.05c0,1.63,1.63,1.97,1.5,4.5-.32.03-.69-.06-1,0,.88-3.86-12.65.95-21.75,1.5-17.06,1.03-28.44-1.81-44.5-5.5-8.33-1.91-12.4-5.73-23.25-3,18.71-7.61,33.34,8.98,62.25,5.5,9.28-1.12,16.63-6.21,26.75-3Z"/>
          <path class="cls-3" d="M258.24,2.55c.35.86-1.3,1.39-1.75,1.5-5.91,1.37-11.9,2.21-17.25,5.25l1,1.75c-10.84-1.66-38.58,11.66-41.25,12-1.08.14-1.85-.31-1.75-1.5,14.07-6.53,40.14-16.59,55-18.5,1.92-.25,4.05-.36,6-.5Z"/>
          <g>
            <path class="cls-9" d="M350.73,46.05c-7.59-2.67-27.31,5.8-36.5,7-6.23-.77-12.76-.87-19,0-.36-.4-8.58-5.32-9.25-5.5-11.36-2.99-18.53,10.47-17.5,11,4.61-2.25,5.68,2.02,7.5,3,8.28,4.48,13.55-1.64,15.75-2.5.38-.15.62-.35,1-.5,10.85-2.73,14.91,1.09,23.25,3,16.06,3.69,27.43,6.53,44.5,5.5,9.1-.55,22.63-5.36,21.75-1.5-6.06,1.19-12.94,4.46-19.25,5.5-10.98,1.82-22.47.98-33.5,2.5-36.85,5.09-62.87,26.8-93.75,45-.64-3.82-2.4-6.66-5.5-9-12.35-9.32-34.98,7.7-41.5,19-10.17,2.34-25.37,19.29-36.75,28.5-5.93,4.8-14.07,9.14-20,14-33.92,27.78-47.05,74.08-68.25,111,1.39-12.92,2.32-28.25,4.5-40.75,9.06-51.88,56.41-131.97,96.25-166.74,22.89-19.99,67.12-36.92,81-52.5,5.49-6.16,2.03-9.89-5.25-11l-1-1.75c5.35-3.04,11.34-3.88,17.25-5.25.45-.11,2.1-.64,1.75-1.5,33.32-2.43,83.19,5.16,92.5,43.5Z"/>
            <path class="cls-8" d="M275.48,62.05q2.25,2.25,4.5,4.5c-5.53-3-11.91-1.52-16.75,2.25,3.28-7.55,10.27-4.58,12.25-6.75Z"/>
          </g>
        </g>
        <g>
          <path class="cls-7" d="M350.73,46.05c.73.26,1.19,1.21,3.5,2,.53.18,2.01,1.86,7.75,1.5,2.62-.17,19.4-6.37,21.25,4.5-15.06-.6-25.52,5.62-42.25,4.5-9.01-.6-17.88-4.4-26.75-5.5,9.19-1.2,28.9-9.67,36.5-7Z"/>
          <path class="cls-10" d="M314.23,53.05c8.87,1.1,17.74,4.9,26.75,5.5,16.73,1.12,27.19-5.1,42.25-4.5.65,3.82-1.5,6.63-1.5,7-10.12-3.21-17.47,1.88-26.75,3-28.91,3.48-43.54-13.11-62.25-5.5-.38.15-.62.35-1,.5.8-3.57,7.81-1.2,3.5-6,6.23-.87,12.77-.77,19,0Z"/>
          <g>
            <path class="cls-4" d="M295.23,53.05c4.31,4.8-2.7,2.43-3.5,6-2.2.86-7.47,6.98-15.75,2.5-1.82-.98-2.89-5.25-7.5-3-1.03-.53,6.14-13.99,17.5-11,.67.18,8.89,5.1,9.25,5.5Z"/>
            <path class="cls-1" d="M285.98,51.55l2.25.25c1.13,4.48-4.76,2.68-2.25-.25Z"/>
          </g>
        </g>
      </g>
    </g>
  </g>
</svg>