<?xml version="1.0" encoding="UTF-8"?>
<svg id="Calque_2" data-name="Calque 2" xmlns="http://www.w3.org/2000/svg" viewBox="0 0 810.64 275.93">
  <defs>
    <style>
      .cls-1 {
        fill: #e85038;
      }

      .cls-1, .cls-2, .cls-3, .cls-4, .cls-5, .cls-6 {
        stroke-width: 0px;
      }

      .cls-2 {
        fill: #b2dcdc;
      }

      .cls-3 {
        fill: #a4303a;
      }

      .cls-4 {
        fill: #2d4a41;
      }

      .cls-5 {
        fill: #ba3035;
      }

      .cls-6 {
        fill: #cc3b3a;
      }
    </style>
  </defs>
  <g id="Layer_1" data-name="Layer 1">
    <g>
      <path class="cls-6" d="M788.47,126.86c-46.69-14.61-90.73-32.97-138.91-45.46-2.12-37.48,3.57-45.05,22.53-80.88q2.35-.26,4.69-.53c13.43,39.44,196.06,103.45,111.69,126.86Z"/>
      <path class="cls-6" d="M459.96,120.52c-5.41-.4-5.9-2.06-6.57-2.11-.55-.04-3.21,2.16-3.75,2.11-84.66-6.4-155.37-5.72-238.4,7.4-20.56,3.25-62.61,15.41-62.89,10.57,35.85-15.5,69.55-35.25,113.57-42.29,64.65-24.97,130.49,1.01,198.98,0,5.32,8.34-14.33,17.79-.94,24.32Z"/>
      <path class="cls-6" d="M610.14,205.1c-4.01,1.13-5.39.96-5.63,1.06-27.51-25.67-12.94-17.9,11.26-35.94,1.47,6.29,27.51,17.79,24.4,22.73-11.79,5.09-29.44,7.94-30.03,12.16Z"/>
      <g>
        <path class="cls-1" d="M660.82,107.83q-2.82-.79-5.63-1.59c4.32,5.07.1,11.61-5.63,15.86-8.58,6.35-140.92,44.71-158.62,47.05-43.5,5.75-104.56-2.54-153.93,0-15.43.8-66.86,7.62-77.9,12.69-6.68.75-16.73,4.03-22.53,6.34-1.09-.19-8.84,2.94-20.65-3.17,27.5-10.13-31.61-8.81-35.67.53-5.98,13.75,33.15,22.92-2.82,48.1-3.13-15.78-3.08-21.89-21.59-33.83-11.52-7.43-31.41-15.58-50.68-14.8-4.15.17-7.26.26-11.26,1.06-25.63-4.26-62.57,33.85-80.72,45.46-4.3-3-14.01-3.56-13.14-8.99,26.63-23.62,74.22-55.1,113.57-72.42,1.59-.7,18.63-4.67,34.73-11.63.27,4.84,42.33-7.32,62.89-10.57,83.03-13.13,153.74-13.8,238.4-7.4.55.04,3.21-2.16,3.75-2.11.67.05,1.16,1.72,6.57,2.11,39.88,2.94,59.07,10.95,109.81,6.34,20.23-1.84,61.91-11.16,74.15-20.62,1.42-1.1,9.2-8.48,9.39-8.99,5.36,2.89,6.03,6.79,7.51,10.57Z"/>
        <path class="cls-3" d="M788.47,126.86c-21.9,11.08-90.72,2.11-113.57,5.29-16.27,2.26-48.27,29.97-59.13,38.06-24.21,18.04-38.77,10.27-11.26,35.94-21.05,8.14-38.58,68.47-49.75,69.77-24.6-9.7-38.68-26.26-44.11-42.29-1.8-5.29-1.96-11-1.88-16.39-4.16-3.31-67.22,18.09-95.74,24.84-5.7,1.35-11.59,2.36-16.89,4.23-12.56-9.33-26.49-17.53-45.99-22.2v-2.11c55.14-12.94,282.65-72.62,306.92-94.62,12.27-11.12,4.83-16.82,3.75-19.56-1.48-3.78-2.15-7.69-7.51-10.57,2.19-5.98-3.44-10.38-3.75-15.86,48.18,12.49,92.22,30.85,138.91,45.46Z"/>
        <path class="cls-6" d="M93.91,186.07c-36.86,7.39,5.67,12.12,1.88,29.07-3.62,3.42-68.17,16.9-80.72,17.44-.09-.06-.72-.25-1.88-1.06,18.15-11.61,55.09-49.72,80.72-45.46Z"/>
        <path class="cls-6" d="M660.82,107.83c1.07,2.74,8.52,8.44-3.75,19.56-24.27,22-251.78,81.68-306.92,94.62v2.11c19.5,4.67,33.43,12.87,45.99,22.2,4.63,3.44,28.34,21.99,19.71,24.32-3.93,1.06-65.03-11.42-70.39-13.74-4.84-2.1-8.87-8.71-13.14-11.1-17.46-9.77-28.93-4.36-49.75-5.81-44.12-3.07-25.64-7.54-34.73-18.5-5.42-6.53-58.76-19.21-31.91-36.47,11.81,6.11,19.56,2.98,20.65,3.17,33.85,5.92,31.6,23.37,34.73,24.32,2.75.83,50.49-7.62,58.19-8.46,31.38-3.4,60.06,1.46,35.67-8.46-27.58-11.21-52.23,2.04-60.07,1.06-9.16-1.15-11.31-18.7-45.99-14.8,11.04-5.06,62.47-11.89,77.9-12.69,49.37-2.54,110.42,5.75,153.93,0,17.71-2.34,150.04-40.69,158.62-47.05,5.73-4.24,9.95-10.78,5.63-15.86q2.82.79,5.63,1.59Z"/>
        <path class="cls-3" d="M236.58,188.18c5.79-2.32,15.84-5.59,22.53-6.34,34.68-3.9,36.83,13.65,45.99,14.8,7.84.99,32.49-12.27,60.07-1.06,24.4,9.92-4.29,5.06-35.67,8.46-7.71.84-55.44,9.29-58.19,8.46-3.13-.95-.88-18.4-34.73-24.32Z"/>
        <g>
          <path class="cls-3" d="M215.93,185.01c-26.85,17.27,26.5,29.94,31.91,36.47,9.09,10.96-9.39,15.43,34.73,18.5,20.81,1.45,32.28-3.95,49.75,5.81,4.27,2.39,8.3,9,13.14,11.1-103.12,20.33-225.59,26.88-315.37-14.8-11.19-5.2-12.05-7.6-15.02-9.51,12.55-.54,77.1-14.02,80.72-17.44,3.8-16.95-38.74-21.68-1.88-29.07,4-.8,7.11-.89,11.26-1.06,15.03,10.77,28.22,12.47,50.68,14.8,18.51,11.94,18.46,18.05,21.59,33.83,35.97-25.18-3.16-34.35,2.82-48.1,4.06-9.34,63.16-10.66,35.67-.53Z"/>
          <path class="cls-5" d="M155.86,199.81c-22.46-2.33-35.66-4.03-50.68-14.8,19.27-.77,39.16,7.37,50.68,14.8Z"/>
          <path class="cls-4" d="M150.23,215.67c.32,5.1-4.55,5.09-11.26,5.29,5.06-2.47-9.12-3.23-20.65-10.04,20.86-11.52,21.35-8.79,31.91,4.76Z"/>
          <path class="cls-2" d="M150.23,215.67c-10.57-13.55-11.05-16.27-31.91-4.76,11.53,6.81,25.71,7.57,20.65,10.04-47.57,1.38-14.22-36.72,15.02-8.99q-1.88,1.85-3.75,3.7Z"/>
        </g>
      </g>
    </g>
  </g>
</svg>