<?xml version="1.0" encoding="UTF-8" standalone="no"?>
<svg
   xmlns:dc="http://purl.org/dc/elements/1.1/"
   xmlns:cc="http://creativecommons.org/ns#"
   xmlns:rdf="http://www.w3.org/1999/02/22-rdf-syntax-ns#"
   xmlns:svg="http://www.w3.org/2000/svg"
   xmlns="http://www.w3.org/2000/svg"
   viewBox="0 0 2560 1440"
   height="1440"
   width="2560"
   xml:space="preserve"
   id="svg2"
   version="1.1"><metadata
     id="metadata8"><rdf:RDF><cc:Work
         rdf:about=""><dc:format>image/svg+xml</dc:format><dc:type
           rdf:resource="http://purl.org/dc/dcmitype/StillImage" /></cc:Work></rdf:RDF></metadata><defs
     id="defs6"><clipPath
       id="clipPath18"
       clipPathUnits="userSpaceOnUse"><path
         id="path16"
         d="M 0,1080 H 1920 V 0 H 0 Z" /></clipPath></defs><g
     transform="matrix(1.3333333,0,0,-1.3333333,0,1440)"
     id="g10"><g
       id="g12"><g
         clip-path="url(#clipPath18)"
         id="g14"><g
           transform="translate(849.4091,812.7804)"
           id="g20"><path
             id="path22"
             style="fill:#252424;fill-opacity:1;fill-rule:nonzero;stroke:none"
             d="m 0,0 c 1.04,0.871 5.147,0.834 5.98,1.649 0.166,0.162 0.779,0.031 0.426,1.046 -0.641,3.606 -7.959,26.649 -7.287,27.729 0.95,1.525 27.416,6.597 31.23,8.61 0.89,16.22 -18.493,-1.015 -34.062,0.367 -4,7.044 4.095,8.464 -0.725,15.598 -1.45,2.145 -4.186,-0.548 -5.128,0.445 -1.68,1.769 -7.257,35.001 -10.54,29.155 3.482,-21.06 13.401,-31.614 1.476,-32.583 2.324,-13.981 6.007,-3.443 7.846,-15.494 l -29.662,-9.107 c -3.531,-14.798 26.98,2.009 31.592,0.811 C -7.202,27.797 -0.953,3.525 0,0" /></g><g
           transform="translate(806.5184,839.9863)"
           id="g24"><path
             id="path26"
             style="fill:#252424;fill-opacity:1;fill-rule:nonzero;stroke:none"
             d="M 0,0 C -4.983,-1.374 -4.983,-1.374 -9.967,-2.748 -11.143,-15.158 7.346,-10.22 0,0" /></g><g
           transform="translate(887.5815,862.3348)"
           id="g28"><path
             id="path30"
             style="fill:#252424;fill-opacity:1;fill-rule:nonzero;stroke:none"
             d="M 0,0 -7.309,-2.015 C -9.792,-14.28 8.958,-9.817 0,0" /></g><g
           transform="translate(896.2194,864.7162)"
           id="g32"><path
             id="path34"
             style="fill:#2c2621;fill-opacity:1;fill-rule:nonzero;stroke:none"
             d="M 0,0 C -2.658,-0.733 -2.658,-0.733 -5.316,-1.465 -7.775,-13.827 8.443,-9.691 0,0" /></g><g
           transform="translate(793.2293,836.3226)"
           id="g36"><path
             id="path38"
             style="fill:#252424;fill-opacity:1;fill-rule:nonzero;stroke:none"
             d="M 0,0 C -2.99,-0.824 -2.99,-0.824 -5.98,-1.649 -6.262,-13.816 6.141,-10.298 0,0" /></g><g
           transform="translate(849.4091,812.7804)"
           id="g40"><path
             id="path42"
             style="fill:#e5b203;fill-opacity:1;fill-rule:nonzero;stroke:none"
             d="m 0,0 c 6.227,-23.03 11.404,-46.423 18.384,-69.276 2.524,0.771 5.372,1.463 7.973,2.199 C 21.56,-52.883 10.558,-5.475 7.666,0.72 7.354,1.388 6.229,0.363 5.98,1.649 5.147,0.834 1.04,0.871 0,0" /></g><g
           transform="translate(875.7663,745.7031)"
           id="g44"><path
             id="path46"
             style="fill:#3d3224;fill-opacity:1;fill-rule:nonzero;stroke:none"
             d="m 0,0 c -2.602,-0.736 -5.449,-1.427 -7.973,-2.198 -39.301,-12.004 -40.136,-15.207 1.19,-4.319 2.664,0.702 5.327,1.435 7.973,2.199 C 9.468,-1.93 17.823,0.189 26.107,2.551 28.101,9.919 11.52,3.259 0,0" /></g><g
           transform="translate(868.9834,739.1866)"
           id="g48"><path
             id="path50"
             style="fill:#e5b203;fill-opacity:1;fill-rule:nonzero;stroke:none"
             d="m 0,0 c 1.786,-6.477 1.786,-6.477 3.572,-12.955 2.573,0.847 5.322,1.643 7.973,2.198 C 9.759,-4.279 9.759,-4.279 7.973,2.198 5.327,1.435 2.664,0.702 0,0" /></g><g
           transform="translate(1157.6068,581.787)"
           id="g52"><path
             id="path54"
             style="fill:#252424;fill-opacity:1;fill-rule:nonzero;stroke:none"
             d="m 0,0 c -0.265,-9.634 11.118,0.298 12.674,0.706 -6.71,15.04 0.353,23.688 4.906,36.666 -2.061,3.266 -2.53,2.405 -5.083,4.175 C 11.61,37.219 2.66,14.932 2.766,13.308 3.439,2.934 11.574,-0.141 0,0" /></g><g
           transform="translate(1175.1869,619.1591)"
           id="g56"><path
             id="path58"
             style="fill:#4a4445;fill-opacity:1;fill-rule:nonzero;stroke:none"
             d="M 0,0 C 0.384,-0.609 0.189,-2.093 1.047,-2.499 0.523,-1.25 0.523,-1.25 0,0" /></g><g
           transform="translate(733.1834,331.8871)"
           id="g60"><path
             id="path62"
             style="fill:#1c1e26;fill-opacity:1;fill-rule:nonzero;stroke:none"
             d="M 0,0 C 1.027,0.154 0.108,2.14 -0.526,4.501 -1.532,8.25 -2.592,11.986 -3.621,15.729 -5.938,24.152 -9.41,33.17 -11.429,41.455 -21.997,23.632 -55.026,22.178 -56.556,19.721 c -0.698,-1.12 7.229,-26.139 7.882,-29.887 1.713,-1.776 18.831,8.996 25.413,10.258 C -22.135,0.308 -1.151,0.475 0,0" /></g><g
           transform="translate(798.2672,277.345)"
           id="g64"><path
             id="path66"
             style="fill:#1c1e26;fill-opacity:1;fill-rule:nonzero;stroke:none"
             d="M 0,0 C 16.072,-12.143 26.135,-31.089 37.45,-21.736 L 30.903,2.015 C 20.635,1.166 10.202,1.285 0,0" /></g><g
           transform="translate(694.1663,657.5361)"
           id="g68"><path
             id="path70"
             style="fill:#252424;fill-opacity:1;fill-rule:nonzero;stroke:none"
             d="m 0,0 c -0.836,-3.238 2.182,-7.822 2.193,-10.547 2.403,-0.48 5.034,-0.651 5.246,-0.877 0.73,-0.776 4.79,-18.775 6.072,-22.023 0.997,0.275 0.997,0.275 1.993,0.549 l 23.92,6.595 c -1.17,3.117 -6.211,21.415 -7.851,21.997 C 30.156,-3.803 14.693,-9.878 12.968,-9.435 8.75,-8.351 13.446,7.067 0,0" /></g><g
           transform="translate(678.4412,616.0289)"
           id="g72"><path
             id="path74"
             style="fill:#293847;fill-opacity:1;fill-rule:nonzero;stroke:none"
             d="m 0,0 c 13.621,3.755 13.621,3.755 27.243,7.511 0.996,0.274 0.996,0.274 1.993,0.549 -1.282,3.248 -5.342,21.247 -6.072,22.023 C 22.952,30.31 20.321,30.48 17.918,30.96 17.935,26.492 -2.939,25.015 -5.194,22.73 -6.636,21.268 -0.919,3.541 0,0" /></g><g
           transform="translate(709.6704,624.6386)"
           id="g76"><path
             id="path78"
             style="fill:#ad191a;fill-opacity:1;fill-rule:nonzero;stroke:none"
             d="m 0,0 35.12,-127.389 c -3.684,4.075 -6.62,9.22 -10.147,13.465 -7.848,9.448 -24.017,26.799 -34.059,24.994 0.362,-0.183 5.136,-4.539 6.556,-5.627 0.302,-0.23 0.57,-0.411 0.903,-0.68 15.712,-12.709 22.428,-23.067 22.755,-46.232 0.039,-2.768 -4.767,-27.964 -5.601,-28.958 1.022,-1.112 1.022,-1.112 2.044,-2.225 2.293,3.81 3.093,5.525 6.068,9.108 14.57,17.54 30.529,27.9 50.576,34.388 C 57.562,-83.855 40.887,-38.57 23.92,6.595 Z" /></g><g
           transform="translate(678.4412,616.0289)"
           id="g80"><path
             id="path82"
             style="fill:#db472a;fill-opacity:1;fill-rule:nonzero;stroke:none"
             d="m 0,0 c 6.901,-26.573 15.463,-52.785 21.241,-79.639 0.048,-0.024 -0.012,-0.217 0.903,-0.681 10.041,1.805 26.21,-15.546 34.059,-24.994 0.438,0.123 1.214,0.074 1.209,0.798 C 57.363,-96.747 31.38,-10.557 27.243,7.511 13.621,3.755 13.621,3.755 0,0" /></g><g
           transform="translate(707.6771,624.0891)"
           id="g84"><path
             id="path86"
             style="fill:#ca321a;fill-opacity:1;fill-rule:nonzero;stroke:none"
             d="m 0,0 c -0.997,-0.275 -0.997,-0.275 -1.993,-0.55 4.137,-18.067 30.12,-104.257 30.17,-112.026 0.004,-0.724 -0.772,-0.676 -1.21,-0.798 3.526,-4.245 6.462,-9.39 10.147,-13.465 L 1.993,0.55 C 0.997,0.275 0.997,0.275 0,0" /></g><g
           transform="translate(708.9072,518.4882)"
           id="g88"><path
             id="path90"
             style="fill:#a26119;fill-opacity:1;fill-rule:nonzero;stroke:none"
             d="m 0,0 c 0.209,-3.281 1.489,-13.161 -0.509,-15.009 -2.289,-2.118 -50.707,-10.945 -57.475,-15.846 0.187,-0.867 0.491,-1.727 0.714,-2.591 3.496,-13.536 12.275,-29.793 22.913,-36.43 16.362,-10.209 30.278,6.331 41.822,1.307 1.26,0.518 8.49,3.891 8.826,4.292 0.833,0.995 5.639,26.19 5.6,28.959 C 21.564,-12.154 14.848,-1.796 -0.864,10.913 -0.357,7.251 -0.232,3.648 0,0" /></g><g
           transform="translate(638.9016,500.1175)"
           id="g92"><path
             id="path94"
             style="fill:#c58413;fill-opacity:1;fill-rule:nonzero;stroke:none"
             d="m 0,0 c -3.295,-30.85 17.3,-62.501 40.593,-60.365 2.593,0.238 33.402,8.739 36.877,10.167 -11.543,5.023 -25.459,-11.516 -41.822,-1.308 -3.217,-2.13 -26.369,8.832 -25.291,13.937 -4.523,0.368 -6.303,12.154 -7.896,18.268 5.137,2.113 5.137,2.113 10.275,4.226 -0.224,0.864 -0.528,1.723 -0.715,2.591 -0.602,2.797 -2.539,13.081 -0.819,14.643 2.496,2.267 50.504,13.885 58.804,16.212 -0.232,3.648 -0.357,7.25 -0.864,10.913 -0.333,0.269 -0.601,0.45 -0.903,0.681 -0.995,-6.097 -8.23,3.195 -14.861,3.337 C 46.364,33.451 25.122,26.746 19.302,22.049 6.18,11.458 16.347,-1.501 0,0" /></g><g
           transform="translate(638.9016,500.1175)"
           id="g96"><path
             id="path98"
             style="fill:#e5b203;fill-opacity:1;fill-rule:nonzero;stroke:none"
             d="m 0,0 c 16.347,-1.501 6.18,11.458 19.302,22.049 5.82,4.697 27.062,11.402 34.076,11.253 6.631,-0.142 13.866,-9.434 14.861,-3.337 -1.42,1.087 -6.194,5.443 -6.556,5.627 -0.915,0.464 -0.854,0.657 -0.902,0.68 C 52.941,40.018 4.085,38.252 0,0" /></g><g
           transform="translate(650.9227,487.6336)"
           id="g100"><path
             id="path102"
             style="fill:#af6e17;fill-opacity:1;fill-rule:nonzero;stroke:none"
             d="m 0,0 c 6.768,4.901 55.186,13.728 57.475,15.845 1.998,1.849 0.718,11.729 0.509,15.01 C 49.685,28.528 1.676,16.91 -0.82,14.643 -2.539,13.081 -0.602,2.797 0,0" /></g><g
           transform="translate(674.5499,448.6118)"
           id="g104"><path
             id="path106"
             style="fill:#af6e17;fill-opacity:1;fill-rule:nonzero;stroke:none"
             d="m 0,0 c -10.638,6.637 -19.417,22.895 -22.913,36.431 -5.137,-2.113 -5.137,-2.113 -10.274,-4.227 1.593,-6.113 3.373,-17.899 7.896,-18.267 C -26.37,8.832 -3.218,-2.131 0,0" /></g><g
           transform="translate(789.2784,517.4136)"
           id="g108"><path
             id="path110"
             style="fill:#93c1bc;fill-opacity:1;fill-rule:nonzero;stroke:none"
             d="m 0,0 c 7.81,-12.018 17.136,-20.32 27.83,-12.772 1.595,1.126 5.664,17.798 5.323,19.589 C 32.302,11.299 23.311,21.706 19.729,23.096 8.403,27.488 -4.573,13.996 0,0" /></g><g
           transform="translate(801.1612,500.245)"
           id="g112"><path
             id="path114"
             style="fill:#4b7771;fill-opacity:1;fill-rule:nonzero;stroke:none"
             d="M 0,0 C 5.148,1.481 10.905,2.102 16.185,3.533 16.066,3.965 16.066,3.965 15.947,4.396 5.253,-3.151 -4.072,5.15 -11.883,17.169 -9.375,9.494 -5.147,5.243 0,0" /></g><g
           transform="translate(801.6095,531.0354)"
           id="g116"><path
             id="path118"
             style="fill:#4b7771;fill-opacity:1;fill-rule:nonzero;stroke:none"
             d="M 0,0 C -12.301,-13.379 4.982,-21.843 6.116,-18.294 5.006,-9.085 10.567,-4.213 0,0" /></g><g
           transform="translate(876.2374,694.7216)"
           id="g120"><path
             id="path122"
             style="fill:#252424;fill-opacity:1;fill-rule:nonzero;stroke:none"
             d="m 0,0 c -0.789,-0.691 -13.863,-3.741 -17.276,-4.763 11.33,-0.255 11.346,8.512 16.861,-9.291 4.173,1.115 3.39,0.007 3.56,0.052 3.263,0.873 6.627,2.792 10.061,3.703 0.542,0.144 0.74,-1.654 0.809,-1.635 2.22,0.588 4.423,1.246 6.644,1.831 0.568,0.15 -2.916,0.216 10.393,3.795 0.888,0.239 1.772,0.49 2.658,0.733 3.167,0.869 6.088,1.752 9.302,2.564 0.29,8.384 -6.47,12.35 1.506,15.284 C 40.454,12.324 24.587,5.915 17.608,4.854 6.747,27.704 17.645,17.752 13.931,29.861 15.449,21.3 3.257,22.035 -3.577,19.458 -3.015,15.233 2.094,1.834 0,0" /></g><g
           transform="translate(880.5284,728.43)"
           id="g124"><path
             id="path126"
             style="fill:#252424;fill-opacity:1;fill-rule:nonzero;stroke:none"
             d="m 0,0 c -2.651,-0.556 -5.4,-1.351 -7.973,-2.198 -1.453,-0.478 -8.948,-1.99 -9.184,-2.997 3.438,-17.977 6.009,-8.396 8.223,-11.672 0.885,-1.31 3.174,-12.888 4.643,-16.841 2.094,1.834 -3.015,15.233 -3.577,19.458 6.834,2.576 19.026,1.842 17.508,10.403 C 9.268,-2.634 8.453,1.689 7.641,2.107 5.07,1.52 2.58,0.541 0,0" /></g><g
           transform="translate(920.7557,706.9949)"
           id="g128"><path
             id="path130"
             style="fill:#293847;fill-opacity:1;fill-rule:nonzero;stroke:none"
             d="m 0,0 c -7.977,-2.935 -1.216,-6.9 -1.506,-15.284 0.445,0.113 0.882,0.262 1.329,0.366 4.693,1.1 9.272,2.698 13.953,3.847 C 11.828,-8.099 2.892,-0.036 0,0" /></g><g
           transform="translate(935.4966,567.9471)"
           id="g132"><path
             id="path134"
             style="fill:#1c1e26;fill-opacity:1;fill-rule:nonzero;stroke:none"
             d="m 0,0 c -2.983,-0.305 1.781,-6.931 1.34,-12.641 0.633,0.17 0.934,-0.667 1.567,-0.497 13.173,3.534 27.159,6.108 40.105,10.127 3.147,0.977 6.201,3.543 9.729,3.612 0.426,1.047 0.426,1.047 0.853,2.094 -3.188,-0.4 -11.02,-3.704 -12.293,-3.389 -0.47,0.116 -4.189,6.402 -6.511,9.356 -0.808,1.027 -0.867,0.632 -0.903,0.68 C 22.512,6.578 11.401,2.643 0,0" /></g><g
           transform="translate(970.2863,576.609)"
           id="g136"><path
             id="path138"
             style="fill:#293847;fill-opacity:1;fill-rule:nonzero;stroke:none"
             d="m 0,0 c 2.322,-2.954 6.041,-9.24 6.512,-9.356 1.272,-0.315 9.104,2.989 12.292,3.389 C 18.741,-5.43 15.125,2.509 14.618,4.03 7.309,2.015 7.309,2.015 0,0" /></g><g
           transform="translate(920.4025,565.6443)"
           id="g140"><path
             id="path142"
             style="fill:#293847;fill-opacity:1;fill-rule:nonzero;stroke:none"
             d="m 0,0 c -26.066,-6.558 -51.53,-15.447 -77.979,-20.569 0.515,-4.778 1.344,-9.629 1.816,-14.368 31.166,7.095 61.752,16.319 92.597,24.599 0.441,5.71 -4.323,12.336 -1.34,12.641 C 14.973,2.275 13.568,3.704 12.625,3.48 8.069,2.402 7.341,2.945 7.071,2.879 6.701,2.788 5.001,1.258 0,0" /></g><g
           transform="translate(827.3172,667.2952)"
           id="g144"><path
             id="path146"
             style="fill:#293847;fill-opacity:1;fill-rule:nonzero;stroke:none"
             d="M 0,0 C 16.194,4.361 32.302,9.045 48.505,13.372 42.99,31.175 42.974,22.409 31.644,22.664 6.012,14.988 -0.046,19.49 0,0" /></g><g
           transform="translate(938.4037,554.8091)"
           id="g148"><path
             id="path150"
             style="fill:#c58413;fill-opacity:1;fill-rule:nonzero;stroke:none"
             d="m 0,0 c 2.547,-8.591 2.547,-8.591 5.094,-17.182 21.595,5.954 21.595,5.954 43.19,11.907 C 44.195,2.426 44.195,2.426 40.105,10.127 27.159,6.108 13.173,3.534 0,0" /></g><g
           transform="translate(909.9474,689.1464)"
           id="g152"><path
             id="path154"
             style="fill:#375965;fill-opacity:1;fill-rule:nonzero;stroke:none"
             d="M 0,0 C 5.165,-11.504 5.3,-11.879 15.487,-13.387 L 10.631,2.931 C 10.184,2.826 9.748,2.677 9.302,2.565 6.088,1.753 3.167,0.869 0,0" /></g><g
           transform="translate(920.5786,692.0774)"
           id="g156"><path
             id="path158"
             style="fill:#6399a8;fill-opacity:1;fill-rule:nonzero;stroke:none"
             d="m 0,0 4.856,-16.318 c -10.188,1.508 -10.322,1.883 -15.487,13.387 -0.886,-0.243 -1.771,-0.494 -2.658,-0.733 15.679,-25.589 49.583,-94.331 62.094,-111.124 0.036,-0.049 0.095,0.347 0.903,-0.68 7.309,2.015 7.309,2.015 14.618,4.03 -2.751,8.244 -5.87,14.736 -9.087,22.586 l -5.498,-9.88 c -6.366,9.296 -2.907,13.794 5.26,10.743 C 49.222,-73.967 18.73,-3.441 13.953,3.847 9.272,2.698 4.693,1.1 0,0" /></g><g
           transform="translate(975.8176,603.225)"
           id="g160"><path
             id="path162"
             style="fill:#333938;fill-opacity:1;fill-rule:nonzero;stroke:none"
             d="M 0,0 C -0.111,0.272 -0.126,0.592 -0.238,0.864 -8.405,3.915 -11.864,-0.583 -5.498,-9.88 Z" /></g><g
           transform="translate(942.2567,656.2355)"
           id="g164"><path
             id="path166"
             style="fill:#252424;fill-opacity:1;fill-rule:nonzero;stroke:none"
             d="M 0,0 C -13.215,-5.79 7.016,-21.949 3.159,-2.382 1.579,-1.191 1.579,-1.191 0,0" /></g><g
           transform="translate(959.6545,629.4358)"
           id="g168"><path
             id="path170"
             style="fill:#333938;fill-opacity:1;fill-rule:nonzero;stroke:none"
             d="M 0,0 C -10.947,-3.672 -0.557,-19.749 3.685,-6.883 1.843,-3.442 1.843,-3.442 0,0" /></g><g
           transform="translate(890.2519,682.7872)"
           id="g172"><path
             id="path174"
             style="fill:#20272f;fill-opacity:1;fill-rule:nonzero;stroke:none"
             d="M 0,0 C -0.942,-1.662 3.026,-9.893 3.854,-10.089 11.448,-6.181 17.757,-6.392 6.645,1.832 4.423,1.246 2.221,0.588 0,0" /></g><g
           transform="translate(920.4025,565.6443)"
           id="g176"><path
             id="path178"
             style="fill:#333938;fill-opacity:1;fill-rule:nonzero;stroke:none"
             d="M 0,0 C 5.001,1.258 6.701,2.788 7.071,2.879 4.588,16.676 -4.766,15.125 0,0" /></g><g
           transform="translate(875.8222,680.6677)"
           id="g180"><path
             id="path182"
             style="fill:#6399a8;fill-opacity:1;fill-rule:nonzero;stroke:none"
             d="m 0,0 c -16.203,-4.328 -32.311,-9.012 -48.505,-13.372 0.026,-11.094 12.267,-95.86 15.106,-122.22 26.449,5.121 51.914,14.011 77.979,20.569 -4.766,15.125 4.588,16.676 7.071,2.878 0.27,0.066 0.998,-0.477 5.554,0.602 -1.694,6.906 -7.348,19.072 -10.823,26.289 C 32.585,-56.597 17.562,-28.494 3.56,0.052 3.391,0.007 4.173,1.115 0,0" /></g><g
           transform="translate(883.8348,637.3411)"
           id="g184"><path
             id="path186"
             style="fill:#2c2621;fill-opacity:1;fill-rule:nonzero;stroke:none"
             d="M 0,0 C -9.988,-5.535 6.521,-14.841 2.256,-1.701 Z" /></g><g
           transform="translate(896.4431,604.5745)"
           id="g188"><path
             id="path190"
             style="fill:#2c2621;fill-opacity:1;fill-rule:nonzero;stroke:none"
             d="M 0,0 C -8.773,-4.435 2.46,-10.921 2.782,-6.203 Z" /></g><g
           transform="translate(896.8964,684.6191)"
           id="g192"><path
             id="path194"
             style="fill:#0f485a;fill-opacity:1;fill-rule:nonzero;stroke:none"
             d="m 0,0 c 11.112,-8.224 4.804,-8.013 -2.791,-11.921 -0.827,0.197 -4.796,8.427 -3.854,10.089 -0.068,-0.018 -0.266,1.78 -0.808,1.636 -3.434,-0.911 -6.798,-2.83 -10.061,-3.703 14.001,-28.546 29.024,-56.65 42.822,-85.306 3.475,-7.217 9.128,-19.383 10.823,-26.289 0.943,0.223 2.348,-1.206 2.469,-1.178 11.402,2.643 22.513,6.578 33.887,9.342 C 59.976,-90.536 26.072,-21.794 10.393,3.795 -2.916,0.215 0.568,0.15 0,0" /></g><g
           transform="translate(942.6393,597.7952)"
           id="g196"><path
             id="path198"
             style="fill:#252424;fill-opacity:1;fill-rule:nonzero;stroke:none"
             d="M 0,0 C -16.177,-6.59 5.462,-24.718 5.202,-4.606 Z" /></g><g
           transform="translate(907.8436,651.3945)"
           id="g200"><path
             id="path202"
             style="fill:#252424;fill-opacity:1;fill-rule:nonzero;stroke:none"
             d="M 0,0 C -13.582,-8.546 8.601,-22.299 4.726,-2.879 2.363,-1.439 2.363,-1.439 0,0" /></g><g
           transform="translate(931.4097,628.154)"
           id="g204"><path
             id="path206"
             style="fill:#252424;fill-opacity:1;fill-rule:nonzero;stroke:none"
             d="M 0,0 C -13.37,-4.605 1.505,-20.398 3.635,-4.109 1.818,-2.054 1.818,-2.054 0,0" /></g><g
           transform="translate(1116.0035,271.0834)"
           id="g208"><path
             id="path210"
             style="fill:#1c1e26;fill-opacity:1;fill-rule:nonzero;stroke:none"
             d="m 0,0 c 3.821,-3.945 13.985,-0.731 18.56,1.4 4.898,2.28 7.251,6.974 11.052,10.481 1.358,4.294 2.88,7.522 3.788,12.196 L 26.495,49.123 C 12.864,44.598 3.077,42.25 -10.953,39.728 -5.476,19.864 -5.476,19.864 0,0" /></g><g
           transform="translate(1123.4229,310.3008)"
           id="g212"><path
             id="path214"
             style="fill:#a26119;fill-opacity:1;fill-rule:nonzero;stroke:none"
             d="M 0,0 C -11.384,-4.422 3.971,-16.933 4.062,-3.062 2.031,-1.531 2.031,-1.531 0,0" /></g><g
           transform="translate(1122.8083,307.3435)"
           id="g216"><path
             id="path218"
             style="fill:#dd810a;fill-opacity:1;fill-rule:nonzero;stroke:none"
             d="M 0,0 C -0.533,-1.309 -0.533,-1.309 -1.066,-2.617 1.926,-7.903 2.166,0.301 0,0" /></g><g
           transform="translate(996.0959,428.5319)"
           id="g220"><path
             id="path222"
             style="fill:#113747;fill-opacity:1;fill-rule:nonzero;stroke:none"
             d="M 0,0 C 14.796,2.904 29.478,6.27 43.998,10.271 44.581,8.806 44.581,8.806 45.163,7.34 37.766,-51.663 14.719,-68.079 -13.72,-109.722 c -66.797,-13.509 -132.593,-31.988 -202.348,-29.766 6.036,-4.064 12.336,-7.239 18.239,-11.699 10.203,1.285 20.636,1.166 30.903,2.015 71.043,5.871 147.552,11.438 217.403,21.835 19.12,2.846 37.998,7.637 57.005,11.069 0.518,0.094 1.388,-1.468 1.473,-1.452 14.029,2.521 23.816,4.87 37.447,9.394 69.949,23.219 160.32,63.382 123.604,181.835 L 241.008,64.585 C 268.31,15.782 231.349,-51.888 175.25,-35.322 131.886,-22.516 132.06,31.869 127.054,33.169 122.778,34.28 57.469,11.556 46.085,11.776 30.759,7.772 15.087,4.949 0,0" /></g><g
           transform="translate(997.7231,523.7688)"
           id="g224"><path
             id="path226"
             style="fill:#ca321a;fill-opacity:1;fill-rule:nonzero;stroke:none"
             d="M 0,0 C 1.589,-4.206 23.805,7.216 24.754,3.572 8.584,-23.142 4.968,-55.142 5.513,-90.016 c 2.065,-3.716 33.857,8.13 39.133,8.466 15.419,46.578 61.706,68.111 100.006,76.823 24.158,5.496 74.744,4.738 93.826,-25.244 0.033,-0.052 0.267,0.456 0.903,-0.68 l 28.998,8.923 c -0.788,2.542 -1.26,5.282 -2.143,7.773 -6.031,5.412 -10.134,13.539 -16.039,19.276 C 225.762,29.063 186.203,34.027 158.671,32.593 126.034,30.893 62.125,15.254 28.145,6.83 20.584,4.956 3.442,1.524 0,0" /></g><g
           transform="translate(844.2397,530.7074)"
           id="g228"><path
             id="path230"
             style="fill:#e5b203;fill-opacity:1;fill-rule:nonzero;stroke:none"
             d="m 0,0 c 0.268,-2.689 2.448,-18.268 2.01,-18.961 -0.886,-1.404 -25.163,-6.955 -28.904,-7.969 -5.279,-1.43 -11.037,-2.051 -16.185,-3.532 -5.728,-1.649 -11.606,-2.928 -17.275,-4.763 -20.047,-6.488 -36.006,-16.848 -50.576,-34.388 l 259.192,62.164 c -0.449,-2.911 -0.449,-2.911 -0.897,-5.823 2.64,3.861 1.832,4.436 6.118,6.333 3.443,1.525 20.585,4.956 28.145,6.83 22.417,31.88 63.36,37.127 71.03,41.886 0.117,0.072 0.159,1.936 0.947,3.049 -35.103,-5.879 -69.708,-14.161 -103.848,-23.984 -2.88,8.499 -2.88,8.499 -5.759,16.999 -3.528,-0.07 -6.582,-2.635 -9.729,-3.612 4.089,-7.701 4.089,-7.701 8.179,-15.402 -21.595,-5.953 -21.595,-5.953 -43.19,-11.907 -2.547,8.591 -2.547,8.591 -5.094,17.182 -0.633,-0.17 -0.934,0.667 -1.567,0.497 C 61.751,16.319 31.166,7.095 0,0" /></g><g
           transform="translate(1097.8448,575.5333)"
           id="g232"><path
             id="path234"
             style="fill:#eb6741;fill-opacity:1;fill-rule:nonzero;stroke:none"
             d="m 0,0 c -0.788,-1.113 -0.831,-2.977 -0.947,-3.049 -7.67,-4.759 -48.613,-10.006 -71.03,-41.885 33.981,8.423 97.889,24.062 130.527,25.762 27.531,1.435 67.09,-3.53 91.526,-27.272 5.904,-5.737 10.007,-13.864 16.038,-19.275 -7.061,19.916 -18.153,37.887 -32.633,50.943 C 117.995,-0.814 89.65,11.473 72.436,6.96 70.88,6.552 59.497,-3.38 59.762,6.254 39.411,6.502 19.753,3.308 0,0" /></g><g
           transform="translate(991.6046,517.4355)"
           id="g236"><path
             id="path238"
             style="fill:#ca321a;fill-opacity:1;fill-rule:nonzero;stroke:none"
             d="m 0,0 c -5.668,-8.288 -14.126,-30.813 -18.051,-42.148 -128.078,-28.806 -128.078,-28.806 -256.157,-57.611 -0.524,-8.828 0.393,-27.909 2.215,-36.561 14.288,0.687 14.288,0.687 28.577,1.373 82.383,16.446 165.468,29.861 247.907,46.043 15.087,4.95 30.759,7.772 46.086,11.776 0.094,0.956 0.094,0.956 0.188,1.911 -5.277,-0.335 -37.068,-12.182 -39.134,-8.466 -0.544,34.874 3.072,66.874 19.241,93.588 C 29.923,13.549 7.708,2.128 6.118,6.333 1.832,4.436 2.64,3.861 0,0" /></g><g
           transform="translate(727.2411,451.9868)"
           id="g240"><path
             id="path242"
             style="fill:#fbcb87;fill-opacity:1;fill-rule:nonzero;stroke:none"
             d="M 0,0 C -0.555,-0.923 -1.849,0.497 -1.899,0.406 -4.8,-4.926 -9.406,-26.914 -9.845,-34.31 118.234,-5.505 118.234,-5.505 246.313,23.3 c 3.925,11.336 12.382,33.86 18.051,42.149 0.448,2.911 0.448,2.911 0.896,5.823 L 6.069,9.107 C 3.093,5.525 2.293,3.809 0,0" /></g><g
           transform="translate(1042.3695,442.2184)"
           id="g244"><path
             id="path246"
             style="fill:#ad191a;fill-opacity:1;fill-rule:nonzero;stroke:none"
             d="m 0,0 c -0.094,-0.955 -0.094,-0.955 -0.188,-1.91 46.115,12.048 91.967,25.192 138.112,37.147 0.671,0.642 0.439,10.516 1.794,11.646 8.485,7.076 11.379,-6.944 13.488,-7.433 2.168,-0.503 35.405,9.944 40.626,12.129 -19.083,29.982 -69.669,30.74 -93.827,25.244 C 61.706,68.111 15.419,46.578 0,0" /></g><g
           transform="translate(735.5807,359.4977)"
           id="g248"><path
             id="path250"
             style="fill:#113747;fill-opacity:1;fill-rule:nonzero;stroke:none"
             d="M 0,0 C 2.184,-5.839 9.877,-23.441 2.68,-25.281 1.814,-29.594 9.456,-29.422 14.508,-33.172 22.286,-32.135 10.409,3.232 0,0" /></g><g
           transform="translate(729.562,347.6161)"
           id="g252"><path
             id="path254"
             style="fill:#d8edf1;fill-opacity:1;fill-rule:nonzero;stroke:none"
             d="M 0,0 C 1.029,-3.743 2.089,-7.479 3.095,-11.228 5.897,-12.314 5.897,-12.314 8.699,-13.4 15.896,-11.559 8.203,6.042 6.019,11.882 3.67,13.284 2.089,4.621 0,0" /></g><g
           transform="translate(719.6116,381.1154)"
           id="g256"><path
             id="path258"
             style="fill:#0f485a;fill-opacity:1;fill-rule:nonzero;stroke:none"
             d="m 0,0 c 0.52,-2.472 1.532,-5.266 2.143,-7.773 2.019,-8.285 5.491,-17.303 7.807,-25.726 2.09,4.621 3.67,13.284 6.019,11.881 10.41,3.233 22.287,-32.134 14.508,-33.172 -5.051,3.751 -12.694,3.578 -11.828,7.891 -2.801,1.086 -2.801,1.086 -5.603,2.172 0.634,-2.362 1.553,-4.347 0.526,-4.501 2.144,-0.884 12.737,-21.906 34.829,-36.863 4.392,-2.974 11.44,-5.593 12.015,-5.981 69.756,-2.222 135.552,16.257 202.348,29.766 28.439,41.643 51.486,58.06 58.884,117.063 -0.583,1.465 -0.583,1.465 -1.166,2.931 C 305.962,53.687 291.281,50.321 276.484,47.416 194.046,31.234 110.961,17.819 28.577,1.373 14.289,0.687 14.289,0.687 0,0" /></g><g
           transform="translate(845.2877,360.9348)"
           id="g260"><path
             id="path262"
             style="fill:#e5b203;fill-opacity:1;fill-rule:nonzero;stroke:none"
             d="m 0,0 c -24.156,-4.243 -21.894,-5.661 -26.636,-22.677 -10.107,-36.265 -6,-26.901 14.571,-24.326 6.935,22.821 6.935,22.821 13.87,45.642 C 1.383,-0.646 1.737,0.833 0,0" /></g><g
           transform="translate(833.2227,313.9316)"
           id="g264"><path
             id="path266"
             style="fill:#95691c;fill-opacity:1;fill-rule:nonzero;stroke:none"
             d="m 0,0 c 3.949,0.494 7.724,1.732 11.534,2.25 0.826,5.171 7.52,31.826 7.068,34.01 -0.108,0.52 -4.146,8.391 -4.732,9.382 C 6.935,22.821 6.935,22.821 0,0" /></g><g
           transform="translate(845.2877,360.9348)"
           id="g268"><path
             id="path270"
             style="fill:#113747;fill-opacity:1;fill-rule:nonzero;stroke:none"
             d="m 0,0 c 1.737,0.833 1.383,-0.646 1.805,-1.361 0.586,-0.991 4.624,-8.862 4.732,-9.382 0.452,-2.184 -6.242,-28.839 -7.068,-34.01 2.544,0.346 20.212,-1.299 20.102,2.29 -0.051,1.694 -11.224,24.242 -12.746,28.082 -0.12,0.302 1.675,1.26 -0.338,6.412 C 3.406,-0.085 2.82,0.495 0,0" /></g><g
           transform="translate(912.5357,384.1211)"
           id="g272"><path
             id="path274"
             style="fill:#113747;fill-opacity:1;fill-rule:nonzero;stroke:none"
             d="m 0,0 c 9.012,2.266 14.108,-21.583 4.197,-23.005 2.292,-2.747 22.2,-27.016 23.636,-20.898 C 22.411,-23.636 20.125,-8.924 3.843,2.918 0.246,2.898 0.193,0.227 0,0" /></g><g
           transform="translate(912.5357,384.1211)"
           id="g276"><path
             id="path278"
             style="fill:#d8edf1;fill-opacity:1;fill-rule:nonzero;stroke:none"
             d="M 0,0 C -11.197,-13.18 3.303,-21.933 4.197,-23.005 14.108,-21.583 9.012,2.266 0,0" /></g><g
           transform="translate(786.5167,361.4594)"
           id="g280"><path
             id="path282"
             style="fill:#113747;fill-opacity:1;fill-rule:nonzero;stroke:none"
             d="m 0,0 c 9.769,2.233 12.361,-25.056 1.44,-18.189 0.109,-0.222 -1.382,-0.747 1.974,-4.567 12.289,-13.989 23.762,2.314 10.996,19.759 C 10.304,2.615 -3.024,4.598 0,0" /></g><g
           transform="translate(786.5167,361.4594)"
           id="g284"><path
             id="path286"
             style="fill:#d8edf1;fill-opacity:1;fill-rule:nonzero;stroke:none"
             d="M 0,0 C -5.277,-5.185 -1.693,-11.829 1.44,-18.189 12.361,-25.056 9.769,2.233 0,0" /></g><g
           transform="translate(1042.1813,440.3079)"
           id="g288"><path
             id="path290"
             style="fill:#1c1e26;fill-opacity:1;fill-rule:nonzero;stroke:none"
             d="m 0,0 c 11.384,-0.22 76.693,22.504 80.969,21.393 5.006,-1.3 4.832,-55.685 48.196,-68.491 56.098,-16.566 93.06,51.104 65.758,99.907 -0.636,1.136 -0.87,0.629 -0.903,0.681 -5.221,-2.185 -38.458,-12.632 -40.626,-12.13 -2.109,0.49 -5.003,14.509 -13.488,7.433 C 138.552,47.664 138.783,37.79 138.112,37.147 91.967,25.193 46.115,12.049 0,0" /></g><g
           transform="translate(1203.6986,475.5441)"
           id="g292"><path
             id="path294"
             style="fill:#2c2621;fill-opacity:1;fill-rule:nonzero;stroke:none"
             d="m 0,0 c -1.646,0.015 -29.724,-8.359 -30.991,-9.473 -4.342,-3.817 -0.727,-13.672 -1.08,-14.237 -1.462,-2.345 -19.354,-0.012 -10.243,-12.117 21.025,8.655 10.462,-3.549 20.357,-18.085 8.282,-12.166 39.829,0.911 41.761,17.089 -5.195,13.103 -20.621,-13.47 -22.251,11.987 31.999,6.904 13.741,10.967 12.688,12.326 C 9.698,-11.809 8.263,-0.073 0,0" /></g><g
           transform="translate(1205.7418,473.3195)"
           id="g296"><path
             id="path298"
             style="fill:#e5b203;fill-opacity:1;fill-rule:nonzero;stroke:none"
             d="m 0,0 c -1.692,0.178 -30.492,-7.85 -31.894,-8.793 -7.852,-5.278 10.19,-16.075 -13.466,-18.581 0.37,-1.989 0.37,-1.989 0.739,-3.978 21.444,6.304 12.164,0.767 19.43,-16.017 7.631,-17.627 39.985,-2.9 41.147,14.131 L -1.771,-37.66 c -2.369,7.943 -2.369,7.943 -4.738,15.886 9.774,4.951 22.425,3.006 17.415,9.447 -19.495,-5.142 -19.495,-5.142 -38.99,-10.284 C -39.006,-10.193 -14.972,-11.647 0.1,-5.548 10.507,-18.815 5.682,-0.598 0,0" /></g><g
           transform="translate(1194.7952,450.7863)"
           id="g300"><path
             id="path302"
             style="fill:#2c2621;fill-opacity:1;fill-rule:nonzero;stroke:none"
             d="m 0,0 c -7.973,-2.198 -7.973,-2.198 -15.947,-4.396 1.876,-24.544 7.003,-14.27 21.135,-11.83 C 2.594,-8.113 2.594,-8.113 0,0" /></g><g
           transform="translate(1218.2118,435.8683)"
           id="g304"><path
             id="path306"
             style="fill:#372214;fill-opacity:1;fill-rule:nonzero;stroke:none"
             d="m 0,0 c -16.944,-4.671 -16.944,-4.671 -33.887,-9.342 -6.371,-8.61 33.5,0.899 34.363,7.615 C 0.238,-0.864 0.238,-0.864 0,0" /></g></g></g></g></svg>