<?xml version="1.0" encoding="UTF-8"?>
<svg id="Calque_1" data-name="Calque 1" xmlns="http://www.w3.org/2000/svg" viewBox="0 0 487.18 415.36">
  <defs>
    <style>
      .cls-1 {
        fill: #6ea3a9;
      }

      .cls-1, .cls-2, .cls-3, .cls-4, .cls-5, .cls-6, .cls-7, .cls-8, .cls-9, .cls-10, .cls-11, .cls-12, .cls-13, .cls-14, .cls-15, .cls-16, .cls-17, .cls-18, .cls-19, .cls-20, .cls-21, .cls-22, .cls-23, .cls-24, .cls-25, .cls-26, .cls-27, .cls-28, .cls-29, .cls-30, .cls-31, .cls-32, .cls-33, .cls-34, .cls-35, .cls-36, .cls-37, .cls-38, .cls-39, .cls-40, .cls-41, .cls-42, .cls-43, .cls-44, .cls-45, .cls-46, .cls-47, .cls-48, .cls-49, .cls-50 {
        stroke-width: 0px;
      }

      .cls-2 {
        fill: #fefdfd;
      }

      .cls-3 {
        fill: #83361b;
      }

      .cls-4 {
        fill: #86a299;
      }

      .cls-5 {
        fill: #3ca1c3;
      }

      .cls-6 {
        fill: #594842;
      }

      .cls-7 {
        fill: #4e626e;
      }

      .cls-8 {
        fill: #de7d30;
      }

      .cls-9 {
        fill: #75442f;
      }

      .cls-10 {
        fill: #4c4b4d;
      }

      .cls-11 {
        fill: #e1773e;
      }

      .cls-12 {
        fill: #50715f;
      }

      .cls-13 {
        fill: #ed7378;
      }

      .cls-14 {
        fill: #8fc7c9;
      }

      .cls-15 {
        fill: #f0c783;
      }

      .cls-16 {
        fill: #cad68b;
      }

      .cls-17 {
        fill: #799586;
      }

      .cls-18 {
        fill: #f6daaf;
      }

      .cls-19 {
        fill: #16b4d1;
      }

      .cls-20 {
        fill: #cd5c48;
      }

      .cls-21 {
        fill: #0d97ad;
      }

      .cls-22 {
        fill: #f1f1ab;
      }

      .cls-23 {
        fill: #e0e7ea;
      }

      .cls-24 {
        fill: #e8de52;
      }

      .cls-25 {
        fill: #f4b50f;
      }

      .cls-26 {
        fill: #389181;
      }

      .cls-27 {
        fill: #7dbd95;
      }

      .cls-28 {
        fill: #eed142;
      }

      .cls-29 {
        fill: #f9c954;
      }

      .cls-30 {
        fill: #805838;
      }

      .cls-31 {
        fill: #f6a52a;
      }

      .cls-32 {
        fill: #7eb8cc;
      }

      .cls-33 {
        fill: #aa8357;
      }

      .cls-34 {
        fill: #72d1dc;
      }

      .cls-35 {
        fill: #b7d6b8;
      }

      .cls-36 {
        fill: #84c1b0;
      }

      .cls-37 {
        fill: #dbc77d;
      }

      .cls-38 {
        fill: #457478;
      }

      .cls-39 {
        fill: #f3fd7e;
      }

      .cls-40 {
        fill: #b9eaad;
      }

      .cls-41 {
        fill: #b9a069;
      }

      .cls-42 {
        fill: #efe7cb;
      }

      .cls-43 {
        fill: #a4552c;
      }

      .cls-44 {
        fill: #40817f;
      }

      .cls-45 {
        fill: #9ebd9f;
      }

      .cls-46 {
        fill: #b96d15;
      }

      .cls-47 {
        fill: #8e8b5f;
      }

      .cls-48 {
        fill: #c7693c;
      }

      .cls-49 {
        fill: #8d8f7f;
      }

      .cls-50 {
        fill: #f49436;
      }
    </style>
  </defs>
  <g>
    <path class="cls-26" d="M484.52,299.91c2.95-8.41,1.82-18.09-.79-26.39,4.93,4.9,4.02,20.89.79,26.39Z"/>
    <g>
      <path class="cls-34" d="M435.61,233.93c-1.18,3.9,8.55-.59,14.2-.6.55,2.3-11.97,6.67-12.62,8.1-1.59,3.47,6.05,9.71,5.52,10.2-5.32.38-6.3.02-11.04,1.5,1.16-.6-.53-8.83-.79-9.3-1.62-2.94-16.93-4.17-13.41-7.5,3.14.3,9.18,1.55,9.86,1.2,3.23-1.68-2.87-15.52,8.28-3.6Z"/>
      <path class="cls-34" d="M417.47,236.33c-3.52,3.32,11.79,4.55,13.41,7.5.26.47,1.95,8.7.79,9.3-2.23.69-5.88,4.69-9.47,3,2.54-2.44,4.32-5.11,6.31-7.8,1.86-.89-5.81-4.11-9.47-5.4-.05-.02.22-.14-.79-.6l-9.47-6.3c1.18-1.58,3.12-.24,8.68.3Z"/>
      <path class="cls-38" d="M443.5,240.53v5.4c-2.65-2.39-2.08-3.07,0-5.4Z"/>
      <path class="cls-38" d="M428.51,248.32c-4.01-.6-8.69-5.01-9.47-5.4,3.66,1.29,11.32,4.51,9.47,5.4Z"/>
    </g>
    <g>
      <path class="cls-25" d="M483.73,273.52c2.61,8.3,3.74,17.98.79,26.39-.12.21-2.67,2.03-2.37,4.2q-9.07-5.1-18.14-10.2c-1.03-5.29-.88-10.29-.79-15.6,3.27,1.34,7.58,4.57,8.68,4.8l1.58-.3c1.04-5.83,3.11-16.39,10.25-9.3Z"/>
      <path class="cls-26" d="M482.15,304.11c-.3-2.16,2.24-3.99,2.37-4.2-.43,1.22.32,3.45-2.37,4.2Z"/>
      <g>
        <path class="cls-25" d="M443.5,274.72c3.22.11,6.27.38,9.47.6,0,.2,0,.4,0,.6.02,17.63-1.92,25.02,14.99,28.79.57,2.06-11.67-.08-13.41,0-5.68.28-11.37,1.17-16.57,3-4.7-1.08-5.51-.51-7.89-5.1-4.39-8.49-.58-22.9,10.25-27.89,1.02.01,2.11-.04,3.16,0Z"/>
        <path class="cls-24" d="M463.22,278.32c-.09,5.3-.24,10.3.79,15.6.45,2.34,4.26,9.24,3.94,10.8-16.91-3.78-14.97-11.16-14.99-28.79,3.81-.25,7.07,1.1,10.25,2.4Z"/>
        <path class="cls-25" d="M417.47,275.92c-3.44,9.77-2.55,27.02,11.04,31.79-7.23.14-18.27,6.9-18.93.3l1.58-.3c15.26,1.63,1.68-.2-12.62-7.2-3.17-6.25-3.48-10.74-3.16-17.39,2.93-1.66,6.14-3.06,9.47-4.2,5.4-1.84,6.78-2.18,12.62-3Z"/>
        <path class="cls-39" d="M398.53,300.51c-2.5-1.22-6.69-2.44-8.68-4.2-4.66-4.13-4.27-6.09,0-10.2.21-.2,4.12-2.21,5.52-3-.32,6.66-.01,11.15,3.16,17.39Z"/>
        <path class="cls-24" d="M440.34,274.72c-10.84,4.99-14.65,19.4-10.25,27.89,2.38,4.59,3.19,4.02,7.89,5.1,11.8,2.71-7.74-.03-9.47,0-13.59-4.77-14.49-22.02-11.04-31.79,9.23-1.29,13.43-1.32,22.88-1.2Z"/>
      </g>
    </g>
  </g>
  <g>
    <path class="cls-31" d="M71.17,107.97c.87,3.75,1.8,9.06,3.16,12.6-12.87,7.58-22.71,17.48-32.34,27.29l.79.9c1.28,1.42,20.01,6.53,24.45,8.4.85.35,6.35,5.38,9.07,6,1.9.43,7.63-.43,9.07,0,1.01.3,13.01,7.91,18.93,7.8,2.96,2.51,35.55,16.15,37.07,14.1l-7.1-9.3c4.73,4.96,8.76,10.11,15.78,13.2v44.39c-7.84-1.66-14.56-4.59-20.9-8.4-32.17-10.64-62.31-24.55-95.05-34.19-.36-.11-6.24-3.87-6.31-1.5,13.6,62.06,56.1,140.17,108.07,189.24,2.93,3.95,10.07,11.79,14.2,14.4,1.69,1.07,1.99,2.52,5.13,3,7.42,1.12,34.22-1.72,43.78-2.4,34.74-2.46,59.53-6.01,93.08-13.8,5.47-.91,9.94-2.48,12.62-3,54.76-10.53,106.36-30.7,149.09-58.78-.04,2.2.02,4.4,0,6.6-.07,7.44,1.87,10.45-5.52,15.6-1.5,1.05-27.23,13.64-31.55,15.6-4.62,2.09-9.47,4.04-14.2,6-24.65,10.22-59.45,22.04-85.98,28.79-11.46,2.91-39.63,8.96-52.06,11.4-18.62,3.65-37.8,7.33-56.8,9.6-3.95.47-7.88.81-11.83,1.2-10.53,1.05-42.11,4.21-49.7,1.8-2.47-4.13-13.45-6.59-3.16-9.9-52.33-62.12-95.32-125.19-119.11-197.34-4.81-14.57-.91-25.92-16.96-25.49l-.39,1.2c-.01-.07-1.51-.42-1.58-.9-.65-4.49-.86-8.93-1.58-13.5-.42-2.64.52-5.87-1.58-8.4,0-10.22-2.42-19.48-1.58-24.59.93,2.27,3.31,1.24,5.92,2.4,4.56,2.03,10.79,7.7,16.57,5.4,3-1.2,27.27-29.06,48.51-35.39Z"/>
    <path class="cls-31" d="M146.11,414.47c-4.39-1.39-11.37-8.39-14.99-11.4-25.78-21.4-45.16-45.65-62.32-71.38-.8-1.2-1.58-2.39-2.37-3.6-2.86-4.39-6-8.74-8.68-13.2-.59-.99-1.02-2.05-1.58-3-17.38-29.44-31.47-60.74-41.81-92.07-2.68-8.12-3.04-16.83-6.31-24.89.25-3.65-1.06-7.19-1.58-10.8-.06-.39.06-.81,0-1.2l.39-1.2c16.05-.43,12.15,10.92,16.96,25.49,23.79,72.16,66.79,135.22,119.11,197.34-10.29,3.31.68,5.77,3.16,9.9Z"/>
    <path class="cls-31" d="M68.02,87.57c.22,6.95,1.57,13.56,3.16,20.39-21.24,6.33-45.51,34.19-48.51,35.39-5.78,2.3-12-3.37-16.57-5.4-2.6-1.16-4.99-.13-5.92-2.4.55-3.36,1.95-5.93,4.73-8.7,8.28-8.24,47.57-34.23,63.11-39.29Z"/>
    <path class="cls-48" d="M456.91,202.14c.18,1.1-.49,1.95-.79,3-.84,2.93-.68,4.9-.79,7.8-7.53,6.39-14.98,13.18-19.72,20.99-11.15-11.92-5.05,1.92-8.28,3.6-.68.35-6.72-.9-9.86-1.2-5.56-.54-7.49-1.88-8.68-.3l9.47,6.3c-6.06-2.75-10.38-.7-11.44,4.2-21.47-11.28-7.38-1.52-2.76,22.79.09.48-.27,5.85.79,9.6-3.33,1.14-6.54,2.54-9.47,4.2-1.4.79-5.31,2.8-5.52,3q-2.76-29.39-5.52-58.78c6.72-1.42,25.6-6.35,31.95-8.4,4.4-1.42,38.97-15.57,40.62-16.79Z"/>
    <path class="cls-8" d="M419.83,259.12c3.42.12,6.93.2,10.25-.6,12.47,22.74,23.22,5.85,20.9,16.2h-7.49c-1.05-.04-2.13.01-3.16,0-9.45-.12-13.65-.09-22.88,1.2-5.84.82-7.22,1.16-12.62,3-1.06-3.75-.7-9.12-.79-9.6,19.02,6.12,32.52-11.79,13.8-9.6l.39-1.2c-.06.79.7.57,1.58.6Z"/>
    <path class="cls-8" d="M451.39,234.53c-.05-.53-.93-1.2-1.58-1.2-5.65.01-15.38,4.5-14.2.6,4.74-7.81,12.19-14.61,19.72-20.99-.1,2.78-.14,20.35-.79,21.29-.66.96-3.04.22-3.16.3Z"/>
    <path class="cls-8" d="M443.5,245.93v-5.4c.77-.86,5.86-4.48,7.89-6,.11-.08,2.5.66,3.16-.3.65-.94.69-18.51.79-21.29.11-2.9-.05-4.87.79-7.8l-1.58,44.09c-.8,1.51-8.96-1.42-11.04-3.3Z"/>
    <g>
      <g>
        <path class="cls-31" d="M418.26,242.33c1.01.46.74.58.79.6.78.39,5.46,4.8,9.47,5.4-1.99,2.69-3.77,5.35-6.31,7.8-.05.05-1.51.54-1.58.6-.11.1-1.96.65-2.37,1.8l-.39,1.2c18.71-2.19,5.22,15.72-13.8,9.6-4.62-24.31-18.71-34.07,2.76-22.79,1.06-4.9,5.38-6.95,11.44-4.2Z"/>
        <path class="cls-5" d="M419.83,259.12c-.88-.03-1.64.19-1.58-.6.41-1.15,2.26-1.7,2.37-1.8-.37,1.01.81,1.42.79,1.5-.15.49-1.69.02-1.58.9Z"/>
      </g>
      <g>
        <path class="cls-31" d="M454.54,260.32c0,3.11-1.56,8.58-1.58,15-3.19-.22-6.25-.49-9.47-.6h7.49c2.32-10.34-8.43,6.55-20.9-16.2.58-.14,1.91-1.03,3.94-1.8l9.86,11.4c2.17-3.88,5.49-9.37,1.97-13.2.8-.56,1.38-.88,2.37-1.2l2.37-.6c5.3-.75,3.94,1.12,3.94,7.2Z"/>
        <path class="cls-8" d="M445.86,254.92c3.52,3.82.19,9.31-1.97,13.2l-9.86-11.4c.48-.18,1.8-2.36,1.97-2.4,5.84-1.45,7.77,3.45,8.68,3,.87-.43-.31-1.36,1.18-2.4Z"/>
        <path class="cls-33" d="M450.6,253.12l-2.37.6c.11-.04-.32-.88,2.37-.6Z"/>
      </g>
    </g>
    <path class="cls-43" d="M75.91,123.56q-16.57,12.6-33.13,25.19l-.79-.9c9.63-9.81,19.48-19.71,32.34-27.29.36.94,1.17,2.06,1.58,3Z"/>
    <path class="cls-48" d="M34.1,190.74c16.36,67.2,56.24,129.41,101.76,187.74-51.97-49.07-94.47-127.18-108.07-189.24.07-2.37,5.95,1.39,6.31,1.5Z"/>
    <g>
      <path class="cls-8" d="M104.3,170.95c-5.92.12-17.92-7.49-18.93-7.8,20.38-11.86-14.24-25.43-18.14-6-4.45-1.87-23.18-6.97-24.45-8.4q16.57-12.6,33.13-25.19c2.36,5.48,25.45,44.89,28.4,47.39Z"/>
      <path class="cls-13" d="M85.37,163.15c-1.44-.43-7.17.43-9.07,0-2.72-.61-8.23-5.64-9.07-6,3.9-19.43,38.53-5.86,18.14,6Z"/>
    </g>
    <path class="cls-48" d="M292.04,379.69c-33.55,7.79-58.35,11.34-93.08,13.8,2.53-1.36,1.15-1.09.79-3,25.56-1.55,58.5-6.78,84.01-10.8,1.94-.31,7.88.07,8.28,0Z"/>
    <path class="cls-43" d="M197.38,390.48c.78-.04,1.59.05,2.37,0,.36,1.91,1.74,1.64-.79,3-9.56.68-36.36,3.52-43.78,2.4-3.14-.47-3.44-1.93-5.13-3-.37-2.07.77-1.71.79-1.8,15.55.1,31,.25,46.54-.6Z"/>
    <path class="cls-48" d="M454.54,304.71c.14,2.99-.2,6.01,0,9-16.7,7.94-31.41,17.82-48.12,25.79v-32.69c2.34-1.71,4.44.87,4.73.9l-1.58.3c.66,6.6,11.7-.16,18.93-.3,1.73-.03,21.27,2.71,9.47,0,5.19-1.83,10.89-2.72,16.57-3Z"/>
    <path class="cls-48" d="M202.91,241.13c-.76,49.78,2.49,99.83-5.52,149.35-15.54.85-30.99.7-46.54.6,2.16-11.26,6.8-49.5,6.31-58.78-.06-1.12,1.54-.11-.79-3,3.15-30.42,12.56-61.83.79-91.77,6.79,1.33,37.15,3.26,45.75,3.6Z"/>
    <g>
      <path class="cls-43" d="M384.34,227.33q2.76,29.39,5.52,58.78c-4.27,4.1-4.66,6.07,0,10.2q-.39,25.04-.79,50.08c1.2,1.75,11.71-4.21,17.35-6.9,16.71-7.97,31.42-17.85,48.12-25.79.04.6-.08,1.21,0,1.8-1.16-.07-.77,1.1-.79,2.4-42.73,28.08-94.32,48.25-149.09,58.78,21.84-9.82,47.36-14.65,69.42-23.99,2.6-1.1,7.27-1.88,7.89-3.3,3.33-7.58-4.19-103.45-6.31-120.86,3.95-.76,7.65-.98,8.68-1.2Z"/>
      <path class="cls-48" d="M375.66,228.53c2.12,17.42,9.64,113.28,6.31,120.86-.62,1.42-5.29,2.2-7.89,3.3-.49-26.14-.88-52.49-3.16-78.58-.11-1.29-.75-1.35-.79-1.8-1.26-14-2.8-28.03-4.73-41.99,3.44-.58,6.84-1.14,10.25-1.8Z"/>
    </g>
    <path class="cls-11" d="M157.15,237.53c11.77,29.95,2.36,61.35-.79,91.77-.32-.4-4.64-2.83-5.52-3.6-1.72-1.5-7.9-5.46-7.1-7.5.6-1.54,22.08-6.52,4.73-6.3,1.88-.57,4.22-.59,4.73-1.5,2.51-4.42-2.07-63-.79-74.08.88.45,3.4.94,4.73,1.2Z"/>
    <path class="cls-34" d="M354.36,272.32c1.01.41,12.4-.3,15.78,0,.04.45.68.51.79,1.8-2.28.43-17.06,5.6-17.35,6.3-.53,1.25,9.53,27.37-7.49,3.9-3.72-.05-25.64,8.05-26.43,4.5,1.93-1.95,11.25-9,11.04-10.8-.25-2.17-15.02-12.58-11.44-12.9,21.96,6.89,16.92,2.25,31.16-4.2,6.89-2.86-.17,9.74,3.94,11.4Z"/>
    <g>
      <path class="cls-48" d="M365.4,230.33c1.93,13.96,3.47,27.99,4.73,41.99-3.38-.3-14.76.41-15.78,0-.37-8.74,5.76-15.79-3.94-11.4-14.24,6.45-9.19,11.08-31.16,4.2-3.58.31,11.19,10.72,11.44,12.9.21,1.8-9.12,8.84-11.04,10.8.79,3.55,22.7-4.54,26.43-4.5,17.02,23.47,6.97-2.64,7.49-3.9.29-.7,15.07-5.87,17.35-6.3,2.27,26.09,2.66,52.43,3.16,78.58-22.06,9.34-47.57,14.17-69.42,23.99-2.69.52-7.16,2.09-12.62,3-.4.07-6.34-.31-8.28,0-25.51,4.02-58.45,9.24-84.01,10.8-.78.05-1.58-.04-2.37,0,8.02-49.53,4.77-99.57,5.52-149.35,51.72,2.06,111.89-2.19,162.5-10.8Z"/>
      <g>
        <path class="cls-31" d="M237.22,283.11c11.2,13.63,16.26,6.32,32.74,11.1-15.49,8.67-24.44-.61-10.25,15.6-4.02,6.85-14.37-2.4-19.33-2.1-1.71.1-24.71,12.15-29.98,12.6-2.32-1.28,8.93-16.48,8.28-17.69-.3-.56-13.79-5.29-13.41-6.6,17.54-4.18,22.49,1.44,31.95-12.9Z"/>
        <g>
          <path class="cls-34" d="M303.09,316.7c12.99,2.24-12.47,11.11-12.62,13.5-.03.44,5.27,6.63,6.31,7.5.09.17-.09.43,0,.6-7.55.37-15.8-3.72-20.51-3-3.14.48-1.92,2.86-11.04,1.8,3.34-6.37,4.48-5.67-3.94-15.3,20.97,1.56,9.38-7.67,13.02-9.9.77-.47,10.99,9.98,11.83,10.2,3.53.9,13.55-4.11,16.96-5.4Z"/>
          <path class="cls-21" d="M296.78,338.3c1.57,3.13,7.65,6.33,2.76,7.8-4-.74-20.3-9.23-22.09-9-1.51.19-12.95,10.14-15.38,10.2l14.2-12c4.71-.72,12.96,3.37,20.51,3Z"/>
          <path class="cls-19" d="M276.27,335.3l-14.2,12c-6.67.34,1.44-6.92,3.16-10.2,9.12,1.06,7.9-1.32,11.04-1.8Z"/>
          <path class="cls-38" d="M296.78,337.7c-1.05-.87-6.34-7.05-6.31-7.5.15-2.38,25.61-11.26,12.62-13.5.85-.32,3.66-2.91,4.73-1.5,3.76,8.07-13.31,13.25-14.2,15-.76,1.5,2.27,5.78,3.16,7.5Z"/>
        </g>
        <path class="cls-12" d="M354.36,272.32c-4.11-1.66,2.95-14.25-3.94-11.4,9.71-4.4,3.58,2.66,3.94,11.4Z"/>
      </g>
    </g>
    <g>
      <path class="cls-34" d="M148.48,311.91c17.35-.22-4.13,4.76-4.73,6.3-.8,2.03,5.38,6,7.1,7.5l-2.76,2.4q-15.97,5.1-31.95,10.2l-2.37-.9c13.55-19.08-8.94-13.77-5.52-22.79,19.18-1.99,15.84,5.53,23.27-9.3,4.31-.23,2.23,11.09,16.96,6.6Z"/>
      <path class="cls-21" d="M156.37,329.3c2.33,2.89.73,1.88.79,3-23.9-.11-17.92.58-26.43,10.8-8.12-1.61,5.97-9.71-14.59-4.8q15.97-5.1,31.95-10.2l2.76-2.4c.88.77,5.2,3.2,5.52,3.6Z"/>
    </g>
    <path class="cls-48" d="M398.53,300.51c14.3,6.99,27.88,8.83,12.62,7.2-.29-.03-2.39-2.61-4.73-.9v32.69c-5.64,2.69-16.16,8.65-17.35,6.9q.39-25.04.79-50.08c1.99,1.76,6.18,2.98,8.68,4.2Z"/>
    <g>
      <path class="cls-8" d="M150.05,233.33c-.08,3.29,2.18,2.9,2.37,3-1.28,11.07,3.3,69.66.79,74.08-.52.91-2.85.93-4.73,1.5-14.73,4.49-12.65-6.83-16.96-6.6-7.43,14.83-4.09,7.31-23.27,9.3-3.41,9.02,19.07,3.71,5.52,22.79l2.37.9c20.57-4.91,6.48,3.19,14.59,4.8,8.51-10.21,2.53-10.91,26.43-10.8.49,9.28-4.15,47.52-6.31,58.78-.02.09-1.16-.27-.79,1.8-4.13-2.6-11.27-10.45-14.2-14.4-45.52-58.34-85.39-120.54-101.76-187.74,32.74,9.64,62.88,23.54,95.05,34.19,6.35,3.81,13.06,6.74,20.9,8.4Z"/>
      <g>
        <path class="cls-21" d="M119.29,231.53c-.5-2.15-6.15-7.46-8.68-7.2.13-.04-.37-.89,2.76-.6,23.71,11.02,22.94,5.81,5.92,7.8Z"/>
        <g>
          <path class="cls-34" d="M110.61,224.33c2.53-.27,8.17,5.04,8.68,7.2-3.3.38-5.75,1.16-8.68,2.4-.64.27-.45-.17-2.37,1.2-.81.58-3.69,2-3.94,2.7-.58,1.6.26,14.7,2.37,17.09-1.6,1.97-1.44.59-3.16,1.8-.78-2.32-3.77-13.84-4.73-14.7-1.86-1.63-4.16-.59-4.73-.9-2.19-1.18-2.76-1.79-3.94-3.6,5.75-7.46-12.8-14.66,1.97-16.2,14.16,13.71,12.02,5.05,18.54,3Z"/>
          <path class="cls-44" d="M110.61,233.93c-.7,10.04,1.45,25.82-7.1,22.79,1.71-1.21,1.56.17,3.16-1.8,4.97-6.12-1.21-12.88,1.58-19.79,1.92-1.37,1.72-.93,2.37-1.2Z"/>
          <path class="cls-19" d="M94.05,241.13l-13.41,4.5c-1.42-1.9,8.35-6.65,9.47-8.1,1.19,1.81,1.76,2.42,3.94,3.6Z"/>
          <path class="cls-21" d="M106.67,254.92c-2.11-2.39-2.95-15.5-2.37-17.09.25-.7,3.14-2.12,3.94-2.7-2.79,6.91,3.39,13.67-1.58,19.79Z"/>
        </g>
      </g>
    </g>
  </g>
  <g>
    <g>
      <path class="cls-31" d="M124.02,6c-3.84,7.98-13.6,15.08-18.93,23.09-23.46,35.24-17.83,73.37,1.58,108.57.03.06-1.16.54-.79,1.2,4.06,7.2,21.92,30.1,28.4,36.89l7.1,9.3c-1.53,2.05-34.11-11.59-37.07-14.1-2.95-2.5-26.03-41.91-28.4-47.39-.41-.94-1.22-2.06-1.58-3-1.36-3.54-2.28-8.85-3.16-12.6-1.59-6.83-2.94-13.44-3.16-20.39-.48-15.27,1.82-25.77,7.89-40.19,8.67-14.61,31.62-30.68,48.12-41.39Z"/>
      <path class="cls-31" d="M486.88,149.95c-4.73,8.59-25.11,48.57-29.98,52.18-1.65,1.23-36.23,15.37-40.62,16.79-6.35,2.05-25.23,6.98-31.95,8.4-1.02.22-4.73.44-8.68,1.2-3.42.66-6.82,1.22-10.25,1.8-50.61,8.61-110.77,12.86-162.5,10.8-8.6-.34-38.96-2.27-45.75-3.6-1.33-.26-3.86-.75-4.73-1.2-.19-.1-2.44.29-2.37-3v-44.39c15.21,6.68,66.98,16.5,85.59,17.39,105.03-.68,166.61-5.27,251.24-56.38Z"/>
    </g>
    <g>
      <path class="cls-31" d="M380.39,80.98c7.59,4.26,27.57,16.5,33.92,18.59,17.36,11.46,36.58,21.5,53.25,33.59,5.48,3.98,20.09,14.39,19.33,16.79-84.63,51.12-146.21,55.71-251.24,56.38-18.61-.89-70.38-10.71-85.59-17.39-7.02-3.08-11.05-8.24-15.78-13.2-6.48-6.79-24.34-29.69-28.4-36.89-.37-.66.82-1.14.79-1.2-19.41-35.2-25.04-73.33-1.58-108.57,5.34-8.02,15.09-15.11,18.93-23.09,2.73-1.77,5.74-3.54,7.49-6,32.89,5.76,65.38,12.23,94.66,21.59,35.15,8.03,67.96,22.5,100.97,34.79,16.96,9.13,35.79,16.09,53.25,24.59Z"/>
      <g>
        <g>
          <path class="cls-9" d="M362.25,163.15c.97,1.07.95,2.32,3.94,2.4-.2.27,3.03,1.73-3.16,4.8-1.63.81-32.83,8.22-37.07,9-2.45-1.51-5.95.83-9.07-.6-1.07-.49.98-2.96-2.76-2.4v-1.2c2.82.12,7.73.31,10.25-.6.56-.2.98-.52,1.58-.6,1.08,1.78,2.93,1.33,4.34,3,9.88-2.35,5.86-2.15,7.49-4.2.15,2.25,1.15,1.48,3.16,1.2,5.8-.81,2.34-.6,5.52-3.6q7.89-3.6,15.78-7.2Z"/>
          <path class="cls-10" d="M334.64,143.36c1.75,4.43-.18,21.12,7.1,22.19-.04,1.35-.69,3.05-1.58,4.2-.07.09-1.62-.25-2.37.9-.27.42.27,1.76,0,2.1-1.63,2.05,2.38,1.85-7.49,4.2-1.41-1.67-3.26-1.22-4.34-3-1.27-2.1-1.39-13.42-10.25-22.19,6.15-3.61,10.72-7.08,18.93-8.4Z"/>
          <path class="cls-10" d="M324.39,174.55c-2.52.91-7.43.72-10.25.6-23.64-.97-19.19-3.43-10.25-13.8,5.53,8.53,17.39-3.92,6.31-6.6,1.13-.85,1.88-1.58,3.16-2.4,5.89,8.95-3.15,14.82,11.04,22.19Z"/>
          <path class="cls-2" d="M337.01,142.76c1.47,18.61,5.05,12.33,7.1,13.2,8.02,3.41,5.36,10.73-2.37,9.6-7.28-1.07-5.35-17.77-7.1-22.19.12-.02-.74-.52,2.37-.6Z"/>
          <path class="cls-2" d="M315.71,151.75c8.87,8.77,8.98,20.09,10.25,22.19-.6.08-1.02.4-1.58.6-14.19-7.38-5.15-13.24-11.04-22.19,1.04-.66,2.27-.54,2.37-.6Z"/>
          <path class="cls-6" d="M356.73,161.35c-4.04,1.21-7.8,6.68-10.25,9-3.18,3,.28,2.78-5.52,3.6l-.79-4.2c.89-1.15,1.53-2.85,1.58-4.2,7.73,1.14,10.39-6.19,2.37-9.6,1.06-1.8.56-3.57.79-5.4,2.49,4.43,6.98,7.78,11.83,10.8Z"/>
          <path class="cls-7" d="M344.89,150.55c-.23,1.83.27,3.59-.79,5.4-2.05-.87-5.62,5.41-7.1-13.2,9.52-.26,8.58,2.15,7.89,7.8Z"/>
          <path class="cls-2" d="M303.88,161.35c.38-.44-2.15-.19,6.31-6.6,11.08,2.68-.78,15.13-6.31,6.6Z"/>
          <path class="cls-38" d="M362.25,163.15q-7.89,3.6-15.78,7.2c2.45-2.31,6.21-7.79,10.25-9,7.81-2.33,5.29,1.54,5.52,1.8Z"/>
          <path class="cls-23" d="M340.16,169.75l.79,4.2c-2.01.28-3.01,1.06-3.16-1.2.27-.34-.27-1.68,0-2.1.74-1.15,2.3-.81,2.37-.9Z"/>
        </g>
        <g>
          <g>
            <path class="cls-19" d="M414.31,99.57c-6.35-2.1-26.33-14.34-33.92-18.59,11.65,5.68,24.07,11.08,33.92,18.59Z"/>
            <path class="cls-31" d="M324.39,179.35c.46-.08,1.12.08,1.58,0,4.25-.78,35.45-8.19,37.07-9,25.74-3.38,48.89-16.44,72.18-25.79C354.36,87,255.45,42.16,146.9,22.79c.12-.21-1.15-3.72,0-4.5,2.9-1.97,35.37,6.6,41.41,6.9q65.08,22.49,130.16,44.99c50.01,21.09,94.93,47.86,138.44,75.88-19.5,8.55-75.65,30.48-95.05,30.89-10.93.23-8.94-1.79-9.47-1.8-3.42-.07-23.59,7.63-28,4.2Z"/>
            <path class="cls-31" d="M192.65,189.54c-7.49,1.99-1.05,9.53-18.14-3.9-36.81-28.91-40.58-50.13-50.48-88.17,1.46-9.57,5.88-3.78,7.1-9.3,5.91,36.6,34.42,71.49,61.53,101.37Z"/>
          </g>
          <g>
            <path class="cls-43" d="M363.04,170.35c6.18-3.07,2.96-4.53,3.16-4.8,1.6-2.2,51.83-19.81,58.37-23.69-83.74-50.94-167.89-91.6-272.54-113.07-6.51.07-10.82,23.64-11.44,28.19-.08.59.07,1.21,0,1.8-.3,2.57-.68,5.22-.79,7.8-.11,2.78-.08,5.62,0,8.4.02.6-.03,1.2,0,1.8.2,4.18.87,8.45,1.58,12.6.38,2.22,1.02,4.4,1.58,6.6.56,2.23.84,4.35,1.58,6.6,1.33,4.08,2.75,5.61,3.16,6.6.57,1.4.97,2.79,1.58,4.2.9,2.07,2.15,3.96,3.16,6,1.7,3.46,3.53,6.83,5.52,10.2,6.17,10.43,12.69,17.87,20.51,27.59,1.55,1.93,2.34,4.42,4.73,6,.63,2.32,1.82,3.94,3.16,6,.92,1.42,9.74,12.3,10.65,12.6,1.22.39,22.51,0,26.43,0,8.92,0,17.93-.19,26.82-.6,6.86-.31,13.68-1.41,20.51-1.8,5.2-.3,10.62-1.48,15.78-1.8,5.63-.34,17.49.49,27.61-1.2,3.74-.56,1.69,1.91,2.76,2.4,3.12,1.43,6.62-.91,9.07.6-.46.08-1.12-.08-1.58,0-47.09,8.39-125.46,8.53-131.73,10.2-27.11-29.88-55.61-64.77-61.53-101.37-2.9-17.95-2.48-36.08,6.31-53.08,2.29-4.44,8.79-11.11,9.47-12.3,108.55,19.36,207.46,64.21,288.32,121.76-23.29,9.36-46.44,22.41-72.18,25.79Z"/>
            <path class="cls-48" d="M366.19,165.55c-2.99-.08-2.97-1.32-3.94-2.4-.24-.26,2.28-4.13-5.52-1.8-4.85-3.02-9.35-6.37-11.83-10.8.7-5.65,1.63-8.05-7.89-7.8-3.11.08-2.24.58-2.37.6-8.21,1.31-12.79,4.79-18.93,8.4-.1.06-1.33-.06-2.37.6-1.28.82-2.03,1.54-3.16,2.4-8.46,6.41-5.93,6.16-6.31,6.6-8.93,10.36-13.39,12.83,10.25,13.8v1.2c-10.12,1.69-21.98.86-27.61,1.2-3.05-2.18-11.43-4.88-16.57-6.6-8.29-2.77-13.03-6.9-23.66-4.2,7.29-9.47,14.54-10.43,22.09-12,.96-.2,1.6-.43,2.37-.6.27-.06,4.63.63,5.52-.9.89-1.54-1.21-14.42.79-17.09.06-.07,1.47-1.18,1.58-1.2.7-.16-.71,1.28,14.2-1.2,1.15-.19,2.83-.26,4.73-.6,1.26-.23,4.84.42,5.52-.3.72-3.09-2.05-5.44-3.16-8.1,10.61-1.7,7.82-7.15,0-10.2-5.83-2.27-6.88-1.47-12.62-2.4-3.93-.64-11.39-3.43-12.62-2.1-1.31,8.15,1.84,12.16,3.16,17.69l-3.16-3c-.03-.09-.12.24-.79-1.8.17-3.66-.36-10.23-2.37-12.6-1.49-1.76-13.09-8.82-15.78-11.4.57-1.28-1.42-3.63,3.94-7.2-8.84-6.02-16.87-2.72-17.75-3-.89-.28,3.13-6.29-2.76-11.4-.64-.56-.6-.72-1.58-1.2-1.85-.91-2.67-.96-4.73-1.2-1.15-.14-3.56-1.59-8.68.6-.34-11.93-.47-15.65-16.57-10.8-10.01,3.02-2-3.48-11.44-10.8-4.41-1.01-4.86,1.09-5.13,1.2-1.78.71-3.15,2.12-5.52,1.8.6-10.73-6.62-6.39-10.25-5.4-.09.03.36-1.65-1.18-1.2-3.5,1.02-2.4,5.36-4.34,4.8-2.79-8.38-13.06-6.78-12.62-1.2-2.04,2.72-3.68-1.01-7.1.3,4.86,2.06,1.8,2.27,2.37,3.3-4.06-1.83-7.43-2.79-11.83-.6.61-4.56,4.93-28.12,11.44-28.19,104.65,21.46,188.8,62.12,272.54,113.07-6.55,3.88-56.78,21.49-58.37,23.69Z"/>
            <g>
              <path class="cls-13" d="M204.48,167.95c17.79,8.6,6.56-2.84,27.61,2.4l4.73,4.2c-5.25,3.71-6.35,4.65-13.41,7.2-3.91,0-25.21.39-26.43,0-.91-.29-9.73-11.18-10.65-12.6,1.33.27,3.11-2.24,4.73-4.2,2.21-2.68,3.04-2.83,3.16-3,3.11,2.54,6.43,4.15,10.25,6Z"/>
              <path class="cls-13" d="M269.96,170.95q.39,4.2.79,8.4c-6.83.39-13.65,1.49-20.51,1.8-2.73-2.69-6.38-8.34-6.31-11.4,0-.2-.03-.4,0-.6,0-.07.07.15.79-1.2.04-.08.73-.1,1.58-1.2,10.64-2.7,15.38,1.43,23.66,4.2Z"/>
              <path class="cls-11" d="M250.24,181.15c-8.89.41-17.9.61-26.82.6,7.06-2.55,8.16-3.49,13.41-7.2,2.21-1.56,1.48-1.72,1.58-1.8.24-.18,1.37.1,5.52-3-.07,3.05,3.58,8.71,6.31,11.4Z"/>
              <path class="cls-31" d="M286.52,177.55c-5.16.32-10.58,1.5-15.78,1.8q-.39-4.2-.79-8.4c5.14,1.71,13.52,4.41,16.57,6.6Z"/>
            </g>
            <g>
              <path class="cls-25" d="M175.3,51.58c-1.03,4.2.42,8.35,0,12.6-.64,6.47-3.09,13.87-6.71,19.79,8.09-3.69,11.11-9.68,13.8-16.2,1.35-3.27,2.96-7.4,3.16-10.8,2.37.33,3.74-1.08,5.52-1.8l-5.92,20.99c18.04-11.89,19.85-.87,22.48-11.4,16.09-4.85,16.22-1.14,16.57,10.8-.16.07.34,1.32-1.97,2.4-4.28,2.01-16.79,7.68-19.33,9.6-.47-1.63.8-2.52.79-3.6,29.83-13.67,19.92-33.76,0-.6-.11-1-2.26-4.73-2.37-5.4-.27-1.72,1.92-4.6.39-4.8-28.04,6.84-34.96,21.5-39.05,24.89-2.82,2.34-2.5.67-3.16.9-.32.11-1.21-.11-1.58,0-2.86-4.23-10.2-.67-14.99-3-.55-2.2-1.2-4.37-1.58-6.6q7.69,3.6,15.38,7.2c7.16-4.02-9.81-4.06-1.97-6.9-10.32-5.38-1.86-6.95-6.31-13.2l-3.16.3c-.15-.1-2.09-1.08-2.37-1.2,3.85.2,4.22.32,3.16-2.7-7.36-5.68-2.72-3.06-3.16-4.2-.27-.71-1.69-2.43-3.16-2.1.11-2.58.49-5.23.79-7.8,5.22.41,6.57,14.76,9.47,4.5h2.37c2.59,6.59-8.39-1.19,1.97,12.9,5.29-10.58.25-14.57-1.97-18.59-.57-1.03,2.49-1.24-2.37-3.3,3.42-1.31,5.06,2.42,7.1-.3.33,4.13,8.8,2.66,3.94,18.59-1.06,3.49-7.89,12.66-6.31,15.9.59,1.2,3.04.21,3.16.3,7.71,6.03,3.01.81,4.73-1.8.36-.54,3.84-.74,6.31-10.8,1.1-4.46,2.18-16.81.79-20.99,1.94.56.84-3.78,4.34-4.8,1.54-.45,1.09,1.22,1.18,1.2Z"/>
              <path class="cls-18" d="M141.38,89.37c-.71-4.15-1.38-8.41-1.58-12.6,3.59,1.35,13.33,5.26,5.52,0l3.16-.3c4.46,6.25-4.01,7.82,6.31,13.2-7.84,2.84,9.13,2.88,1.97,6.9q-7.69-3.6-15.38-7.2Z"/>
              <path class="cls-42" d="M152.42,57.58c2.22,4.02,7.26,8.01,1.97,18.59-10.36-14.09.62-6.3-1.97-12.9h-2.37c-2.9,10.26-4.24-4.09-9.47-4.5.07-.59-.08-1.21,0-1.8,4.4-2.19,7.77-1.23,11.83.6Z"/>
              <path class="cls-15" d="M157.94,98.97c-4.45,1.35-8.88,2.45-13.41,3.6-.73-2.25-1.01-4.36-1.58-6.6,4.79,2.33,12.13-1.24,14.99,3Z"/>
              <path class="cls-18" d="M142.96,75.58c-1.06-.45-1.85-.8-3.16-.6-.08-2.78-.11-5.62,0-8.4,1.47-.33,2.88,1.39,3.16,2.1.44,1.14-4.21-1.49,3.16,4.2,1.06,3.02.7,2.9-3.16,2.7Z"/>
              <path class="cls-40" d="M183.97,154.15c-.76,4.86-1.87,5.04-.79,9-2.39-1.58-3.18-4.07-4.73-6,.06-2,3.24-3.11,5.52-3Z"/>
              <path class="cls-15" d="M142.96,75.58c.28.12,2.22,1.1,2.37,1.2,7.81,5.26-1.93,1.35-5.52,0-.03-.6.02-1.2,0-1.8,1.3-.2,2.1.15,3.16.6Z"/>
              <path class="cls-31" d="M271.53,110.37c-1.3,4.86.98,8.39,2.37,12.6.67,2.04.76,1.71.79,1.8,1.06,2.89,2.31,4.92,3.16,7.2-2.46,1.87-8.26,2.19-.79,4.2-2,2.68.11,15.55-.79,17.09-.89,1.53-5.25.84-5.52.9q-5.13-6.9-10.25-13.8l6.31-2.4c4.26-2.31-3.17-.18-8.28-.6-13.06-16.13-3.42-33.86-3.55-36.29-.02-.45-1.72-.05-1.58-.9.95.37,2.32-1.1,2.37-1.2,2.69,2.58,14.29,9.64,15.78,11.4Z"/>
              <path class="cls-18" d="M207.64,64.78c-2.64,10.53-4.44-.49-22.48,11.4l5.92-20.99c.27-.11.72-2.21,5.13-1.2,9.44,7.31,1.43,13.81,11.44,10.8Z"/>
              <path class="cls-31" d="M287.31,112.17c-10.62,4.18-1.89,16.49,5.52,21.59-14.9,2.48-13.5,1.04-14.2,1.2-1.28-1.21-.52-2.28-.79-3,.14-.11,1.34.25,1.58-.3.09-.2-1.04-1.64-1.58-3.9-1.32-5.53-4.47-9.55-3.16-17.69,1.23-1.33,8.7,1.46,12.62,2.1Z"/>
              <path class="cls-18" d="M169.78,55.18c1.39,4.18.31,16.53-.79,20.99-4.37.57-2.79-3.35-4.34-6-.7,2.34.14,2.66-3.55,2.4,4.85-15.93-3.62-14.46-3.94-18.59-.44-5.58,9.84-7.18,12.62,1.2Z"/>
              <path class="cls-22" d="M299.93,114.57c-2.01,1.52-1.23,2.24-1.58,3.6-16.85-5.58-8.15,9.43-.79,15-1.9.34-3.59.41-4.73.6-7.41-5.1-16.14-17.41-5.52-21.59,5.74.93,6.79.13,12.62,2.4Z"/>
              <path class="cls-25" d="M298.35,118.16c-1.64,6.37.77,4.66,1.58,6.6,1.11,2.66,3.88,5.01,3.16,8.1-.68.72-4.26.07-5.52.3-7.36-5.56-16.06-20.57.79-15Z"/>
              <path class="cls-37" d="M232.88,74.98c.05,1.65-5.14,2.12-10.25,4.8-8.99,4.72-7.85,8.09-10.65,10.2-1.72,1.3-9.66,3.2-10.65,5.7-.55,1.4.53,5.23,0,6.9-.67,2.11-.76,1.71-.79,1.8l-1.58-1.8c.21-1.98-.15-4.01,0-6,4.28-5.13,12.36-6.12,15.78-11.7-.53-1.48-13.99,4.74-14.99,6.3.67-1.17-1.15-.35,3.16-3.6,2.54-1.91,15.04-7.59,19.33-9.6,2.31-1.08,1.81-2.33,1.97-2.4,5.12-2.18,7.53-.73,8.68-.6Z"/>
              <path class="cls-50" d="M299.93,124.76c-.81-1.94-3.22-.23-1.58-6.6.35-1.36-.44-2.08,1.58-3.6,7.82,3.04,10.61,8.5,0,10.2Z"/>
              <path class="cls-15" d="M239.19,77.38c-3.58,4.53-11.03,8.12-16.57,12-6.67,2.96-1.67-2.15,5.52-7.8,3.2-1.77,6.67-3.2,9.47-5.4.97.48.93.64,1.58,1.2Z"/>
              <path class="cls-25" d="M237.61,76.18c-2.8,2.2-6.27,3.63-9.47,5.4-1.61.89-8.58,5.72-8.68,3.9q1.58-2.85,3.16-5.7c5.12-2.68,10.3-3.15,10.25-4.8,2.06.24,2.89.29,4.73,1.2Z"/>
              <path class="cls-22" d="M273.9,122.96c-1.39-4.21-3.67-7.74-2.37-12.6,2.01,2.37,2.53,8.94,2.37,12.6Z"/>
              <path class="cls-3" d="M278.63,134.96c-.11.02-1.52,1.13-1.58,1.2-7.47-2.01-1.67-2.33.79-4.2.26.71-.49,1.79.79,3Z"/>
              <path class="cls-22" d="M277.84,127.76c.54,2.26,1.66,3.7,1.58,3.9-.23.55-1.44.19-1.58.3-.84-2.28-2.1-4.3-3.16-7.2l3.16,3Z"/>
              <path class="cls-31" d="M186.34,91.17c-10.48,9.99,10,6.33-12.23,22.79-3.48.9-.11-4.53,1.18-7.8.33-.82,4.38-8.11,3.55-8.4l-11.44,6.6c6-9.99-4.88,7.59-11.04.6,7.43-5.82,19.6-12.83,29.98-13.8Z"/>
              <path class="cls-18" d="M203.69,83.97c0-.2.02-.4,0-.6,19.92-33.16,29.83-13.07,0,.6Z"/>
              <path class="cls-32" d="M198.96,96.57v-2.4c.33-1.2-.11-1.43.79-3,1-1.56,14.46-7.78,14.99-6.3-3.41,5.57-11.5,6.57-15.78,11.7Z"/>
              <path class="cls-36" d="M175.3,106.17c-2.31,2.66-6.82,1.05-10.25.3.86-.69,1.82-1.19,2.37-2.1l11.44-6.6c.83.28-3.22,7.58-3.55,8.4Z"/>
              <g>
                <path class="cls-31" d="M203.69,83.37c.02.2,0,.4,0,.6,0,1.08-1.26,1.97-.79,3.6-4.31,3.24-2.48,2.43-3.16,3.6-.9,1.57-.46,1.8-.79,3-1.65,5.93-.86,10.18-2.37,13.5-1.68,3.71-10.07,9.57-10.25,10.2-.38,1.32,12.39,21.37,11.83,25.49.01.2,0,.4,0,.6.23,7.09.48,11.1-3.94,17.99-.11.17-.94.32-3.16,3-8.23,2.27-2.5-16.17-6.31-18.59q-7.3-6-14.59-12c-3.45,4.34,12.01,9.25,14.59,13.8-.19,1.95-.49,4.05-.79,6-2.29-.11-5.46.99-5.52,3-7.82-9.72-14.34-17.16-20.51-27.59,5.35-1.11-.73-9.2-5.52-10.2-1.01-2.04-2.26-3.93-3.16-6,8.13-.35,4.22-3.45-1.58-4.2-.4-.99-1.82-2.52-3.16-6.6,4.53-1.14,8.96-2.25,13.41-3.6.36-.11,1.25.11,1.58,0-1.57,3.7-16.22,5.8-3.16,6,6.17,6.99,17.04-10.59,11.04-.6-.54.91-1.51,1.41-2.37,2.1,3.43.75,7.95,2.36,10.25-.3-1.3,3.27-4.66,8.7-1.18,7.8,22.22-16.46,1.74-12.8,12.23-22.79,2.18-2.08,12.14-5.85,14.99-13.2.1.67,2.25,4.4,2.37,5.4Z"/>
                <g>
                  <path class="cls-41" d="M191.07,164.95c-1.62,1.96-3.4,4.47-4.73,4.2-1.34-2.06-2.52-3.67-3.16-6-1.08-3.96.03-4.13.79-9,.3-1.95.6-4.04.79-6,.07-.72,1.26-.53,0-1.8,3.81,2.42-1.91,20.86,6.31,18.59Z"/>
                  <path class="cls-16" d="M157.94,129.56c-1.99-3.37-3.82-6.74-5.52-10.2,4.8,1,10.87,9.09,5.52,10.2Z"/>
                  <path class="cls-27" d="M149.27,113.37c-.61-1.41-1-2.8-1.58-4.2,5.79.75,9.71,3.85,1.58,4.2Z"/>
                  <path class="cls-42" d="M198.96,96.57c-.15,1.98.21,4.02,0,6-1.24,11.71-9.84,12.5-11.04,15.3-1.3,3.03,1.5,1.36,1.58,1.5,1,1.93,2,3.54,3.16,5.4,1.26,4.78,6.65,14.29,7.1,18.29.05.48-1.58.24-1.58.3.55-4.12-12.21-24.17-11.83-25.49.18-.63,8.57-6.49,10.25-10.2,1.5-3.31.72-7.56,2.37-13.5v2.4Z"/>
                  <path class="cls-35" d="M184.76,146.36c1.26,1.27.07,1.08,0,1.8-2.58-4.54-18.05-9.46-14.59-13.8q7.3,6,14.59,12Z"/>
                  <path class="cls-34" d="M167.8,116.36l1.97.3c-.94,9.46-8.5-.38-1.97-.3Z"/>
                </g>
              </g>
              <path class="cls-15" d="M168.99,76.18c-2.47,10.05-5.95,10.25-6.31,10.8-3.91-2.44-2.2-.59-4.73,1.8-.11-.09-2.57.9-3.16-.3-1.58-3.23,5.25-12.4,6.31-15.9,3.69.26,2.85-.06,3.55-2.4,1.55,2.65-.03,6.57,4.34,6Z"/>
              <path class="cls-18" d="M182.4,67.78c-2.69,6.52-5.71,12.51-13.8,16.2,3.62-5.92,6.06-13.32,6.71-19.79,3.95-.82,4.43,1.9,7.1,3.6Z"/>
              <path class="cls-46" d="M162.68,86.97c-1.72,2.61,2.98,7.83-4.73,1.8,2.53-2.39.82-4.24,4.73-1.8Z"/>
              <path class="cls-31" d="M228.15,81.58c-7.19,5.65-12.19,10.76-5.52,7.8-4.21,2.95-1.39,5.32-9.07,2.4-5.44,3.47-10.44,12.36-12.23,10.8.53-1.67-.55-5.5,0-6.9.99-2.5,8.92-4.4,10.65-5.7,2.8-2.11,1.66-5.48,10.65-10.2q-1.58,2.85-3.16,5.7c.1,1.82,7.07-3.01,8.68-3.9Z"/>
              <path class="cls-28" d="M249.45,116.36c-7.98,9.88-23.39,9.69-20.51,2.4,6-1.09,16.19-1.19,19.72-4.2h.79c-.04.6,0,1.2,0,1.8Z"/>
              <path class="cls-29" d="M248.66,114.57c-3.53,3.01-13.72,3.11-19.72,4.2,5.14-7.11,10.54-7.04,19.72-4.2Z"/>
              <path class="cls-17" d="M200.54,104.37c-2.59,7.76-3.5,9.04-11.04,15-.07-.14-2.87,1.53-1.58-1.5,1.2-2.8,9.8-3.58,11.04-15.3l1.58,1.8Z"/>
              <g>
                <path class="cls-31" d="M259.7,91.77c-8.6.04-5.95,3.95-7.1,8.4-1.06,4.1-2.92,10.63-3.16,14.4h-.79c-9.19-2.85-14.58-2.91-19.72,4.2-2.88,7.29,12.53,7.48,20.51-2.4-.19,15.51,9.15,25.49,18.93,38.39-7.55,1.57-14.8,2.52-22.09,12-.85,1.1-1.54,1.12-1.58,1.2-1.46-2.01-3.92-3.71-4.73-6v-2.4c1.59-5.73,6.74-5.25,5.52-6.9-15.31,3.32-9.22,9.39-1.58,16.5-.03.2,0,.4,0,.6-4.16,3.1-5.28,2.82-5.52,3-2.22-.69-4.01-1.83-6.31-2.4-21.05-5.24-9.81,6.21-27.61-2.4-10.56-11.02-4.11-8.62-3.94-16.79,2.35-9.26-2.92-18.36-7.89-26.39-1.15-1.86-2.16-3.47-3.16-5.4,7.55-5.95,8.45-7.24,11.04-15,.03-.09.12.31.79-1.8,1.79,1.56,6.78-7.33,12.23-10.8,7.68,2.92,4.86.55,9.07-2.4,5.54-3.88,12.99-7.46,16.57-12,5.89,5.11,1.87,11.12,2.76,11.4.88.28,8.91-3.03,17.75,3Z"/>
                <g>
                  <path class="cls-20" d="M238.4,172.75c-.1.08.63.24-1.58,1.8l-4.73-4.2c2.31.57,4.09,1.71,6.31,2.4Z"/>
                  <g>
                    <path class="cls-22" d="M266.8,137.96c-6.57,1.59-9.65-.14-6.31,2.4q5.13,6.9,10.25,13.8c-.77.17-1.41.4-2.37.6-9.78-12.9-19.12-22.88-18.93-38.39,0-.6-.04-1.2,0-1.8.24-3.77,2.09-10.3,3.16-14.4h.79c-.15.85,1.55.45,1.58.9.13,2.43-9.51,20.16,3.55,36.29,5.11.42,12.54-1.71,8.28.6Z"/>
                    <path class="cls-1" d="M259.7,91.77c-5.37,3.57-3.37,5.92-3.94,7.2-.05.1-1.42,1.57-2.37,1.2h-.79c1.15-4.45-1.51-8.36,7.1-8.4Z"/>
                    <path class="cls-36" d="M200.54,151.15c-.16,8.18-6.61,5.77,3.94,16.79-3.83-1.85-7.14-3.46-10.25-6,4.42-6.9,4.18-10.91,3.94-17.99,2.21-.36,2.41,4.92,2.37,7.2Z"/>
                    <path class="cls-47" d="M200.54,151.15c.05-2.28-.16-7.56-2.37-7.2,0-.2.01-.4,0-.6,0-.06,1.63.18,1.58-.3-.45-4-5.84-13.52-7.1-18.29,4.96,8.03,10.24,17.13,7.89,26.39Z"/>
                    <path class="cls-14" d="M239.98,159.55c-.34,1.23-.75.29,0,2.4.82,2.29,3.28,3.98,4.73,6-.71,1.35-.78,1.13-.79,1.2-7.64-7.1-13.73-13.17,1.58-16.5,1.22,1.65-3.94,1.17-5.52,6.9Z"/>
                    <path class="cls-31" d="M232.88,94.17c.73-.28,3.04-1.65,3.94-1.8,6.44-1.07,18.92-.13,13.02,6.6-6.09-2.79-11.3-3.44-16.96-4.8Z"/>
                    <path class="cls-14" d="M225.78,151.75c-.2,5.05-1.71,9.27,0,13.5-11.35-2.68-1.77-14.39-1.58-15.3l1.58,1.8Z"/>
                    <path class="cls-42" d="M224.99,113.97c-3.29-.19-.29,1.73-.79,4.5-.86,4.74-4.85,9.79,1.58,23.09.02,3.46.14,6.72,0,10.2l-1.58-1.8c1.9-8.74-4.4-18.53-3.94-27.29.05-.97,3.98-16.39,4.73-8.7Z"/>
                    <path class="cls-45" d="M236.83,91.77v.6c-.9.15-3.21,1.52-3.94,1.8-2.28.88-4.55.85-6.31,2.7-1.96,2.06-1.66,8.62-3.94,8.7v-4.2c-.84-11.15,1.29-6.64,5.13-7.8,3.24-.98,5.97-2.37,8.28-3l.79,1.2Z"/>
                    <path class="cls-17" d="M224.99,113.97c3.03,7.38-.8,8.23-.79,8.7.13,6.37,1.54,12.52,1.58,18.89-6.43-13.3-2.43-18.35-1.58-23.09.5-2.76-2.51-4.69.79-4.5Z"/>
                    <path class="cls-30" d="M236.83,91.77l-.79-1.2c5.34-1.45,5.55-.64.79,1.2Z"/>
                    <path class="cls-49" d="M239.98,161.95c-.75-2.11-.34-1.17,0-2.4v2.4Z"/>
                  </g>
                </g>
              </g>
              <path class="cls-4" d="M266.8,137.96l-6.31,2.4c-3.34-2.54-.26-.8,6.31-2.4Z"/>
              <g>
                <path class="cls-18" d="M185.55,56.98c-.19,3.39-1.8,7.52-3.16,10.8-2.67-1.7-3.15-4.42-7.1-3.6.42-4.24-1.03-8.39,0-12.6,3.63-.99,10.86-5.33,10.25,5.4Z"/>
                <path class="cls-15" d="M178.85,60.58c1.8-.87,2.23.58.79,1.8-.66-.41-1.92-1.25-.79-1.8Z"/>
              </g>
              <g>
                <path class="cls-18" d="M201.33,77.98c-2.84,7.35-12.8,11.11-14.99,13.2-10.37.97-22.55,7.97-29.98,13.8-13.07-.2,1.58-2.3,3.16-6,.66-.23.34,1.44,3.16-.9,4.09-3.39,11.01-18.05,39.05-24.89,1.53.2-.66,3.08-.39,4.8Z"/>
                <path class="cls-29" d="M195.41,77.98l.39,2.1c-24.4,17.7-24.57,13.68-.39-2.1Z"/>
              </g>
            </g>
          </g>
        </g>
      </g>
    </g>
  </g>
</svg>