<?xml version="1.0" encoding="UTF-8" standalone="no"?>
<svg
   xmlns:dc="http://purl.org/dc/elements/1.1/"
   xmlns:cc="http://creativecommons.org/ns#"
   xmlns:rdf="http://www.w3.org/1999/02/22-rdf-syntax-ns#"
   xmlns:svg="http://www.w3.org/2000/svg"
   xmlns="http://www.w3.org/2000/svg"
   viewBox="0 0 2560 1440"
   height="1440"
   width="2560"
   xml:space="preserve"
   id="svg2"
   version="1.1"><metadata
     id="metadata8"><rdf:RDF><cc:Work
         rdf:about=""><dc:format>image/svg+xml</dc:format><dc:type
           rdf:resource="http://purl.org/dc/dcmitype/StillImage" /></cc:Work></rdf:RDF></metadata><defs
     id="defs6"><clipPath
       id="clipPath18"
       clipPathUnits="userSpaceOnUse"><path
         id="path16"
         d="M 0,1080 H 1920 V 0 H 0 Z" /></clipPath></defs><g
     transform="matrix(1.3333333,0,0,-1.3333333,0,1440)"
     id="g10"><g
       id="g12"><g
         clip-path="url(#clipPath18)"
         id="g14"><g
           transform="translate(1201.4242,434.8776)"
           id="g20"><path
             id="path22"
             style="fill:#389181;fill-opacity:1;fill-rule:nonzero;stroke:none"
             d="M 0,0 C 2.948,8.412 1.82,18.093 -0.789,26.392 4.144,21.497 3.234,5.505 0,0" /></g><g
           transform="translate(1152.5171,500.8576)"
           id="g24"><path
             id="path26"
             style="fill:#72d1dc;fill-opacity:1;fill-rule:nonzero;stroke:none"
             d="M 0,0 C -1.178,-3.903 8.552,0.587 14.199,0.6 14.752,-1.7 2.23,-6.073 1.578,-7.498 c -1.59,-3.471 6.05,-9.712 5.521,-10.197 -5.318,-0.375 -6.3,-0.023 -11.043,-1.499 1.163,0.601 -0.533,8.83 -0.789,9.297 -1.618,2.944 -16.934,4.175 -13.41,7.498 3.144,-0.304 9.18,-1.553 9.86,-1.2 C -5.051,-1.922 -11.152,11.917 0,0" /></g><g
           transform="translate(1134.374,498.4583)"
           id="g28"><path
             id="path30"
             style="fill:#72d1dc;fill-opacity:1;fill-rule:nonzero;stroke:none"
             d="m 0,0 c -3.524,-3.323 11.792,-4.553 13.41,-7.498 0.257,-0.466 1.952,-8.696 0.789,-9.297 -2.227,-0.693 -5.877,-4.691 -9.466,-2.999 2.54,2.443 4.316,5.109 6.311,7.798 1.858,0.89 -5.807,4.112 -9.466,5.398 -0.047,0.023 0.219,0.142 -0.789,0.6 C -3.944,-2.849 -3.944,-2.849 -8.677,0.3 -7.494,1.88 -5.56,0.537 0,0" /></g><g
           transform="translate(1160.4053,494.2596)"
           id="g32"><path
             id="path34"
             style="fill:#457478;fill-opacity:1;fill-rule:nonzero;stroke:none"
             d="M 0,0 V -5.398 C -2.65,-3.005 -2.077,-2.331 0,0" /></g><g
           transform="translate(1145.4176,486.462)"
           id="g36"><path
             id="path38"
             style="fill:#457478;fill-opacity:1;fill-rule:nonzero;stroke:none"
             d="M 0,0 C -4.007,0.603 -8.687,5.009 -9.466,5.398 -5.806,4.112 1.858,0.89 0,0" /></g><g
           transform="translate(1200.6354,461.2696)"
           id="g40"><path
             id="path42"
             style="fill:#f4b50f;fill-opacity:1;fill-rule:nonzero;stroke:none"
             d="m 0,0 c 2.609,-8.299 3.736,-17.98 0.789,-26.392 -0.123,-0.209 -2.665,-2.034 -2.367,-4.199 -9.071,5.099 -9.071,5.099 -18.143,10.197 -1.028,5.292 -0.875,10.292 -0.788,15.595 3.266,-1.336 7.579,-4.567 8.677,-4.798 l 1.577,0.3 C -9.213,-3.468 -7.145,7.09 0,0" /></g><g
           transform="translate(1199.0577,430.6788)"
           id="g44"><path
             id="path46"
             style="fill:#389181;fill-opacity:1;fill-rule:nonzero;stroke:none"
             d="M 0,0 C -0.299,2.165 2.244,3.99 2.366,4.199 1.939,2.978 2.684,0.75 0,0" /></g><g
           transform="translate(1160.4053,460.0699)"
           id="g48"><path
             id="path50"
             style="fill:#f4b50f;fill-opacity:1;fill-rule:nonzero;stroke:none"
             d="m 0,0 c 3.216,-0.107 6.275,-0.384 9.466,-0.6 -10e-4,-0.2 0,-0.4 0,-0.6 0.021,-17.627 -1.919,-25.015 14.988,-28.791 0.565,-2.057 -11.669,0.085 -13.41,0 -5.679,-0.276 -11.372,-1.171 -16.566,-2.999 -4.701,1.08 -5.511,0.505 -7.888,5.098 C -17.803,-19.401 -13.992,-4.987 -3.155,0 -2.132,-0.013 -1.049,0.035 0,0" /></g><g
           transform="translate(1180.126,456.471)"
           id="g52"><path
             id="path54"
             style="fill:#e8de52;fill-opacity:1;fill-rule:nonzero;stroke:none"
             d="m 0,0 c -0.086,-5.303 -0.24,-10.303 0.789,-15.595 0.454,-2.337 4.26,-9.236 3.944,-10.797 -16.907,3.776 -14.967,11.164 -14.988,28.791 C -6.443,2.646 -3.187,1.304 0,0" /></g><g
           transform="translate(1134.374,458.8703)"
           id="g56"><path
             id="path58"
             style="fill:#f4b50f;fill-opacity:1;fill-rule:nonzero;stroke:none"
             d="m 0,0 c -3.443,-9.775 -2.548,-27.022 11.044,-31.79 -7.229,-0.141 -18.274,-6.899 -18.932,-0.3 0.789,0.15 0.789,0.15 1.577,0.3 15.257,-1.631 1.679,0.203 -12.621,7.197 -3.17,6.248 -3.477,10.735 -3.155,17.395 2.93,1.662 6.135,3.064 9.466,4.199 5.4,1.84 6.779,2.183 12.621,2.999" /></g><g
           transform="translate(1115.4423,434.2778)"
           id="g60"><path
             id="path62"
             style="fill:#f3fd7e;fill-opacity:1;fill-rule:nonzero;stroke:none"
             d="m 0,0 c -2.495,1.221 -6.688,2.435 -8.677,4.199 -4.656,4.128 -4.27,6.094 0,10.197 0.211,0.202 4.124,2.206 5.522,2.999 C -3.477,10.735 -3.17,6.248 0,0" /></g><g
           transform="translate(1157.25,460.0699)"
           id="g64"><path
             id="path66"
             style="fill:#e8de52;fill-opacity:1;fill-rule:nonzero;stroke:none"
             d="m 0,0 c -10.836,-4.987 -14.648,-19.401 -10.255,-27.892 2.377,-4.593 3.187,-4.018 7.889,-5.098 11.801,-2.711 -7.739,0.034 -9.466,0 -13.592,4.768 -14.487,22.016 -11.044,31.79 C -13.649,0.09 -9.449,0.125 0,0" /></g><g
           transform="translate(788.08,626.8195)"
           id="g68"><path
             id="path70"
             style="fill:#f6a52a;fill-opacity:1;fill-rule:nonzero;stroke:none"
             d="m 0,0 c 0.872,-3.751 1.799,-9.058 3.155,-12.596 -12.866,-7.583 -22.71,-17.483 -32.342,-27.292 0.395,-0.45 0.395,-0.45 0.789,-0.9 1.277,-1.422 20.007,-6.531 24.454,-8.397 0.846,-0.355 6.353,-5.383 9.071,-5.998 1.901,-0.43 7.629,0.434 9.072,0 1.012,-0.305 13.007,-7.915 18.932,-7.798 2.964,-2.508 35.549,-16.149 37.074,-14.096 -3.549,4.649 -3.549,4.649 -7.099,9.298 4.726,-4.957 8.756,-10.112 15.777,-13.196 v -44.387 c -7.844,1.66 -14.558,4.587 -20.904,8.397 -32.174,10.645 -62.31,24.548 -95.054,34.19 -0.359,0.106 -6.243,3.867 -6.31,1.5 13.602,-62.061 56.096,-140.174 108.069,-189.243 2.928,-3.95 10.073,-11.793 14.199,-14.396 1.69,-1.066 1.988,-2.524 5.127,-2.999 7.418,-1.123 34.218,1.723 43.78,2.399 34.736,2.456 59.529,6.007 93.081,13.796 5.466,0.912 9.935,2.483 12.621,2.999 54.764,10.528 106.359,30.701 149.088,58.783 -0.039,-2.199 0.019,-4.4 0,-6.599 -0.065,-7.444 1.866,-10.451 -5.522,-15.595 -1.502,-1.046 -27.227,-13.637 -31.553,-15.595 -4.617,-2.09 -9.475,-4.04 -14.199,-5.998 -24.647,-10.219 -59.453,-22.043 -85.981,-28.792 -11.456,-2.914 -39.634,-8.959 -52.063,-11.396 -18.62,-3.652 -37.798,-7.335 -56.795,-9.597 -3.946,-0.47 -7.879,-0.806 -11.833,-1.2 -10.528,-1.05 -42.111,-4.206 -49.696,-1.799 -2.471,4.131 -13.447,6.589 -3.155,9.897 -52.326,62.12 -95.319,125.185 -119.113,197.34 -4.805,14.574 -0.914,25.918 -16.959,25.492 -0.197,-0.6 -0.197,-0.6 -0.395,-1.199 -0.01,0.074 -1.508,0.425 -1.577,0.899 -0.652,4.488 -0.857,8.931 -1.578,13.496 -0.417,2.641 0.517,5.87 -1.578,8.398 -0.004,10.218 -2.419,19.476 -1.577,24.592 0.926,-2.266 3.315,-1.243 5.916,-2.399 4.561,-2.026 10.787,-7.7 16.565,-5.398 C -45.509,-34.193 -21.24,-6.333 0,0" /></g><g
           transform="translate(863.0183,320.3122)"
           id="g72"><path
             id="path74"
             style="fill:#f6a52a;fill-opacity:1;fill-rule:nonzero;stroke:none"
             d="m 0,0 c -4.39,1.393 -11.37,8.394 -14.988,11.397 -25.781,21.398 -45.155,45.645 -62.317,71.378 -0.801,1.201 -1.58,2.392 -2.366,3.599 -2.862,4.394 -5.996,8.742 -8.677,13.196 -0.594,0.986 -1.018,2.05 -1.578,2.999 -17.378,29.441 -31.473,60.74 -41.808,92.072 -2.677,8.116 -3.04,16.827 -6.31,24.893 0.253,3.654 -1.063,7.191 -1.578,10.796 -0.056,0.392 0.056,0.808 0,1.2 0.197,0.6 0.197,0.6 0.394,1.2 16.046,0.425 12.154,-10.919 16.96,-25.493 C -98.475,135.082 -55.482,72.017 -3.155,9.897 -13.448,6.589 -2.471,4.131 0,0" /></g><g
           transform="translate(784.9246,647.2134)"
           id="g76"><path
             id="path78"
             style="fill:#f6a52a;fill-opacity:1;fill-rule:nonzero;stroke:none"
             d="m 0,0 c 0.216,-6.95 1.567,-13.563 3.155,-20.394 -21.239,-6.333 -45.509,-34.193 -48.512,-35.389 -5.779,-2.302 -12.005,3.372 -16.566,5.398 -2.601,1.156 -4.989,0.133 -5.916,2.4 0.553,3.363 1.955,5.932 4.733,8.697 C -54.828,-31.051 -15.537,-5.06 0,0" /></g><g
           transform="translate(1173.8153,532.648)"
           id="g80"><path
             id="path82"
             style="fill:#c7693c;fill-opacity:1;fill-rule:nonzero;stroke:none"
             d="m 0,0 c 0.176,-1.1 -0.49,-1.953 -0.789,-2.999 -0.837,-2.931 -0.682,-4.903 -0.789,-7.798 -7.534,-6.386 -14.982,-13.181 -19.72,-20.993 -11.152,11.916 -5.051,-1.923 -8.283,-3.599 -0.681,-0.353 -6.716,0.896 -9.86,1.199 -5.56,0.537 -7.494,1.88 -8.677,0.3 4.733,-3.149 4.733,-3.149 9.466,-6.298 -6.06,2.75 -10.383,0.7 -11.438,-4.199 -21.475,11.277 -7.376,1.516 -2.761,-22.793 0.09,-0.476 -0.269,-5.849 0.789,-9.597 -3.331,-1.135 -6.536,-2.537 -9.466,-4.199 -1.398,-0.792 -5.311,-2.796 -5.522,-2.999 -2.761,29.392 -2.761,29.392 -5.522,58.783 6.719,1.422 25.602,6.345 31.947,8.397 C -36.226,-15.372 -1.652,-1.23 0,0" /></g><g
           transform="translate(1136.7406,475.6653)"
           id="g84"><path
             id="path86"
             style="fill:#de7d30;fill-opacity:1;fill-rule:nonzero;stroke:none"
             d="m 0,0 c 3.416,-0.121 6.932,-0.195 10.255,0.6 12.472,-22.743 23.22,-5.851 20.904,-16.195 h -7.494 c -1.05,0.035 -2.132,-0.014 -3.156,0 -9.449,0.125 -13.648,0.089 -22.876,-1.2 -5.842,-0.816 -7.221,-1.159 -12.621,-2.999 -1.057,3.748 -0.698,9.121 -0.788,9.597 19.02,-6.121 32.515,11.788 13.804,9.597 l 0.394,1.2 C -1.637,-0.191 -0.875,0.031 0,0" /></g><g
           transform="translate(1168.2936,500.2578)"
           id="g88"><path
             id="path90"
             style="fill:#de7d30;fill-opacity:1;fill-rule:nonzero;stroke:none"
             d="M 0,0 C -0.052,0.529 -0.931,1.201 -1.578,1.2 -7.225,1.187 -16.955,-3.303 -15.776,0.6 -11.038,8.412 -3.59,15.207 3.944,21.593 3.841,18.811 3.803,1.244 3.155,0.3 2.495,-0.663 0.113,0.085 0,0" /></g><g
           transform="translate(1160.4053,488.8613)"
           id="g92"><path
             id="path94"
             style="fill:#de7d30;fill-opacity:1;fill-rule:nonzero;stroke:none"
             d="m 0,0 v 5.398 c 0.766,0.86 5.86,4.48 7.888,5.999 0.114,0.084 2.496,-0.663 3.156,0.299 0.647,0.945 0.686,18.511 0.788,21.294 0.107,2.895 -0.048,4.867 0.789,7.798 L 11.044,-3.299 C 10.247,-4.806 2.079,-1.878 0,0" /></g><g
           transform="translate(1135.163,492.4602)"
           id="g96"><path
             id="path98"
             style="fill:#f6a52a;fill-opacity:1;fill-rule:nonzero;stroke:none"
             d="M 0,0 C 1.008,-0.457 0.742,-0.577 0.789,-0.6 1.568,-0.989 6.248,-5.395 10.255,-5.998 8.26,-8.687 6.484,-11.353 3.944,-13.796 3.889,-13.848 2.433,-14.337 2.366,-14.396 2.257,-14.492 0.406,-15.041 0,-16.195 l -0.395,-1.2 c 18.712,2.191 5.216,-15.718 -13.804,-9.597 -4.615,24.309 -18.714,34.07 2.761,22.793 C -10.383,0.7 -6.059,2.75 0,0" /></g><g
           transform="translate(1136.7406,475.6653)"
           id="g100"><path
             id="path102"
             style="fill:#3ca1c3;fill-opacity:1;fill-rule:nonzero;stroke:none"
             d="M 0,0 C -0.875,0.031 -1.637,-0.191 -1.578,0.6 -1.172,1.754 0.679,2.303 0.789,2.399 0.423,1.393 1.601,0.978 1.578,0.9 1.43,0.411 -0.115,0.875 0,0" /></g><g
           transform="translate(1171.4489,474.4656)"
           id="g104"><path
             id="path106"
             style="fill:#f6a52a;fill-opacity:1;fill-rule:nonzero;stroke:none"
             d="m 0,0 c 0.004,-3.108 -1.56,-8.582 -1.578,-14.995 -3.191,0.216 -6.25,0.492 -9.466,0.599 h 7.494 c 2.317,10.345 -8.431,-6.547 -20.904,16.195 0.578,0.139 1.908,1.03 3.945,1.8 4.93,-5.698 4.93,-5.698 9.86,-11.397 2.165,3.885 5.489,9.373 1.972,13.196 0.8,0.556 1.381,0.883 2.366,1.2 1.184,0.3 1.184,0.3 2.367,0.6 C 1.359,7.95 -0.008,6.078 0,0" /></g><g
           transform="translate(1162.7717,479.864)"
           id="g108"><path
             id="path110"
             style="fill:#de7d30;fill-opacity:1;fill-rule:nonzero;stroke:none"
             d="m 0,0 c 3.517,-3.823 0.193,-9.311 -1.972,-13.196 -4.93,5.698 -4.93,5.698 -9.86,11.397 0.48,0.181 1.795,2.355 1.972,2.399 5.836,1.455 7.77,-3.449 8.677,-2.999 C -0.314,-1.969 -1.495,-1.038 0,0" /></g><g
           transform="translate(1167.5048,481.6634)"
           id="g112"><path
             id="path114"
             style="fill:#aa8357;fill-opacity:1;fill-rule:nonzero;stroke:none"
             d="M 0,0 C -1.183,-0.3 -1.183,-0.3 -2.366,-0.6 -2.252,-0.563 -2.69,0.279 0,0" /></g><g
           transform="translate(792.8129,611.2242)"
           id="g116"><path
             id="path118"
             style="fill:#a4552c;fill-opacity:1;fill-rule:nonzero;stroke:none"
             d="m 0,0 -33.131,-25.192 c -0.394,0.45 -0.394,0.45 -0.788,0.899 9.631,9.809 19.475,19.709 32.341,27.292 C -1.218,2.061 -0.406,0.941 0,0" /></g><g
           transform="translate(751.0052,544.0446)"
           id="g120"><path
             id="path122"
             style="fill:#c7693c;fill-opacity:1;fill-rule:nonzero;stroke:none"
             d="M 0,0 C 16.365,-67.203 56.242,-129.407 101.758,-187.743 49.786,-138.674 7.292,-60.562 -6.311,1.5 -6.244,3.867 -0.359,0.106 0,0" /></g><g
           transform="translate(821.2106,563.8386)"
           id="g124"><path
             id="path126"
             style="fill:#de7d30;fill-opacity:1;fill-rule:nonzero;stroke:none"
             d="m 0,0 c -5.925,-0.117 -17.92,7.493 -18.932,7.798 20.383,11.863 -14.24,25.429 -18.143,5.998 -4.446,1.866 -23.176,6.975 -24.453,8.397 l 33.13,25.193 C -26.034,41.909 -2.951,2.498 0,0" /></g><g
           transform="translate(802.2788,571.6362)"
           id="g128"><path
             id="path130"
             style="fill:#ed7378;fill-opacity:1;fill-rule:nonzero;stroke:none"
             d="M 0,0 C -1.443,0.434 -7.17,-0.43 -9.071,0 -11.79,0.615 -17.297,5.643 -18.143,5.998 -14.241,25.429 20.382,11.863 0,0" /></g><g
           transform="translate(1008.9509,355.1017)"
           id="g132"><path
             id="path134"
             style="fill:#c7693c;fill-opacity:1;fill-rule:nonzero;stroke:none"
             d="m 0,0 c -33.552,-7.789 -58.345,-11.34 -93.081,-13.796 2.533,1.357 1.152,1.087 0.788,2.999 25.564,1.552 58.497,6.78 84.01,10.797 1.945,0.306 7.878,-0.067 8.283,0" /></g><g
           transform="translate(914.2919,344.305)"
           id="g136"><path
             id="path138"
             style="fill:#a4552c;fill-opacity:1;fill-rule:nonzero;stroke:none"
             d="m 0,0 c 0.782,0.043 1.585,-0.047 2.366,0 0.364,-1.913 1.745,-1.642 -0.788,-2.999 -9.562,-0.676 -36.362,-3.522 -43.78,-2.399 -3.139,0.475 -3.437,1.932 -5.127,2.999 -0.374,2.066 0.77,1.705 0.788,1.799 C -30.991,-0.696 -15.538,-0.851 0,0" /></g><g
           transform="translate(1171.4489,430.079)"
           id="g140"><path
             id="path142"
             style="fill:#c7693c;fill-opacity:1;fill-rule:nonzero;stroke:none"
             d="m 0,0 c 0.144,-2.989 -0.199,-6.013 0,-8.997 -16.699,-7.938 -31.409,-17.818 -48.118,-25.792 v 32.69 c 2.34,1.706 4.439,-0.869 4.733,-0.9 -0.789,-0.15 -0.789,-0.15 -1.578,-0.3 0.658,-6.598 11.703,0.16 18.932,0.3 1.727,0.033 21.267,-2.711 9.466,0 C -11.372,-1.171 -5.679,-0.276 0,0" /></g><g
           transform="translate(919.8137,493.6598)"
           id="g144"><path
             id="path146"
             style="fill:#c7693c;fill-opacity:1;fill-rule:nonzero;stroke:none"
             d="m 0,0 c -0.757,-49.784 2.494,-99.828 -5.522,-149.355 -15.538,-0.851 -30.991,-0.696 -46.54,-0.6 2.162,11.264 6.804,49.499 6.31,58.783 -0.059,1.12 1.543,0.106 -0.789,2.999 3.147,30.42 12.558,61.826 0.789,91.772 C -38.958,2.271 -8.599,0.343 0,0" /></g><g
           transform="translate(1101.2434,507.4556)"
           id="g148"><path
             id="path150"
             style="fill:#a4552c;fill-opacity:1;fill-rule:nonzero;stroke:none"
             d="m 0,0 c 2.761,-29.391 2.761,-29.391 5.522,-58.782 -4.271,-4.103 -4.656,-6.069 0,-10.197 -0.395,-25.043 -0.395,-25.043 -0.789,-50.085 1.198,-1.751 11.714,4.206 17.354,6.898 16.71,7.975 31.42,17.855 48.118,25.792 0.04,-0.595 -0.079,-1.21 0,-1.799 -1.161,0.065 -0.765,-1.1 -0.788,-2.4 -42.729,-28.081 -94.324,-48.254 -149.088,-58.782 21.844,9.824 47.361,14.648 69.416,23.993 2.599,1.101 7.266,1.88 7.889,3.299 C 0.96,-114.485 -6.557,-18.616 -8.677,-1.2 -4.729,-0.442 -1.023,-0.217 0,0" /></g><g
           transform="translate(1092.5664,506.256)"
           id="g152"><path
             id="path154"
             style="fill:#c7693c;fill-opacity:1;fill-rule:nonzero;stroke:none"
             d="m 0,0 c 2.12,-17.416 9.637,-113.285 6.311,-120.863 -0.623,-1.419 -5.29,-2.198 -7.889,-3.299 -0.491,26.144 -0.883,52.487 -3.155,78.576 -0.112,1.292 -0.748,1.352 -0.789,1.799 -1.264,14.001 -2.804,28.029 -4.733,41.988 C -6.819,-1.215 -3.416,-0.656 0,0" /></g><g
           transform="translate(874.0619,497.2587)"
           id="g156"><path
             id="path158"
             style="fill:#e1773e;fill-opacity:1;fill-rule:nonzero;stroke:none"
             d="m 0,0 c 11.769,-29.946 2.358,-61.352 -0.789,-91.772 -0.325,0.402 -4.637,2.827 -5.522,3.599 -1.718,1.499 -7.899,5.463 -7.099,7.497 0.604,1.536 22.085,6.516 4.733,6.298 1.883,0.574 4.217,0.593 4.733,1.5 C -1.43,-68.456 -6.012,-9.875 -4.733,1.2 -3.857,0.753 -1.33,0.26 0,0" /></g><g
           transform="translate(1071.2681,462.4692)"
           id="g160"><path
             id="path162"
             style="fill:#72d1dc;fill-opacity:1;fill-rule:nonzero;stroke:none"
             d="m 0,0 c 1.014,-0.409 12.397,0.298 15.776,0 0.041,-0.447 0.677,-0.508 0.789,-1.799 -2.28,-0.43 -17.061,-5.602 -17.354,-6.299 -0.526,-1.254 9.529,-27.367 -7.494,-3.898 -3.724,0.045 -25.636,-8.046 -26.425,-4.499 1.928,1.952 11.25,9.001 11.043,10.797 -0.25,2.175 -15.015,12.584 -11.438,12.896 21.965,-6.886 16.922,-2.249 31.159,4.199 C 2.949,14.253 -4.113,1.659 0,0" /></g><g
           transform="translate(1082.3116,504.4565)"
           id="g164"><path
             id="path166"
             style="fill:#c7693c;fill-opacity:1;fill-rule:nonzero;stroke:none"
             d="m 0,0 c 1.929,-13.959 3.469,-27.987 4.733,-41.987 -3.379,0.298 -14.763,-0.409 -15.777,0 -0.365,8.737 5.762,15.792 -3.944,11.396 -14.236,-6.447 -9.194,-11.084 -31.158,-4.198 -3.578,-0.313 11.187,-10.722 11.438,-12.897 0.207,-1.796 -9.116,-8.844 -11.044,-10.796 0.789,-3.547 22.701,4.544 26.426,4.498 17.023,-23.469 6.967,2.645 7.494,3.899 0.292,0.697 15.073,5.869 17.354,6.298 2.271,-26.089 2.664,-52.432 3.155,-78.576 -22.055,-9.345 -47.572,-14.168 -69.417,-23.993 -2.685,-0.516 -7.155,-2.087 -12.621,-2.999 -0.404,-0.067 -6.338,0.306 -8.282,0 -25.514,-4.016 -58.447,-9.244 -84.01,-10.797 -0.781,-0.047 -1.584,0.043 -2.367,0 8.016,49.527 4.766,99.571 5.522,149.355 C -110.774,-12.862 -50.609,-8.606 0,0" /></g><g
           transform="translate(954.1276,451.6725)"
           id="g168"><path
             id="path170"
             style="fill:#f6a52a;fill-opacity:1;fill-rule:nonzero;stroke:none"
             d="m 0,0 c 11.201,-13.63 16.263,-6.32 32.736,-11.097 -15.485,-8.672 -24.442,0.609 -10.254,-15.595 -4.02,-6.854 -14.372,2.4 -19.327,2.099 -1.707,-0.103 -24.711,-12.149 -29.975,-12.596 -2.322,1.277 8.934,16.485 8.283,17.695 -0.303,0.562 -13.787,5.29 -13.41,6.598 C -14.404,-8.715 -9.456,-14.331 0,0" /></g><g
           transform="translate(1019.9944,418.0826)"
           id="g172"><path
             id="path174"
             style="fill:#72d1dc;fill-opacity:1;fill-rule:nonzero;stroke:none"
             d="m 0,0 c 12.987,-2.239 -12.469,-11.112 -12.621,-13.496 -0.029,-0.444 5.265,-6.63 6.31,-7.498 0.09,-0.173 -0.087,-0.425 0,-0.599 -7.55,-0.371 -15.798,3.717 -20.509,2.999 -3.143,-0.48 -1.924,-2.86 -11.044,-1.8 3.34,6.369 4.485,5.671 -3.944,15.296 20.971,-1.561 9.384,7.668 13.016,9.897 0.768,0.471 10.985,-9.98 11.832,-10.197 C -13.431,-6.303 -3.412,-1.292 0,0" /></g><g
           transform="translate(1013.6839,396.4892)"
           id="g176"><path
             id="path178"
             style="fill:#0d97ad;fill-opacity:1;fill-rule:nonzero;stroke:none"
             d="M 0,0 C 1.572,-3.131 7.651,-6.326 2.761,-7.798 -1.236,-7.054 -17.542,1.43 -19.326,1.2 -20.832,1.005 -32.281,-8.941 -34.708,-8.997 c 7.099,5.998 7.099,5.998 14.199,11.996 C -15.798,3.718 -7.551,-0.371 0,0" /></g><g
           transform="translate(993.1744,399.4883)"
           id="g180"><path
             id="path182"
             style="fill:#16b4d1;fill-opacity:1;fill-rule:nonzero;stroke:none"
             d="m 0,0 c -7.099,-5.998 -7.099,-5.998 -14.199,-11.996 -6.673,-0.345 1.436,6.918 3.155,10.197 C -1.924,-2.859 -3.143,-0.479 0,0" /></g><g
           transform="translate(1013.6839,397.089)"
           id="g184"><path
             id="path186"
             style="fill:#457478;fill-opacity:1;fill-rule:nonzero;stroke:none"
             d="m 0,0 c -1.045,0.867 -6.339,7.053 -6.311,7.498 0.152,2.384 25.609,11.257 12.622,13.496 0.848,0.321 3.662,2.907 4.733,1.499 C 14.799,14.425 -2.269,9.243 -3.155,7.498 -3.915,6.002 -0.886,1.721 0,0" /></g><g
           transform="translate(1071.2681,462.4692)"
           id="g188"><path
             id="path190"
             style="fill:#50715f;fill-opacity:1;fill-rule:nonzero;stroke:none"
             d="M 0,0 C -4.113,1.659 2.949,14.253 -3.944,11.397 5.761,15.792 -0.365,8.738 0,0" /></g><g
           transform="translate(865.3848,422.8812)"
           id="g192"><path
             id="path194"
             style="fill:#72d1dc;fill-opacity:1;fill-rule:nonzero;stroke:none"
             d="m 0,0 c 17.352,0.218 -4.129,-4.762 -4.733,-6.298 -0.8,-2.034 5.381,-5.999 7.1,-7.498 -1.381,-1.199 -1.381,-1.199 -2.761,-2.399 l -31.948,-10.197 -2.366,0.9 c 13.552,19.084 -8.936,13.773 -5.522,22.793 19.184,1.99 15.836,-5.53 23.27,9.297 C -12.646,6.827 -14.734,-4.488 0,0" /></g><g
           transform="translate(873.273,405.4865)"
           id="g196"><path
             id="path198"
             style="fill:#0d97ad;fill-opacity:1;fill-rule:nonzero;stroke:none"
             d="m 0,0 c 2.332,-2.893 0.729,-1.879 0.789,-2.999 -23.901,0.114 -17.918,-0.584 -26.426,-10.797 -8.115,1.612 5.975,9.713 -14.593,4.799 L -8.283,1.2 c 1.381,1.199 1.381,1.199 2.761,2.399 C -4.638,2.828 -0.325,0.403 0,0" /></g><g
           transform="translate(1115.4423,434.2778)"
           id="g200"><path
             id="path202"
             style="fill:#c7693c;fill-opacity:1;fill-rule:nonzero;stroke:none"
             d="m 0,0 c 14.3,-6.995 27.878,-8.828 12.621,-7.198 -0.294,0.032 -2.393,2.606 -4.733,0.9 v -32.69 c -5.64,-2.692 -16.156,-8.649 -17.354,-6.898 0.395,25.042 0.395,25.042 0.789,50.085 C -6.688,2.435 -2.495,1.221 0,0" /></g><g
           transform="translate(866.9625,501.4575)"
           id="g204"><path
             id="path206"
             style="fill:#de7d30;fill-opacity:1;fill-rule:nonzero;stroke:none"
             d="m 0,0 c -0.075,-3.291 2.175,-2.902 2.366,-2.999 -1.278,-11.075 3.303,-69.656 0.789,-74.078 -0.515,-0.907 -2.849,-0.926 -4.733,-1.499 -14.733,-4.489 -12.646,6.827 -16.959,6.598 -7.434,-14.827 -4.087,-7.307 -23.271,-9.297 -3.414,-9.02 19.074,-3.709 5.522,-22.794 l 2.367,-0.899 c 20.567,4.914 6.478,-3.187 14.593,-4.799 8.507,10.212 2.525,10.911 26.425,10.797 0.494,-9.283 -4.148,-47.519 -6.31,-58.782 -0.018,-0.094 -1.163,0.266 -0.789,-1.8 -4.125,2.603 -11.271,10.446 -14.199,14.396 -45.516,58.336 -85.393,120.54 -101.758,187.743 32.743,-9.642 62.879,-23.545 95.053,-34.19 C -14.557,4.587 -7.844,1.661 0,0" /></g><g
           transform="translate(836.1982,503.2569)"
           id="g208"><path
             id="path210"
             style="fill:#0d97ad;fill-opacity:1;fill-rule:nonzero;stroke:none"
             d="m 0,0 c -0.503,2.153 -6.148,7.465 -8.677,7.198 0.133,0.042 -0.367,0.889 2.761,0.6 C 17.797,-3.222 17.019,1.986 0,0" /></g><g
           transform="translate(827.5212,510.4547)"
           id="g212"><path
             id="path214"
             style="fill:#72d1dc;fill-opacity:1;fill-rule:nonzero;stroke:none"
             d="M 0,0 C 2.529,0.267 8.174,-5.045 8.677,-7.198 5.378,-7.583 2.923,-8.36 0,-9.597 c -0.644,-0.273 -0.445,0.172 -2.366,-1.2 -0.807,-0.575 -3.692,-2.003 -3.945,-2.699 -0.581,-1.598 0.259,-14.704 2.367,-17.095 -1.596,-1.965 -1.445,-0.59 -3.155,-1.799 -0.779,2.318 -3.766,13.844 -4.733,14.695 -1.859,1.635 -4.164,0.594 -4.733,0.9 -2.187,1.176 -2.757,1.785 -3.944,3.599 5.754,7.457 -12.799,14.663 1.972,16.195 C -4.379,-10.707 -6.518,-2.049 0,0" /></g><g
           transform="translate(827.5212,500.8576)"
           id="g216"><path
             id="path218"
             style="fill:#40817f;fill-opacity:1;fill-rule:nonzero;stroke:none"
             d="m 0,0 c -0.698,-10.04 1.455,-25.822 -7.099,-22.793 1.71,1.209 1.559,-0.166 3.155,1.799 4.97,6.122 -1.215,12.882 1.578,19.794 C -0.445,0.172 -0.644,-0.273 0,0" /></g><g
           transform="translate(810.9559,493.6598)"
           id="g220"><path
             id="path222"
             style="fill:#16b4d1;fill-opacity:1;fill-rule:nonzero;stroke:none"
             d="m 0,0 c -6.705,-2.249 -6.705,-2.249 -13.41,-4.499 -1.417,1.897 8.347,6.648 9.466,8.098 C -2.757,1.785 -2.187,1.176 0,0" /></g><g
           transform="translate(823.5771,479.864)"
           id="g224"><path
             id="path226"
             style="fill:#0d97ad;fill-opacity:1;fill-rule:nonzero;stroke:none"
             d="m 0,0 c -2.108,2.39 -2.948,15.497 -2.367,17.095 0.253,0.695 3.138,2.124 3.945,2.699 C -1.215,12.881 4.97,6.122 0,0" /></g><g
           transform="translate(840.9312,728.7887)"
           id="g228"><path
             id="path230"
             style="fill:#f6a52a;fill-opacity:1;fill-rule:nonzero;stroke:none"
             d="m 0,0 c -3.844,-7.981 -13.595,-15.077 -18.932,-23.093 -23.463,-35.242 -17.832,-73.372 1.578,-108.567 0.034,-0.062 -1.162,-0.537 -0.789,-1.2 4.057,-7.202 21.922,-30.097 28.398,-36.889 3.549,-4.648 3.549,-4.648 7.099,-9.297 -1.525,-2.053 -34.111,11.588 -37.075,14.096 -2.951,2.497 -26.034,41.909 -28.397,47.386 -0.406,0.941 -1.218,2.06 -1.578,2.999 -1.356,3.537 -2.283,8.845 -3.155,12.596 -1.589,6.831 -2.939,13.443 -3.156,20.394 -0.475,15.266 1.822,25.765 7.889,40.188 C -39.452,-26.779 -16.497,-10.712 0,0" /></g><g
           transform="translate(1203.7906,584.8322)"
           id="g232"><path
             id="path234"
             style="fill:#f6a52a;fill-opacity:1;fill-rule:nonzero;stroke:none"
             d="m 0,0 c -4.734,-8.589 -25.111,-48.565 -29.975,-52.184 -1.653,-1.23 -36.226,-15.373 -40.625,-16.795 -6.345,-2.052 -25.228,-6.976 -31.947,-8.398 -1.024,-0.216 -4.73,-0.441 -8.677,-1.199 -3.416,-0.656 -6.819,-1.215 -10.255,-1.8 -50.609,-8.606 -110.774,-12.861 -162.498,-10.796 -8.599,0.343 -38.958,2.271 -45.752,3.599 -1.329,0.259 -3.857,0.753 -4.733,1.199 -0.191,0.097 -2.441,-0.292 -2.366,2.999 v 44.387 c 15.205,-6.681 66.98,-16.503 85.587,-17.395 C -146.215,-55.706 -84.626,-51.117 0,0" /></g><g
           transform="translate(1097.2993,653.8114)"
           id="g236"><path
             id="path238"
             style="fill:#f6a52a;fill-opacity:1;fill-rule:nonzero;stroke:none"
             d="m 0,0 c 7.585,-4.255 27.568,-16.496 33.919,-18.594 17.362,-11.465 36.58,-21.502 53.246,-33.59 5.485,-3.978 20.088,-14.385 19.326,-16.795 -84.626,-51.118 -146.214,-55.706 -251.24,-56.383 -18.607,0.892 -70.383,10.714 -85.588,17.395 -7.021,3.084 -11.051,8.239 -15.776,13.196 -6.476,6.791 -24.341,29.687 -28.398,36.888 -0.373,0.663 0.823,1.138 0.789,1.2 -19.41,35.196 -25.041,73.325 -1.578,108.567 5.337,8.016 15.088,15.113 18.932,23.093 2.731,1.774 5.743,3.538 7.494,5.999 32.892,-5.765 65.379,-12.234 94.659,-21.594 35.147,-8.031 67.957,-22.496 100.969,-34.789 C -36.286,15.467 -17.455,8.506 0,0" /></g><g
           transform="translate(1079.1564,571.6362)"
           id="g240"><path
             id="path242"
             style="fill:#75442f;fill-opacity:1;fill-rule:nonzero;stroke:none"
             d="m 0,0 c 0.97,-1.075 0.952,-2.319 3.944,-2.399 -0.197,-0.273 3.028,-1.729 -3.155,-4.799 -1.629,-0.809 -32.828,-8.221 -37.075,-8.997 -2.45,1.509 -5.947,-0.829 -9.071,0.6 -1.068,0.488 0.98,2.96 -2.761,2.399 v 1.2 c 2.821,-0.116 7.734,-0.313 10.254,0.599 0.56,0.203 0.976,0.517 1.578,0.6 1.079,-1.781 2.928,-1.329 4.339,-2.999 9.875,2.348 5.863,2.147 7.493,4.199 0.15,-2.255 1.146,-1.482 3.156,-1.2 5.804,0.814 2.341,0.596 5.522,3.599 C -7.888,-3.599 -7.888,-3.599 0,0" /></g><g
           transform="translate(1051.5475,591.4302)"
           id="g244"><path
             id="path246"
             style="fill:#4c4b4d;fill-opacity:1;fill-rule:nonzero;stroke:none"
             d="m 0,0 c 1.75,-4.428 -0.177,-21.124 7.099,-22.193 -0.044,-1.351 -0.687,-3.049 -1.577,-4.199 -0.067,-0.087 -1.622,0.253 -2.367,-0.9 -0.272,-0.421 0.267,-1.763 0,-2.099 -1.631,-2.052 2.382,-1.851 -7.494,-4.199 -1.41,1.67 -3.259,1.218 -4.338,2.999 -1.274,2.103 -1.39,13.422 -10.255,22.194 C -12.785,-4.786 -8.21,-1.314 0,0" /></g><g
           transform="translate(1041.2927,560.2397)"
           id="g248"><path
             id="path250"
             style="fill:#4c4b4d;fill-opacity:1;fill-rule:nonzero;stroke:none"
             d="m 0,0 c -2.52,-0.912 -7.433,-0.715 -10.255,-0.6 -23.64,0.965 -19.186,3.434 -10.254,13.796 5.529,-8.529 17.393,3.916 6.31,6.598 1.128,0.855 1.876,1.58 3.155,2.399 C -5.151,13.244 -14.189,7.375 0,0" /></g><g
           transform="translate(1053.9139,592.0301)"
           id="g252"><path
             id="path254"
             style="fill:#fefdfd;fill-opacity:1;fill-rule:nonzero;stroke:none"
             d="m 0,0 c 1.475,-18.605 5.051,-12.325 7.099,-13.196 8.02,-3.409 5.36,-10.733 -2.366,-9.597 -7.277,1.07 -5.349,17.765 -7.099,22.193 0.122,0.02 -0.74,0.516 2.366,0.6" /></g><g
           transform="translate(1032.6157,583.0328)"
           id="g256"><path
             id="path258"
             style="fill:#fefdfd;fill-opacity:1;fill-rule:nonzero;stroke:none"
             d="M 0,0 C 8.865,-8.771 8.98,-20.09 10.255,-22.193 9.653,-22.276 9.236,-22.591 8.677,-22.793 -5.512,-15.418 3.526,-9.549 -2.367,-0.6 -1.331,0.064 -0.099,-0.058 0,0" /></g><g
           transform="translate(1073.6345,573.4357)"
           id="g260"><path
             id="path262"
             style="fill:#594842;fill-opacity:1;fill-rule:nonzero;stroke:none"
             d="m 0,0 c -4.043,-1.206 -7.804,-6.684 -10.255,-8.997 -3.181,-3.003 0.283,-2.785 -5.521,-3.599 l -0.789,4.199 c 0.89,1.149 1.533,2.847 1.577,4.198 7.727,-1.136 10.386,6.188 2.367,9.597 1.061,1.804 0.563,3.566 0.789,5.399 C -9.346,6.371 -4.85,3.016 0,0" /></g><g
           transform="translate(1061.8022,584.2324)"
           id="g264"><path
             id="path266"
             style="fill:#4e626e;fill-opacity:1;fill-rule:nonzero;stroke:none"
             d="m 0,0 c -0.226,-1.833 0.272,-3.594 -0.789,-5.398 -2.048,0.87 -5.625,-5.41 -7.099,13.196 C 1.634,8.055 0.696,5.65 0,0" /></g><g
           transform="translate(1020.7833,573.4357)"
           id="g268"><path
             id="path270"
             style="fill:#fefdfd;fill-opacity:1;fill-rule:nonzero;stroke:none"
             d="M 0,0 C 0.379,0.439 -2.152,0.186 6.311,6.598 17.394,3.916 5.529,-8.529 0,0" /></g><g
           transform="translate(1079.1564,571.6362)"
           id="g272"><path
             id="path274"
             style="fill:#457478;fill-opacity:1;fill-rule:nonzero;stroke:none"
             d="m 0,0 c -7.888,-3.599 -7.888,-3.599 -15.776,-7.198 2.45,2.313 6.212,7.791 10.254,8.997 C 2.284,4.128 -0.237,0.262 0,0" /></g><g
           transform="translate(1057.0692,565.0382)"
           id="g276"><path
             id="path278"
             style="fill:#e0e7ea;fill-opacity:1;fill-rule:nonzero;stroke:none"
             d="m 0,0 0.789,-4.199 c -2.01,-0.282 -3.006,-1.055 -3.155,1.2 0.266,0.336 -0.273,1.678 0,2.099 C -1.622,0.253 -0.067,-0.087 0,0" /></g><g
           transform="translate(1131.2188,635.217)"
           id="g280"><path
             id="path282"
             style="fill:#16b4d1;fill-opacity:1;fill-rule:nonzero;stroke:none"
             d="M 0,0 C -6.351,2.098 -26.334,14.339 -33.919,18.594 -22.266,12.916 -9.847,7.512 0,0" /></g><g
           transform="translate(1041.2927,555.4411)"
           id="g284"><path
             id="path286"
             style="fill:#f6a52a;fill-opacity:1;fill-rule:nonzero;stroke:none"
             d="m 0,0 c 0.46,0.082 1.121,-0.083 1.578,0 4.246,0.776 35.445,8.188 37.074,8.997 25.739,3.383 48.89,16.437 72.178,25.792 -80.852,57.555 -179.765,102.4 -288.316,121.764 0.117,0.206 -1.147,3.719 0,4.498 2.904,1.971 35.371,-6.601 41.414,-6.898 L -5.916,109.167 C 44.096,88.078 89.014,61.307 132.523,33.29 113.021,24.74 56.873,2.81 37.469,2.399 26.541,2.168 28.525,4.188 28.003,4.199 24.583,4.271 4.414,-3.432 0,0" /></g><g
           transform="translate(909.559,545.2442)"
           id="g288"><path
             id="path290"
             style="fill:#f6a52a;fill-opacity:1;fill-rule:nonzero;stroke:none"
             d="m 0,0 c -7.493,-1.995 -1.051,-9.525 -18.143,3.899 -36.807,28.908 -40.576,50.128 -50.485,88.173 1.464,9.571 5.878,3.784 7.1,9.297 C -55.613,64.767 -27.107,29.881 0,0" /></g><g
           transform="translate(1079.9452,564.4384)"
           id="g292"><path
             id="path294"
             style="fill:#a4552c;fill-opacity:1;fill-rule:nonzero;stroke:none"
             d="m 0,0 c 6.183,3.07 2.958,4.526 3.155,4.799 1.596,2.203 51.827,19.814 58.373,23.692 -83.741,50.943 -167.892,91.601 -272.539,113.066 -6.509,-0.067 -10.824,-23.635 -11.438,-28.191 -0.079,-0.591 0.069,-1.207 0,-1.8 -0.297,-2.572 -0.682,-5.22 -0.788,-7.797 -0.115,-2.778 -0.08,-5.619 0,-8.398 0.017,-0.599 -0.029,-1.201 0,-1.799 0.197,-4.184 0.865,-8.445 1.577,-12.596 0.382,-2.224 1.024,-4.4 1.578,-6.598 0.563,-2.235 0.845,-4.353 1.577,-6.599 1.332,-4.08 2.751,-5.611 3.156,-6.597 0.573,-1.399 0.968,-2.791 1.577,-4.199 0.896,-2.07 2.15,-3.956 3.156,-5.998 1.703,-3.457 3.531,-6.832 5.522,-10.197 6.17,-10.432 12.692,-17.87 20.509,-27.592 1.553,-1.932 2.341,-4.416 4.733,-5.998 0.633,-2.324 1.819,-3.941 3.155,-5.998 0.92,-1.417 9.743,-12.304 10.649,-12.597 1.217,-0.392 22.514,0.004 26.426,0 8.915,-0.007 17.926,0.194 26.82,0.6 6.858,0.314 13.682,1.405 20.509,1.8 5.197,0.3 10.62,1.484 15.777,1.799 5.629,0.344 17.492,-0.49 27.609,1.2 3.741,0.561 1.693,-1.911 2.761,-2.399 3.125,-1.43 6.621,0.909 9.071,-0.6 -0.457,-0.084 -1.118,0.082 -1.577,0 -47.093,-8.394 -125.463,-8.528 -131.734,-10.197 -27.108,29.881 -55.614,64.767 -61.529,101.369 -2.901,17.955 -2.477,36.076 6.311,53.084 2.293,4.439 8.793,11.108 9.466,12.296 C -107.588,128.192 -8.675,83.346 72.177,25.792 48.89,16.436 25.738,3.383 0,0" /></g><g
           transform="translate(1083.1005,569.2369)"
           id="g296"><path
             id="path298"
             style="fill:#c7693c;fill-opacity:1;fill-rule:nonzero;stroke:none"
             d="m 0,0 c -2.992,0.08 -2.974,1.325 -3.944,2.399 -0.237,0.263 2.284,4.129 -5.522,1.8 -4.85,3.016 -9.346,6.37 -11.832,10.796 0.696,5.65 1.634,8.055 -7.889,7.798 -3.106,-0.084 -2.244,-0.58 -2.366,-0.6 -8.21,-1.314 -12.785,-4.786 -18.932,-8.397 -0.098,-0.058 -1.331,0.063 -2.366,-0.6 -1.28,-0.82 -2.028,-1.545 -3.156,-2.399 -8.462,-6.412 -5.931,-6.159 -6.31,-6.598 -8.932,-10.362 -13.385,-12.831 10.254,-13.796 v -1.2 c -10.116,-1.69 -21.979,-0.855 -27.608,-1.199 -3.048,2.184 -11.43,4.883 -16.566,6.598 -8.286,2.766 -13.027,6.895 -23.664,4.198 7.29,9.474 14.536,10.431 22.087,11.997 0.957,0.198 1.596,0.434 2.366,0.6 0.272,0.058 4.634,-0.631 5.522,0.899 0.895,1.542 -1.209,14.42 0.789,17.095 0.055,0.074 1.47,1.176 1.577,1.2 0.7,0.155 -0.705,-1.278 14.199,1.199 1.148,0.191 2.83,0.257 4.733,0.6 1.258,0.227 4.839,-0.415 5.522,0.3 0.72,3.09 -2.047,5.439 -3.155,8.098 10.609,1.697 7.823,7.152 0,10.197 -5.829,2.268 -6.877,1.466 -12.622,2.399 -3.925,0.637 -11.394,3.433 -12.621,2.099 -1.312,-8.147 1.84,-12.16 3.156,-17.694 -1.578,1.499 -1.578,1.499 -3.156,2.999 -0.033,0.091 -0.116,-0.242 -0.789,1.799 0.168,3.657 -0.355,10.226 -2.366,12.596 -1.489,1.756 -13.088,8.819 -15.776,11.397 0.573,1.28 -1.424,3.627 3.944,7.198 -8.84,6.024 -16.869,2.723 -17.749,2.999 -0.889,0.279 3.128,6.29 -2.761,11.396 -0.644,0.559 -0.603,0.719 -1.577,1.2 -1.846,0.911 -2.675,0.958 -4.733,1.2 -1.15,0.135 -3.556,1.585 -8.677,-0.6 -0.343,11.934 -0.474,15.646 -16.566,10.797 -10.009,-3.017 -1.997,3.484 -11.438,10.796 -4.41,1.014 -4.856,-1.091 -5.127,-1.199 -1.781,-0.715 -3.148,-2.125 -5.522,-1.8 0.604,10.73 -6.624,6.39 -10.255,5.399 -0.092,-0.026 0.356,1.648 -1.183,1.199 -3.503,-1.021 -2.395,-5.355 -4.338,-4.798 -2.785,8.384 -13.064,6.782 -12.622,1.199 -2.038,-2.716 -3.678,1.015 -7.099,-0.3 4.857,-2.056 1.797,-2.269 2.366,-3.299 -4.064,1.833 -7.429,2.788 -11.832,0.6 0.613,4.556 4.929,28.125 11.438,28.192 C -109.52,115.294 -25.368,74.635 58.373,23.693 51.827,19.814 1.596,2.204 0,0" /></g><g
           transform="translate(921.3914,566.8377)"
           id="g300"><path
             id="path302"
             style="fill:#ed7378;fill-opacity:1;fill-rule:nonzero;stroke:none"
             d="m 0,0 c 17.794,-8.605 6.559,2.844 27.609,-2.399 l 4.733,-4.199 c -5.251,-3.709 -6.351,-4.652 -13.41,-7.198 -3.912,0.003 -25.21,-0.392 -26.426,0 -0.906,0.293 -9.729,11.179 -10.649,12.596 1.334,-0.268 3.114,2.236 4.733,4.199 2.213,2.683 3.045,2.827 3.155,2.999 C -7.142,3.463 -3.825,1.85 0,0" /></g><g
           transform="translate(986.8638,563.8386)"
           id="g304"><path
             id="path306"
             style="fill:#ed7378;fill-opacity:1;fill-rule:nonzero;stroke:none"
             d="m 0,0 0.789,-8.397 c -6.828,-0.395 -13.652,-1.486 -20.51,-1.8 -2.732,2.688 -6.377,8.342 -6.31,11.397 0.004,0.198 -0.027,0.404 0,0.599 0.009,0.067 0.075,-0.15 0.789,1.2 0.041,0.079 0.727,0.095 1.577,1.2 C -13.027,6.895 -8.287,2.767 0,0" /></g><g
           transform="translate(967.1432,553.6417)"
           id="g308"><path
             id="path310"
             style="fill:#e1773e;fill-opacity:1;fill-rule:nonzero;stroke:none"
             d="m 0,0 c -8.894,-0.407 -17.905,-0.607 -26.82,-0.6 7.059,2.546 8.159,3.489 13.41,7.198 2.213,1.563 1.477,1.723 1.578,1.799 0.24,0.182 1.366,-0.099 5.521,3 C -6.377,8.342 -2.733,2.688 0,0" /></g><g
           transform="translate(1003.4291,557.2406)"
           id="g312"><path
             id="path314"
             style="fill:#f6a52a;fill-opacity:1;fill-rule:nonzero;stroke:none"
             d="m 0,0 c -5.157,-0.315 -10.58,-1.499 -15.776,-1.799 l -0.789,8.397 C -11.43,4.883 -3.047,2.184 0,0" /></g><g
           transform="translate(892.2048,683.2025)"
           id="g316"><path
             id="path318"
             style="fill:#f4b50f;fill-opacity:1;fill-rule:nonzero;stroke:none"
             d="m 0,0 c -1.033,-4.204 0.421,-8.354 0,-12.596 -0.642,-6.473 -3.089,-13.873 -6.705,-19.794 8.093,3.687 11.113,9.678 13.804,16.195 1.353,3.274 2.965,7.402 3.156,10.797 2.374,-0.326 3.741,1.084 5.521,1.799 -2.958,-10.497 -2.958,-10.497 -5.916,-20.994 18.045,11.886 19.846,0.87 22.482,11.397 16.092,4.849 16.223,1.137 16.565,-10.797 -0.162,-0.069 0.34,-1.316 -1.972,-2.399 -4.283,-2.006 -16.788,-7.685 -19.326,-9.597 -0.467,1.631 0.798,2.517 0.789,3.599 29.833,13.671 19.924,33.763 0,0.6 -0.114,1 -2.264,4.732 -2.367,5.398 -0.266,1.721 1.924,4.603 0.395,4.798 -28.041,-6.841 -34.959,-21.502 -39.047,-24.892 -2.817,-2.336 -2.496,-0.67 -3.155,-0.9 -0.324,-0.112 -1.213,0.111 -1.578,0 -2.862,4.235 -10.201,0.669 -14.988,2.999 -0.554,2.198 -1.196,4.375 -1.577,6.598 7.691,-3.599 7.691,-3.599 15.382,-7.197 7.161,4.019 -9.815,4.061 -1.972,6.897 -10.322,5.38 -1.856,6.947 -6.311,13.196 -1.578,-0.149 -1.578,-0.149 -3.155,-0.299 -0.15,0.1 -2.091,1.083 -2.367,1.199 3.853,-0.203 4.216,-0.325 3.155,2.699 -7.361,5.685 -2.719,3.061 -3.155,4.199 -0.272,0.711 -1.687,2.429 -3.155,2.1 0.106,2.577 0.491,5.225 0.789,7.797 5.223,-0.413 6.567,-14.758 9.466,-4.498 h 2.366 c 2.588,-6.593 -8.389,1.189 1.972,-12.897 5.292,10.584 0.253,14.573 -1.972,18.595 -0.57,1.03 2.491,1.243 -2.366,3.299 3.42,1.314 5.06,-2.417 7.099,0.3 0.327,-4.131 8.796,-2.662 3.944,-18.595 -1.063,-3.491 -7.888,-12.664 -6.31,-15.895 0.588,-1.204 3.044,-0.213 3.155,-0.3 7.714,-6.029 3.015,-0.809 4.733,1.8 0.358,0.544 3.838,0.742 6.31,10.796 1.097,4.46 2.178,16.814 0.789,20.994 1.943,-0.557 0.836,3.777 4.339,4.799 C 0.355,1.648 -0.093,-0.025 0,0" /></g><g
           transform="translate(858.2853,645.4139)"
           id="g320"><path
             id="path322"
             style="fill:#f6daaf;fill-opacity:1;fill-rule:nonzero;stroke:none"
             d="m 0,0 c -0.712,4.151 -1.381,8.412 -1.578,12.596 3.591,-1.35 13.335,-5.258 5.522,0 1.578,0.15 1.578,0.15 3.155,0.3 C 11.555,6.646 3.089,5.08 13.41,-0.3 5.568,-3.136 22.544,-3.179 15.382,-7.198 7.691,-3.599 7.691,-3.599 0,0" /></g><g
           transform="translate(869.3289,677.2043)"
           id="g324"><path
             id="path326"
             style="fill:#efe7cb;fill-opacity:1;fill-rule:nonzero;stroke:none"
             d="M 0,0 C 2.225,-4.022 7.264,-8.01 1.972,-18.594 -8.389,-4.509 2.588,-12.291 0,-5.698 h -2.366 c -2.899,-10.26 -4.243,4.085 -9.466,4.498 0.068,0.593 -0.08,1.21 0,1.8 C -7.43,2.788 -4.065,1.833 0,0" /></g><g
           transform="translate(874.8507,635.8168)"
           id="g328"><path
             id="path330"
             style="fill:#f0c783;fill-opacity:1;fill-rule:nonzero;stroke:none"
             d="m 0,0 c -4.446,-1.351 -8.88,-2.454 -13.41,-3.599 -0.733,2.245 -1.014,4.363 -1.578,6.598 C -10.201,0.669 -2.862,4.234 0,0" /></g><g
           transform="translate(859.863,659.2098)"
           id="g332"><path
             id="path334"
             style="fill:#f6daaf;fill-opacity:1;fill-rule:nonzero;stroke:none"
             d="m 0,0 c -1.056,0.445 -1.854,0.804 -3.155,0.6 -0.08,2.779 -0.115,5.62 0,8.397 C -1.687,9.327 -0.272,7.609 0,6.898 0.435,5.759 -4.206,8.384 3.155,2.699 4.216,-0.325 3.853,-0.203 0,0" /></g><g
           transform="translate(900.8819,580.6335)"
           id="g336"><path
             id="path338"
             style="fill:#b9eaad;fill-opacity:1;fill-rule:nonzero;stroke:none"
             d="m 0,0 c -0.757,-4.863 -1.867,-5.039 -0.789,-8.997 -2.392,1.582 -3.18,4.066 -4.733,5.998 C -5.462,-0.995 -2.286,0.108 0,0" /></g><g
           transform="translate(859.863,659.2098)"
           id="g340"><path
             id="path342"
             style="fill:#f0c783;fill-opacity:1;fill-rule:nonzero;stroke:none"
             d="m 0,0 c 0.276,-0.116 2.217,-1.099 2.366,-1.2 7.813,-5.258 -1.93,-1.35 -5.521,0 -0.029,0.599 0.017,1.201 0,1.8 C -1.854,0.804 -1.056,0.445 0,0" /></g><g
           transform="translate(988.4415,624.4203)"
           id="g344"><path
             id="path346"
             style="fill:#f6a52a;fill-opacity:1;fill-rule:nonzero;stroke:none"
             d="m 0,0 c -1.299,-4.855 0.978,-8.385 2.366,-12.596 0.673,-2.041 0.756,-1.708 0.789,-1.8 1.06,-2.895 2.312,-4.916 3.156,-7.198 -2.464,-1.865 -8.261,-2.189 -0.789,-4.198 -1.999,-2.676 0.106,-15.553 -0.789,-17.095 -0.888,-1.53 -5.25,-0.841 -5.522,-0.9 -5.127,6.898 -5.127,6.898 -10.255,13.796 l 6.311,2.399 c 4.261,2.315 -3.173,0.181 -8.283,0.6 -13.059,16.126 -3.416,33.863 -3.549,36.289 -0.025,0.451 -1.724,0.046 -1.578,0.9 0.947,-0.373 2.321,1.097 2.367,1.2 C -13.088,8.818 -1.489,1.756 0,0" /></g><g
           transform="translate(924.5466,670.0065)"
           id="g348"><path
             id="path350"
             style="fill:#f6daaf;fill-opacity:1;fill-rule:nonzero;stroke:none"
             d="m 0,0 c -2.636,-10.527 -4.437,0.489 -22.482,-11.397 2.959,10.497 2.959,10.497 5.917,20.994 0.271,0.109 0.717,2.213 5.127,1.2 C -1.997,3.485 -10.009,-3.016 0,0" /></g><g
           transform="translate(1004.218,622.6208)"
           id="g352"><path
             id="path354"
             style="fill:#f6a52a;fill-opacity:1;fill-rule:nonzero;stroke:none"
             d="m 0,0 c -10.621,-4.182 -1.886,-16.491 5.522,-21.593 -14.905,-2.478 -13.499,-1.044 -14.199,-1.2 -1.276,1.207 -0.525,2.285 -0.789,2.999 0.139,0.105 1.343,-0.247 1.578,0.3 0.085,0.199 -1.041,1.64 -1.578,3.899 -1.315,5.535 -4.468,9.547 -3.155,17.694 C -11.395,3.433 -3.926,0.638 0,0" /></g><g
           transform="translate(886.683,679.6036)"
           id="g356"><path
             id="path358"
             style="fill:#f6daaf;fill-opacity:1;fill-rule:nonzero;stroke:none"
             d="m 0,0 c 1.389,-4.18 0.308,-16.534 -0.789,-20.994 -4.37,-0.573 -2.788,3.35 -4.338,5.999 -0.702,-2.336 0.144,-2.664 -3.55,-2.4 C -3.825,-1.462 -12.294,-2.932 -12.621,1.2 -13.064,6.783 -2.785,8.384 0,0" /></g><g
           transform="translate(1016.8392,620.2216)"
           id="g360"><path
             id="path362"
             style="fill:#f1f1ab;fill-opacity:1;fill-rule:nonzero;stroke:none"
             d="m 0,0 c -2.015,-1.52 -1.226,-2.237 -1.578,-3.599 -16.848,5.579 -8.153,-9.433 -0.788,-14.995 -1.904,-0.344 -3.586,-0.409 -4.733,-0.6 -7.409,5.102 -16.143,17.412 -5.522,21.593 C -6.876,1.466 -5.829,2.269 0,0" /></g><g
           transform="translate(1015.2615,616.6226)"
           id="g364"><path
             id="path366"
             style="fill:#f4b50f;fill-opacity:1;fill-rule:nonzero;stroke:none"
             d="M 0,0 C -1.644,-6.373 0.769,-4.657 1.578,-6.598 2.686,-9.257 5.453,-11.606 4.733,-14.696 4.05,-15.411 0.469,-14.768 -0.789,-14.995 -8.154,-9.433 -16.848,5.578 0,0" /></g><g
           transform="translate(949.7891,659.8096)"
           id="g368"><path
             id="path370"
             style="fill:#dbc77d;fill-opacity:1;fill-rule:nonzero;stroke:none"
             d="m 0,0 c 0.05,-1.648 -5.138,-2.115 -10.255,-4.799 -8.993,-4.716 -7.848,-8.091 -10.649,-10.196 -1.724,-1.296 -9.663,-3.198 -10.649,-5.699 -0.551,-1.397 0.529,-5.227 0,-6.898 -0.67,-2.114 -0.758,-1.707 -0.789,-1.799 l -1.577,1.799 c 0.209,1.976 -0.149,4.015 0,5.999 4.279,5.129 12.364,6.124 15.776,11.696 -0.527,1.483 -13.988,-4.738 -14.988,-6.298 0.671,1.174 -1.151,0.354 3.156,3.599 2.538,1.912 15.043,7.591 19.326,9.597 2.312,1.083 1.81,2.33 1.972,2.399 C -3.555,1.585 -1.15,0.135 0,0" /></g><g
           transform="translate(1016.8392,610.0246)"
           id="g372"><path
             id="path374"
             style="fill:#f49436;fill-opacity:1;fill-rule:nonzero;stroke:none"
             d="M 0,0 C -0.809,1.941 -3.222,0.225 -1.578,6.598 -1.226,7.96 -2.015,8.677 0,10.197 7.823,7.152 10.609,1.697 0,0" /></g><g
           transform="translate(956.0997,657.4103)"
           id="g376"><path
             id="path378"
             style="fill:#f0c783;fill-opacity:1;fill-rule:nonzero;stroke:none"
             d="m 0,0 c -3.576,-4.532 -11.029,-8.116 -16.565,-11.996 -6.667,-2.961 -1.673,2.152 5.521,7.797 3.198,1.77 6.671,3.198 9.466,5.399 C -0.603,0.719 -0.644,0.559 0,0" /></g><g
           transform="translate(954.522,658.6099)"
           id="g380"><path
             id="path382"
             style="fill:#f4b50f;fill-opacity:1;fill-rule:nonzero;stroke:none"
             d="m 0,0 c -2.796,-2.201 -6.268,-3.628 -9.466,-5.398 -1.61,-0.892 -8.577,-5.724 -8.677,-3.899 1.578,2.849 1.578,2.849 3.155,5.698 5.117,2.683 10.305,3.151 10.255,4.799 C -2.675,0.958 -1.845,0.911 0,0" /></g><g
           transform="translate(990.8079,611.8241)"
           id="g384"><path
             id="path386"
             style="fill:#f1f1ab;fill-opacity:1;fill-rule:nonzero;stroke:none"
             d="M 0,0 C -1.388,4.211 -3.666,7.741 -2.366,12.596 -0.356,10.225 0.167,3.657 0,0" /></g><g
           transform="translate(995.5409,599.8277)"
           id="g388"><path
             id="path390"
             style="fill:#83361b;fill-opacity:1;fill-rule:nonzero;stroke:none"
             d="M 0,0 C -0.107,-0.024 -1.523,-1.126 -1.578,-1.2 -9.05,0.809 -3.252,1.134 -0.789,2.999 -0.525,2.285 -1.276,1.208 0,0" /></g><g
           transform="translate(994.7521,607.0255)"
           id="g392"><path
             id="path394"
             style="fill:#f1f1ab;fill-opacity:1;fill-rule:nonzero;stroke:none"
             d="M 0,0 C 0.537,-2.259 1.663,-3.699 1.578,-3.899 1.343,-4.446 0.139,-4.094 0,-4.199 -0.844,-1.917 -2.096,0.104 -3.155,2.999 -1.578,1.5 -1.578,1.5 0,0" /></g><g
           transform="translate(903.2484,643.6144)"
           id="g396"><path
             id="path398"
             style="fill:#f6a52a;fill-opacity:1;fill-rule:nonzero;stroke:none"
             d="m 0,0 c -10.483,-9.994 9.996,-6.334 -12.227,-22.793 -3.481,-0.905 -0.114,4.532 1.183,7.798 0.327,0.822 4.376,8.112 3.55,8.397 -5.719,-3.299 -5.719,-3.299 -11.438,-6.598 5.997,9.988 -4.878,-7.592 -11.043,-0.6 C -22.546,-7.972 -10.375,-0.97 0,0" /></g><g
           transform="translate(920.6025,650.8123)"
           id="g400"><path
             id="path402"
             style="fill:#f6daaf;fill-opacity:1;fill-rule:nonzero;stroke:none"
             d="M 0,0 C -0.002,0.198 0.022,0.404 0,0.6 19.924,33.763 29.834,13.671 0,0" /></g><g
           transform="translate(915.8696,638.2161)"
           id="g404"><path
             id="path406"
             style="fill:#7eb8cc;fill-opacity:1;fill-rule:nonzero;stroke:none"
             d="m 0,0 v 2.399 c 0.333,1.199 -0.106,1.433 0.789,2.999 1,1.561 14.46,7.782 14.987,6.298 C 12.364,6.125 4.28,5.129 0,0" /></g><g
           transform="translate(892.2048,628.619)"
           id="g408"><path
             id="path410"
             style="fill:#84c1b0;fill-opacity:1;fill-rule:nonzero;stroke:none"
             d="m 0,0 c -2.307,-2.662 -6.825,-1.052 -10.255,-0.3 0.861,0.689 1.823,1.194 2.367,2.099 C -2.169,5.098 -2.169,5.098 3.55,8.397 4.376,8.113 0.327,0.822 0,0" /></g><g
           transform="translate(920.6025,651.4121)"
           id="g412"><path
             id="path414"
             style="fill:#f6a52a;fill-opacity:1;fill-rule:nonzero;stroke:none"
             d="m 0,0 c 0.022,-0.196 -0.002,-0.402 0,-0.6 0.01,-1.081 -1.256,-1.967 -0.789,-3.599 -4.306,-3.244 -2.484,-2.425 -3.155,-3.599 -0.895,-1.566 -0.455,-1.8 -0.789,-2.999 -1.65,-5.931 -0.864,-10.183 -2.366,-13.496 -1.683,-3.709 -10.074,-9.57 -10.255,-10.197 -0.382,-1.32 12.386,-21.367 11.832,-25.492 0.012,-0.199 -0.006,-0.4 0,-0.6 0.233,-7.089 0.478,-11.099 -3.944,-17.994 -0.111,-0.173 -0.942,-0.316 -3.155,-2.999 -8.225,-2.267 -2.502,16.172 -6.311,18.594 -7.296,5.998 -7.296,5.998 -14.593,11.996 -3.453,-4.34 12.012,-9.252 14.593,-13.795 -0.192,-1.954 -0.486,-4.054 -0.789,-5.999 -2.285,0.108 -5.461,-0.995 -5.521,-2.999 -7.817,9.722 -14.34,17.16 -20.51,27.592 5.35,1.11 -0.725,9.201 -5.522,10.197 -1.006,2.042 -2.259,3.928 -3.155,5.998 8.129,0.347 4.216,3.446 -1.578,4.199 -0.404,0.986 -1.823,2.517 -3.155,6.598 4.531,1.145 8.964,2.248 13.41,3.599 0.365,0.111 1.255,-0.113 1.578,0 -1.573,-3.699 -16.221,-5.802 -3.156,-5.998 6.166,-6.992 17.041,10.587 11.044,0.599 -0.544,-0.905 -1.505,-1.41 -2.366,-2.099 3.429,-0.752 7.948,-2.362 10.254,0.3 -1.297,-3.265 -4.664,-8.702 -1.183,-7.798 22.223,16.46 1.744,12.8 12.227,22.793 2.184,2.083 12.144,5.847 14.988,13.196 C -2.263,4.733 -0.114,1.001 0,0" /></g><g
           transform="translate(907.9813,569.8368)"
           id="g416"><path
             id="path418"
             style="fill:#b9a069;fill-opacity:1;fill-rule:nonzero;stroke:none"
             d="m 0,0 c -1.619,-1.963 -3.399,-4.467 -4.733,-4.199 -1.336,2.058 -2.522,3.674 -3.155,5.998 -1.078,3.959 0.031,4.134 0.789,8.998 0.302,1.945 0.596,4.045 0.788,5.998 0.072,0.724 1.258,0.526 0,1.799 C -2.502,16.172 -8.225,-2.267 0,0" /></g><g
           transform="translate(874.8507,605.2261)"
           id="g420"><path
             id="path422"
             style="fill:#cad68b;fill-opacity:1;fill-rule:nonzero;stroke:none"
             d="M 0,0 C -1.99,3.365 -3.819,6.74 -5.522,10.197 -0.725,9.201 5.35,1.11 0,0" /></g><g
           transform="translate(866.1736,621.4212)"
           id="g424"><path
             id="path426"
             style="fill:#7dbd95;fill-opacity:1;fill-rule:nonzero;stroke:none"
             d="M 0,0 C -0.609,1.409 -1.004,2.8 -1.578,4.199 4.216,3.446 8.129,0.347 0,0" /></g><g
           transform="translate(915.8696,638.2161)"
           id="g428"><path
             id="path430"
             style="fill:#efe7cb;fill-opacity:1;fill-rule:nonzero;stroke:none"
             d="m 0,0 c -0.149,-1.983 0.209,-4.023 0,-5.998 -1.24,-11.713 -9.844,-12.496 -11.044,-15.296 -1.295,-3.026 1.505,-1.358 1.578,-1.499 0.999,-1.926 2.005,-3.536 3.155,-5.399 1.262,-4.779 6.646,-14.291 7.1,-18.294 0.054,-0.477 -1.582,-0.238 -1.578,-0.3 0.554,4.125 -12.214,24.172 -11.832,25.492 0.181,0.627 8.572,6.488 10.255,10.197 1.502,3.313 0.716,7.565 2.366,13.496 z" /></g><g
           transform="translate(901.6707,588.4312)"
           id="g432"><path
             id="path434"
             style="fill:#b7d6b8;fill-opacity:1;fill-rule:nonzero;stroke:none"
             d="M 0,0 C 1.257,-1.273 0.071,-1.076 0,-1.799 -2.582,2.744 -18.046,7.656 -14.593,11.996 -7.297,5.998 -7.297,5.998 0,0" /></g><g
           transform="translate(884.711,618.4221)"
           id="g436"><path
             id="path438"
             style="fill:#72d1dc;fill-opacity:1;fill-rule:nonzero;stroke:none"
             d="M 0,0 C 0.986,-0.15 0.986,-0.15 1.972,-0.3 1.037,-9.764 -6.532,0.083 0,0" /></g><g
           transform="translate(885.8942,658.6099)"
           id="g440"><path
             id="path442"
             style="fill:#f0c783;fill-opacity:1;fill-rule:nonzero;stroke:none"
             d="m 0,0 c -2.473,-10.054 -5.952,-10.253 -6.311,-10.797 -3.91,2.438 -2.203,0.587 -4.733,-1.799 -0.11,0.086 -2.567,-0.905 -3.155,0.3 -1.577,3.231 5.248,12.403 6.311,15.895 3.694,-0.264 2.848,0.064 3.549,2.399 C -2.788,3.35 -4.371,-0.573 0,0" /></g><g
           transform="translate(899.3043,667.0074)"
           id="g444"><path
             id="path446"
             style="fill:#f6daaf;fill-opacity:1;fill-rule:nonzero;stroke:none"
             d="m 0,0 c -2.691,-6.517 -5.711,-12.508 -13.804,-16.195 3.616,5.921 6.062,13.321 6.705,19.794 C -3.151,4.42 -2.674,1.698 0,0" /></g><g
           transform="translate(879.5836,647.8132)"
           id="g448"><path
             id="path450"
             style="fill:#b96d15;fill-opacity:1;fill-rule:nonzero;stroke:none"
             d="M 0,0 C -1.718,-2.608 2.981,-7.828 -4.733,-1.799 -2.204,0.586 -3.911,2.438 0,0" /></g><g
           transform="translate(945.0561,653.2115)"
           id="g452"><path
             id="path454"
             style="fill:#f6a52a;fill-opacity:1;fill-rule:nonzero;stroke:none"
             d="m 0,0 c -7.195,-5.646 -12.189,-10.758 -5.522,-7.798 -4.212,-2.952 -1.387,-5.322 -9.071,-2.399 -5.442,-3.47 -10.442,-12.359 -12.227,-10.797 0.529,1.671 -0.551,5.501 0,6.898 0.986,2.501 8.925,4.403 10.649,5.699 2.801,2.105 1.655,5.48 10.649,10.196 C -7.099,-1.05 -7.099,-1.05 -8.677,-3.899 -8.577,-5.723 -1.61,-0.891 0,0" /></g><g
           transform="translate(966.3544,618.4221)"
           id="g456"><path
             id="path458"
             style="fill:#eed142;fill-opacity:1;fill-rule:nonzero;stroke:none"
             d="m 0,0 c -7.983,-9.875 -23.394,-9.686 -20.509,-2.399 5.999,1.091 16.191,1.193 19.72,4.198 L 0,1.799 C -0.038,1.203 0.007,0.599 0,0" /></g><g
           transform="translate(965.5656,620.2216)"
           id="g460"><path
             id="path462"
             style="fill:#f9c954;fill-opacity:1;fill-rule:nonzero;stroke:none"
             d="M 0,0 C -3.529,-3.006 -13.721,-3.107 -19.721,-4.199 -14.578,2.908 -9.185,2.845 0,0" /></g><g
           transform="translate(917.4472,630.4185)"
           id="g464"><path
             id="path466"
             style="fill:#799586;fill-opacity:1;fill-rule:nonzero;stroke:none"
             d="m 0,0 c -2.593,-7.757 -3.496,-9.043 -11.044,-14.995 -0.073,0.141 -2.873,-1.527 -1.577,1.499 1.199,2.8 9.803,3.583 11.043,15.295 z" /></g><g
           transform="translate(976.6091,643.0146)"
           id="g468"><path
             id="path470"
             style="fill:#f6a52a;fill-opacity:1;fill-rule:nonzero;stroke:none"
             d="m 0,0 c -8.605,-0.039 -5.946,-3.95 -7.099,-8.397 -1.063,-4.096 -2.916,-10.628 -3.156,-14.396 h -0.789 c -9.185,2.845 -14.578,2.908 -19.72,-4.199 -2.885,-7.286 12.526,-7.476 20.509,2.399 -0.187,-15.508 9.15,-25.487 18.932,-38.388 -7.551,-1.566 -14.797,-2.523 -22.087,-11.996 -0.85,-1.105 -1.536,-1.121 -1.578,-1.2 -1.455,2.014 -3.917,3.712 -4.733,5.998 v 2.4 c 1.587,5.727 6.743,5.252 5.522,6.897 -15.306,-3.324 -9.215,-9.39 -1.577,-16.495 -0.028,-0.195 0.004,-0.402 0,-0.599 -4.156,-3.099 -5.282,-2.818 -5.522,-3 -2.218,0.692 -4.006,1.826 -6.311,2.4 -21.05,5.243 -9.815,-6.206 -27.609,2.399 -10.558,11.022 -4.107,8.617 -3.944,16.795 2.354,9.26 -2.924,18.358 -7.888,26.392 -1.151,1.862 -2.157,3.473 -3.155,5.398 7.547,5.953 8.45,7.239 11.043,14.996 0.031,0.092 0.119,-0.315 0.789,1.799 1.785,-1.562 6.785,7.327 12.227,10.797 7.684,-2.923 4.859,-0.553 9.071,2.399 5.537,3.881 12.989,7.465 16.566,11.997 5.889,-5.107 1.872,-11.118 2.76,-11.397 C -16.869,2.723 -8.839,6.025 0,0" /></g><g
           transform="translate(955.3109,562.0391)"
           id="g472"><path
             id="path474"
             style="fill:#cd5c48;fill-opacity:1;fill-rule:nonzero;stroke:none"
             d="M 0,0 C -0.101,-0.076 0.635,-0.237 -1.578,-1.799 L -6.311,2.399 C -4.005,1.825 -2.218,0.692 0,0" /></g><g
           transform="translate(983.7085,596.8286)"
           id="g476"><path
             id="path478"
             style="fill:#f1f1ab;fill-opacity:1;fill-rule:nonzero;stroke:none"
             d="m 0,0 c -6.566,-1.595 -9.652,0.143 -6.311,-2.399 5.128,-6.898 5.128,-6.898 10.255,-13.796 -0.77,-0.166 -1.409,-0.401 -2.366,-0.6 -9.782,12.901 -19.119,22.88 -18.932,38.388 0.007,0.599 -0.038,1.203 0,1.8 0.239,3.768 2.093,10.3 3.155,14.396 h 0.789 c -0.146,-0.854 1.553,-0.449 1.578,-0.9 C -11.699,34.462 -21.342,16.726 -8.283,0.6 -3.173,0.181 4.261,2.315 0,0" /></g><g
           transform="translate(976.6091,643.0146)"
           id="g480"><path
             id="path482"
             style="fill:#6ea3a9;fill-opacity:1;fill-rule:nonzero;stroke:none"
             d="M 0,0 C -5.367,-3.571 -3.37,-5.918 -3.944,-7.198 -3.99,-7.3 -5.363,-8.771 -6.311,-8.397 H -7.099 C -5.946,-3.95 -8.605,-0.039 0,0" /></g><g
           transform="translate(917.4472,583.6326)"
           id="g484"><path
             id="path486"
             style="fill:#84c1b0;fill-opacity:1;fill-rule:nonzero;stroke:none"
             d="m 0,0 c -0.163,-8.178 -6.614,-5.773 3.944,-16.795 -3.825,1.85 -7.142,3.463 -10.255,5.998 4.423,6.896 4.177,10.906 3.945,17.995 C -0.155,7.562 0.045,2.279 0,0" /></g><g
           transform="translate(917.4472,583.6326)"
           id="g488"><path
             id="path490"
             style="fill:#8e8b5f;fill-opacity:1;fill-rule:nonzero;stroke:none"
             d="m 0,0 c 0.045,2.279 -0.155,7.562 -2.366,7.198 -0.007,0.2 0.012,0.4 0,0.6 -0.004,0.061 1.631,-0.177 1.577,0.3 -0.454,4.003 -5.838,13.515 -7.099,18.294 C -2.924,18.358 2.354,9.26 0,0" /></g><g
           transform="translate(956.8885,575.2352)"
           id="g492"><path
             id="path494"
             style="fill:#8fc7c9;fill-opacity:1;fill-rule:nonzero;stroke:none"
             d="M 0,0 C -0.34,-1.227 -0.753,-0.287 0,-2.399 0.815,-4.686 3.277,-6.383 4.733,-8.397 4.019,-9.748 3.953,-9.53 3.944,-9.597 -3.693,-2.492 -9.785,3.574 5.522,6.898 6.742,5.252 1.586,5.728 0,0" /></g><g
           transform="translate(949.7891,640.6154)"
           id="g496"><path
             id="path498"
             style="fill:#f6a52a;fill-opacity:1;fill-rule:nonzero;stroke:none"
             d="M 0,0 C 0.735,0.284 3.044,1.65 3.944,1.799 10.386,2.868 22.86,1.925 16.96,-4.799 10.869,-2.006 5.66,-1.358 0,0" /></g><g
           transform="translate(942.6896,583.0328)"
           id="g500"><path
             id="path502"
             style="fill:#8fc7c9;fill-opacity:1;fill-rule:nonzero;stroke:none"
             d="M 0,0 C -0.198,-5.045 -1.708,-9.273 0,-13.496 -11.355,-10.82 -1.774,0.898 -1.578,1.799 Z" /></g><g
           transform="translate(941.9008,620.8214)"
           id="g504"><path
             id="path506"
             style="fill:#efe7cb;fill-opacity:1;fill-rule:nonzero;stroke:none"
             d="m 0,0 c -3.295,0.19 -0.289,-1.734 -0.789,-4.499 -0.857,-4.74 -4.854,-9.791 1.578,-23.093 0.021,-3.455 0.136,-6.718 0,-10.197 l -1.578,1.8 c 1.904,8.741 -4.399,18.53 -3.944,27.292 C -4.683,-7.726 -0.749,7.696 0,0" /></g><g
           transform="translate(953.7332,643.0146)"
           id="g508"><path
             id="path510"
             style="fill:#9ebd9f;fill-opacity:1;fill-rule:nonzero;stroke:none"
             d="m 0,0 v -0.6 c -0.9,-0.149 -3.21,-1.515 -3.944,-1.799 -2.276,-0.88 -4.547,-0.853 -6.311,-2.699 -1.964,-2.057 -1.656,-8.616 -3.944,-8.698 v 4.199 c -0.844,11.152 1.294,6.636 5.128,7.798 3.244,0.983 5.967,2.37 8.282,2.999 C -0.394,0.6 -0.394,0.6 0,0" /></g><g
           transform="translate(941.9008,620.8214)"
           id="g512"><path
             id="path514"
             style="fill:#799586;fill-opacity:1;fill-rule:nonzero;stroke:none"
             d="M 0,0 C 3.033,-7.381 -0.798,-8.234 -0.789,-8.697 -0.66,-15.07 0.75,-21.216 0.789,-27.592 -5.643,-14.29 -1.646,-9.239 -0.789,-4.499 -0.289,-1.734 -3.295,0.19 0,0" /></g><g
           transform="translate(939.5343,629.2188)"
           id="g516"><path
             id="path518"
             style="fill:#fdebb7;fill-opacity:1;fill-rule:nonzero;stroke:none"
             d="M 0,0 V 4.199 Z" /></g><g
           transform="translate(953.7332,643.0146)"
           id="g520"><path
             id="path522"
             style="fill:#805838;fill-opacity:1;fill-rule:nonzero;stroke:none"
             d="M 0,0 C -0.394,0.6 -0.394,0.6 -0.789,1.2 4.553,2.651 4.757,1.844 0,0" /></g><g
           transform="translate(956.8885,572.8359)"
           id="g524"><path
             id="path526"
             style="fill:#8d8f7f;fill-opacity:1;fill-rule:nonzero;stroke:none"
             d="M 0,0 C -0.753,2.112 -0.34,1.172 0,2.399 Z" /></g><g
           transform="translate(983.7085,596.8286)"
           id="g528"><path
             id="path530"
             style="fill:#86a299;fill-opacity:1;fill-rule:nonzero;stroke:none"
             d="M 0,0 -6.311,-2.399 C -9.652,0.143 -6.566,-1.595 0,0" /></g><g
           transform="translate(902.4595,677.8041)"
           id="g532"><path
             id="path534"
             style="fill:#f6daaf;fill-opacity:1;fill-rule:nonzero;stroke:none"
             d="m 0,0 c -0.191,-3.395 -1.803,-7.522 -3.155,-10.797 -2.674,1.699 -3.152,4.421 -7.1,3.599 0.421,4.243 -1.033,8.393 0,12.596 C -6.624,6.39 0.604,10.729 0,0" /></g><g
           transform="translate(895.7545,674.2052)"
           id="g536"><path
             id="path538"
             style="fill:#f0c783;fill-opacity:1;fill-rule:nonzero;stroke:none"
             d="M 0,0 C 1.801,0.868 2.227,-0.578 0.789,-1.799 0.133,-1.393 -1.132,-0.545 0,0" /></g><g
           transform="translate(918.2361,656.8105)"
           id="g540"><path
             id="path542"
             style="fill:#f6daaf;fill-opacity:1;fill-rule:nonzero;stroke:none"
             d="m 0,0 c -2.844,-7.35 -12.804,-11.114 -14.988,-13.196 -10.374,-0.97 -22.546,-7.972 -29.975,-13.796 -13.066,0.197 1.583,2.299 3.155,5.998 0.66,0.23 0.339,-1.436 3.156,0.9 4.088,3.39 11.006,18.051 39.046,24.893 C 1.924,4.603 -0.266,1.721 0,0" /></g><g
           transform="translate(912.3199,656.8105)"
           id="g544"><path
             id="path546"
             style="fill:#f9c954;fill-opacity:1;fill-rule:nonzero;stroke:none"
             d="M 0,0 0.394,-2.099 C -24.003,-19.804 -24.177,-15.777 0,0" /></g></g></g></g></svg>