<?xml version="1.0" encoding="UTF-8"?>
<svg id="Calque_2" data-name="Calque 2" xmlns="http://www.w3.org/2000/svg" viewBox="0 0 309.83 264.48">
  <defs>
    <style>
      .cls-1 {
        fill: #f2d527;
      }

      .cls-1, .cls-2, .cls-3, .cls-4, .cls-5, .cls-6, .cls-7, .cls-8, .cls-9, .cls-10, .cls-11, .cls-12, .cls-13, .cls-14, .cls-15, .cls-16, .cls-17, .cls-18 {
        stroke-width: 0px;
      }

      .cls-2 {
        fill: #0a2f42;
      }

      .cls-3 {
        fill: #016273;
      }

      .cls-4 {
        fill: #da5a35;
      }

      .cls-5 {
        fill: #0a1e2c;
      }

      .cls-6 {
        fill: #2e2a0f;
      }

      .cls-7 {
        fill: #0d1e11;
      }

      .cls-8 {
        fill: #023440;
      }

      .cls-9 {
        fill: #632512;
      }

      .cls-10 {
        fill: #fc8e58;
      }

      .cls-11 {
        fill: #121c18;
      }

      .cls-12 {
        fill: #1aa6ba;
      }

      .cls-13 {
        fill: #403f26;
      }

      .cls-14 {
        fill: #558c91;
      }

      .cls-15 {
        fill: #f27747;
      }

      .cls-16 {
        fill: #0b2625;
      }

      .cls-17 {
        fill: #251c0a;
      }

      .cls-18 {
        fill: #dc9810;
      }
    </style>
  </defs>
  <g id="Calque_1-2" data-name="Calque 1">
    <g>
      <g>
        <path class="cls-8" d="M308.86,66.5c-2.74,23.25-16.12,43.62-17,67.25-1.03,27.66,15.36,50.75,14.5,71.25-16.48,1.03-30.47-13.92-41-25.25-4.57-4.91-20.46-22.15-13.25-19.25,21.06,14.01,14.24,8.88.75-4.25,3.52-8.13,4.55-3.07,10.75-1.75,22.42,4.79,25.09-19.21,17-23.5-7.57-4.02-21.54,9.42-13,16,9.8.46,1.62-12.94,11.5-10.5,7.36,15.87-17.25,18.77-20.25,11.25-.57-1.42,1.94-19.77-1-30.5,14.88-18.52,26.35-43.8,51-50.75Z"/>
        <path class="cls-5" d="M308.86,66.5c-24.65,6.95-36.12,32.23-51,50.75,2.94,10.73.43,29.08,1,30.5,3,7.52,27.61,4.62,20.25-11.25-9.88-2.44-1.7,10.96-11.5,10.5-8.54-6.58,5.43-20.02,13-16,8.09,4.29,5.42,28.29-17,23.5-6.2-1.32-7.23-6.38-10.75,1.75,13.49,13.13,20.31,18.26-.75,4.25-7.21-2.9,8.68,14.34,13.25,19.25,10.53,11.33,24.52,26.28,41,25.25-.79,18.81-22.72,5.66-30.75-1-13.39-11.11-24.67-33.62-29.75-38.5,1.14.17.93-.4,1-.5,3.88-5.84,6.38-12.62,7.5-19.5,1.6-9.8,2.33-23.83-5.5-31,6.3-7.93,16.09-27.81,25-38.75,5.2-6.38,24.54-25.75,33.25-21.75,4.38,3.27,2.25,8.21,1.75,12.5Z"/>
      </g>
      <path class="cls-18" d="M90.86,202.5c11.28,5.14,23.27,8.59,35,12.5-.32.26-4.03,5.95-4.5,7-6.74,0-23.14-1.84-29.5-3.5-3.68-.96-10.39-4.36-14-6l12-10c.37.04.85-.07,1,0Z"/>
      <g>
        <path class="cls-8" d="M144.86,238.5c1.66,4.53,5.68,11.24,6,16-15.38,5.36-31.18-.69-43-11-5.62-6.86-8.63-11.86-13-19.5,37.27-1.42,44.87,12.49,50,14.5Z"/>
        <path class="cls-5" d="M150.86,254.5c1.17,17.33-21.77,7.95-29.75,2.5-5.24-3.58-9.29-8.67-13.25-13.5,11.82,10.31,27.62,16.36,43,11Z"/>
      </g>
      <g>
        <path class="cls-5" d="M229.36,113c-.07-.11-.71.38-2-1.75-3.32-5.48-5.75-11.69-9.5-17-13.17-18.64-34.97-31.43-56-39.25-7.89-2.93-16.4-6.4-25-5.5-.16-.02-.34.02-.5,0,.49-1-2.72-1.41-3.75-1.5-4.44-.4-21.48-.55-23.25,1.5-.16.02-.34-.02-.5,0-10.33-.75-20.56,3.82-30.5,6.5.36-.49,3.7-8.07,5.5-10.75C95.44,28.03,108.88,11.83,126.11,0c23.67,20.74,83.04,45.08,101.75,64.25,13.4,13.73,24.2,38.28,1.5,48.75Z"/>
        <g>
          <path class="cls-7" d="M108.86,49.5c-10.48,1.2-20.66,3.66-30.5,7.5-.06-.36-.05-.56-.5-.5.33-.41.48-.47.5-.5,9.94-2.68,20.17-7.25,30.5-6.5Z"/>
          <path class="cls-7" d="M161.86,55c-8.26-2.46-16.44-4.49-25-5.5,8.6-.9,17.11,2.57,25,5.5Z"/>
          <path class="cls-7" d="M136.36,49.5c-11.5-1.28-15.48-1.24-27,0,1.77-2.05,18.81-1.9,23.25-1.5,1.03.09,4.24.5,3.75,1.5Z"/>
          <path class="cls-2" d="M228.61,81.5c4.44.14,12.43,25.8.25,23.75l-6-11,8-5c-8.17-.95-6.86,6.95-14-3.5l11.75-4.25Z"/>
          <path class="cls-8" d="M122.11,11.5c.81-.24,4.35,1.29,3.75,2.75-5.02,8.45-11.72,15.63-17.5,23.5-.91,1.24-4.99,9.79-6.75,8.75-1.83-1.08,19.57-32.03,20.5-35Z"/>
          <path class="cls-8" d="M135.61,18c2.04,1.45,5.89,1.19,5.25,3.75-15.31,36.33-14.84,30.36-5.25-3.75Z"/>
          <path class="cls-8" d="M130.61,16l2,.5c-10.29,40.05-20.54,38.39-2-.5Z"/>
          <path class="cls-2" d="M118.11,9l1.75.25c-10.22,8.95-23.16,35.41-26,39-6.9,8.72,2.84-10.82,7-17.5,4.93-7.92,11.47-14.51,17.25-21.75Z"/>
          <path class="cls-8" d="M146.11,23c.51-.21,4.46,1.56,4.25,2.75-2.86,1.79-11.55,22.34-13.25,21.25-1.15-.73,7.5-21.85,9-24Z"/>
          <path class="cls-5" d="M202.86,72c1.3-4.19,8.28-5.16,12.5-6,.79.46,4.99,3.23,4.25,4-14.04,2.38-11.58,7.51-16.75,2Z"/>
          <path class="cls-8" d="M155.61,27.5l2.75,1.75c-16.42,25.89-18.32,23.56-2.75-1.75Z"/>
          <path class="cls-8" d="M119.11,26.5c1.85,2.53-4.54,19.49-6.5,19.5-2.99,0,5.47-17.54,6.5-19.5Z"/>
          <path class="cls-2" d="M196.61,53l3.75,2.75c-12.95,10.43-15.24,11.13-3.75-2.75Z"/>
          <path class="cls-2" d="M220.11,73c11.52-1.05-2.75,3.47-8,6.5-6.91-1.83,6-6.32,8-6.5Z"/>
          <path class="cls-8" d="M171.61,37l2.25,1.25c-15.09,17.94-18.06,17.66-2.25-1.25Z"/>
          <path class="cls-2" d="M215.36,66c-4.22.84-11.2,1.81-12.5,6-.08-.09-.84.3-2-1.25,5.29-5.29,7.06-9.02,14.5-4.75Z"/>
          <path class="cls-2" d="M164.61,32.5c2.95.08-13.77,21.49-12.25,16.25l12.25-16.25Z"/>
          <path class="cls-2" d="M224.61,77c8.45-1.21-4.95,3.48-8.5,7-6.03-2.74,2.16-4.85,8-6,.41-.08.1-.94.5-1Z"/>
          <path class="cls-2" d="M180.11,42.5l1.25.25c-15.4,17.2-18.39,13.54-1.25-.25Z"/>
          <path class="cls-2" d="M201.61,57c5.88-1.12-5.25,10.19-6,10-1.82-.46,4.52-8.58,6-10Z"/>
          <path class="cls-2" d="M193.61,50.5l1.25,1.25c-12.11,12.98-14.76,9.94-1.25-1.25Z"/>
          <path class="cls-2" d="M187.11,47c.05,3.61-6.76,8.24-10,11-1.88-.62,8.68-10.27,10-11Z"/>
        </g>
      </g>
      <g>
        <path class="cls-5" d="M225.36,171c1.94.61,10.83,8.68,11.5,10.75,8.79,27.08-72.06,64.57-92,56.75-5.13-2.01-12.73-15.92-50-14.5-1.04-1.82-2.19-3.55-3-5.5,6.36,1.66,22.76,3.49,29.5,3.5,41.47.04,76.26-20.9,102.75-51.5.58-.12.71.33,1.25.5Z"/>
        <g>
          <path class="cls-2" d="M179.36,221c-13.15-.97-4.11-.86,6.25-5.5,5.21-2.33,10.08-5.56,15.25-8,2.78-1.31,5.71-2,8.5-3.25.27-1.81-12.25,2.08-9.75-.75,3.82-1.02,7.69-.43,11.5-1,2.21-.33,4.84-2.96,7.25-1.25.83,2.08-33.31,24.17-39,19.75Z"/>
          <path class="cls-5" d="M199.36,206.5l1.5,1c-5.17,2.44-10.04,5.67-15.25,8-10.36,4.64-19.4,4.53-6.25,5.5-.1.57.2,1.07.5,1.5-6.62.37-25.97-2.63-9.25,2,2.66,5.35-9.74-1.63-12.25.5-2.39-.95-6.53-3.17-8-1-.16-.08-1.15.25-1.5-1,2.81-.5,5.7-1.4,8.5-2,.67,1.27,2.34-.23,3-.5,19.2-4.48,16.2-5.68,25.25-9.5,2.03-.86,10.21-2.64,13.75-4.5Z"/>
          <path class="cls-2" d="M224.11,176.5c9.65,2.99,6.34,13.58-1.5,15.5-5.39,1.32-18.02.34-12-1,9.01-2,26.01-1.62,4.75-4.75-1.52-2.18,25.58-2.41,5.5-6.5l3.25-3.25Z"/>
          <path class="cls-2" d="M148.86,223c.35,1.25,1.34.92,1.5,1,1.05.51,11.76,5.63,11.5,6.25-7.92,3.95-15.4-2.49-22.75-5.25-2.36-1.65,4.28-1.02,9.75-2Z"/>
          <path class="cls-2" d="M179.86,222.5c.53.77,1.57.6.75,1.5-2.89.34-11.58,4.94-12.5,5-2.87.18-7.19-2.98-9.75-4,2.51-2.13,14.91,4.85,12.25-.5-16.72-4.63,2.63-1.63,9.25-2Z"/>
          <path class="cls-2" d="M224.11,193c-.72,9.75-16.31,5.07-23.75,5.75,5.31-1.06,10.81-.97,16-2.5-5.97-1.29,6.06-2.39,7.75-3.25Z"/>
          <path class="cls-2" d="M199.36,206.5c-3.54,1.86-11.72,3.64-13.75,4.5-9.05,3.82-6.05,5.02-25.25,9.5,4.14-1.69,8.68-2.37,12.75-4,6.67-2.67,18.25-10.14,25-11,1.95-.25,3.84-.36,1.25,1Z"/>
          <path class="cls-2" d="M160.36,220.5c-.66.27-2.33,1.77-3,.5,1.01-.22,2.22-.32,3-.5Z"/>
        </g>
      </g>
      <g>
        <path class="cls-4" d="M254.36,145.5c-1.12,6.88-3.62,13.66-7.5,19.5-3.22-1.67-5.85-5.28-9.75-5l.25,1c-4.4-.04-9.32,6.46-12,10-.54-.17-.67-.62-1.25-.5-26.49,30.6-61.28,51.54-102.75,51.5.47-1.05,4.18-6.74,4.5-7,1.81-1.48,19.48-6.4,31.5-21-2.79,3.66-5.74,7.05-9.5,9.75l.25,1.25c1.99.24,32.98-14.04,34.75-19l.5.5c3.22,1.89,4.02-2.74,6.25-4.5,6.29-4.97,38.56-28.19,41.25-32,.46-.65.49-.56,1-1.5h.5c5.65,4.57,19.86-.11,21.5-4.5l.5,1.5Z"/>
        <path class="cls-9" d="M246.86,165c-.07.1.14.67-1,.5-1.95-1.87-5.72-4.48-8.5-4.5l-.25-1c3.9-.28,6.53,3.33,9.75,5Z"/>
        <path class="cls-15" d="M230.86,150c-2.69,3.81-34.96,27.03-41.25,32-2.23,1.76-3.03,6.39-6.25,4.5,12.36-5.76-6.92-10.86-.5-.5-1.77,4.96-32.76,19.24-34.75,19l-.25-1.25c3.76-2.7,6.71-6.09,9.5-9.75,12.05-15.83,18.17-35.05,17-55,1.7,8.7,4.28,17.42,4.5,26.25,11.08,1.87,10.97,5.08,11.5,5.5,7.81,6.22,7.19-3.44,7.5-4,.61-1.12,10.03-12.79,10.75-13.25.99-.63,24.51-6.43,22.25-3.5Z"/>
        <path class="cls-15" d="M253.86,144c-1.64,4.39-15.85,9.07-21.5,4.5.66-.13.84-.83,1.5-1,7.25-1.81,15.96-4.92,20.25-11.5.44.22.43,6.19-.25,8Z"/>
        <g>
          <path class="cls-10" d="M233.86,121c7.87,3.55,10.32-.61,15-6.5,7.83,7.17,7.1,21.2,5.5,31l-.5-1.5c.68-1.81.69-7.78.25-8-4.29,6.58-13,9.69-20.25,11.5-2.86-3.55-1.88.78-2,1-.51.94-.54.85-1,1.5,2.26-2.93-21.26,2.87-22.25,3.5-.72.46-10.14,12.13-10.75,13.25-.31.56.31,10.22-7.5,4-.53-.42-.42-3.63-11.5-5.5-.22-8.83-2.8-17.55-4.5-26.25-1.37-7.01-1.73-14.33-3.5-21.25-5.67-22.22-20.17-41.72-39.25-54.25,45.64,1.41,87.95,51.05,102.25,57.5Z"/>
          <g>
            <path class="cls-7" d="M195.11,149h2c7.11,9.33-10.18,7.59-2,0Z"/>
            <path class="cls-7" d="M222.61,125.5c10.53.72-1.03,12.28-1.75,1.75l1.75-1.75Z"/>
            <path class="cls-11" d="M173.11,90c9.05,3.08-2.99,11.67-2.25,1.75l2.25-1.75Z"/>
            <path class="cls-8" d="M193.11,166c9.44.8-1.09,12.09-1.75,1.75l1.75-1.75Z"/>
            <path class="cls-7" d="M198.11,115c9.43,1.14-1.19,11.92-1.75,1.75l1.75-1.75Z"/>
            <path class="cls-8" d="M188.61,126.5h2.5c5.35,7.44-7.85,7.44-2.5,0Z"/>
            <path class="cls-16" d="M205.61,136c8.71,1.33-1.54,10.99-1.75,1.75l1.75-1.75Z"/>
            <path class="cls-6" d="M234.61,129l2.75.75c2.08,5.32-7.14,3.57-2.75-.75Z"/>
            <path class="cls-13" d="M186.61,104c5.69-1.01,3.33,6.25-.75,3.25l.75-3.25Z"/>
            <path class="cls-17" d="M233.86,147.5c-.66.17-.84.87-1.5,1h-.5c.12-.22-.86-4.55,2-1Z"/>
          </g>
        </g>
        <path class="cls-5" d="M183.36,186.5l-.5-.5c-6.42-10.36,12.86-5.26.5.5Z"/>
      </g>
      <g>
        <path class="cls-1" d="M136.36,49.5c.16.02.34-.02.5,0,8.56,1.01,16.74,3.04,25,5.5,21.03,7.82,42.83,20.61,56,39.25,3.75,5.31,6.18,11.52,9.5,17,1.29,2.13,1.93,1.64,2,1.75,1.6,2.53,2.9,5.44,4.5,8-14.3-6.45-56.61-56.09-102.25-57.5,19.08,12.53,33.58,32.03,39.25,54.25,1.77,6.92,2.13,14.24,3.5,21.25,1.17,19.95-4.95,39.17-17,55-12.02,14.6-29.69,19.52-31.5,21-11.73-3.91-23.72-7.36-35-12.5,32.68-42.58,25.83-86.65-1.5-129.75-1.75-2.76-10.78-14.48-11-15.75,9.84-3.84,20.02-6.3,30.5-7.5.16-.02.34.02.5,0,11.52-1.24,15.5-1.28,27,0Z"/>
        <path class="cls-8" d="M156.36,161.5c11.2,6.81-7.74,37.76-27.5,21-4.94-4.2-11.31-17.91-10.25-19,7.54-.67,32.79-5.02,37.75-2Z"/>
        <g>
          <path class="cls-5" d="M156.36,161.5c-4.96-3.02-30.21,1.33-37.75,2-1.06,1.09,5.31,14.8,10.25,19-9.93-4.65-16.73-28.23-13.75-31,11.1-2.19,26.52-17.53,38.5-14,6.52,1.92,7.63,11.74,6.25,17.25-1.03,4.1-4.54,5.44-3.5,6.75Z"/>
          <path class="cls-8" d="M147.11,148c10.19-.35,11.03,6.68,9.5,7.5-6.89-1.66-34.19,3.63-36,3.5-3.56-.26-2.53-3.75-1.5-4.5,1.16-.85,25.72-6.42,28-6.5Z"/>
        </g>
      </g>
      <g>
        <path class="cls-3" d="M89.86,202.5l-12,10c-19.9-9.02-41.21-22-56-38.25-3.08-3.39-11.37-15.28-12.25-15.75-2.15-1.14-13.09-1.44-8.5-11,24.95-.84,25.77,1.14,2-8-2.36-1.99-.76-4.25-.75-4.5,9.13,3.64,30.22,12.74,18.5,24.75,21.74,16.2,45.52,29.27,69,42.75Z"/>
        <g>
          <path class="cls-12" d="M78.36,57c.22,1.27,9.25,12.99,11,15.75,27.33,43.1,34.18,87.17,1.5,129.75-.15-.07-.63.04-1,0-23.48-13.48-47.26-26.55-69-42.75,11.72-12.01-9.37-21.11-18.5-24.75.39-7.18,5.33-4.71,7-6.75,1.38-1.69,3-15.92,22.5-37,19.23-20.79,42.99-31.03,46-34.75.45-.06.44.14.5.5Z"/>
          <g>
            <path class="cls-10" d="M55.86,117.5c.34,1.25,1.43.94,1.5,1,.9.71,2.47,3.32,4,4,5.88,10.04,4.64,22.42-6,28.5l-4,1.5c-30.36,3.47-28.44-41.27-.25-37,.25.04,4.08,1.7,4.75,2Z"/>
            <path class="cls-14" d="M61.36,122.5c-1.53-.68-3.1-3.29-4-4,2.4,1.47,2.56,1.54,4,4Z"/>
            <path class="cls-14" d="M55.36,151c-1.21.69-.14,1.06-4,1.5l4-1.5Z"/>
            <path class="cls-14" d="M57.36,118.5c-.07-.06-1.16.25-1.5-1,1.37.62,1.39.93,1.5,1Z"/>
            <g>
              <path class="cls-5" d="M44.11,120.5c18.31-2.85,20.93,23.03,8,27-20.7,6.35-24.04-24.51-8-27Z"/>
              <path class="cls-10" d="M45.61,125.5c16.85,3.73-5.1,18.41-3.25,2.25l3.25-2.25Z"/>
            </g>
          </g>
        </g>
      </g>
    </g>
  </g>
</svg>